{"glyphs":{"0":{"ha":684,"x_min":38,"x_max":651,"o":"m 342 939 q 168 488 168 944 q 342 33 163 16 q 515 488 521 22 q 342 939 515 944 m 342 982 q 651 488 613 949 q 342 -5 624 22 q 38 488 54 11 q 342 982 71 955 z "},"1":{"ha":684,"x_min":152,"x_max":532,"o":"m 163 16 l 163 54 l 250 54 q 293 109 293 54 l 293 836 q 255 863 293 884 l 168 819 l 152 863 l 363 982 l 401 960 l 401 109 q 445 54 401 54 l 532 54 l 532 16 l 163 16 z "},"2":{"ha":684,"x_min":43,"x_max":608,"o":"m 608 304 l 608 16 l 43 16 l 43 54 l 298 353 q 434 700 434 515 q 298 868 434 868 q 81 678 179 873 l 43 689 q 331 982 119 982 q 570 722 559 966 q 385 374 575 575 l 174 136 l 456 136 q 575 304 548 125 l 608 304 z "},"3":{"ha":684,"x_min":60,"x_max":613,"o":"m 212 456 l 201 499 q 423 738 429 581 q 315 868 423 868 q 92 711 195 873 l 60 727 q 336 982 152 977 q 553 781 548 977 q 412 564 553 662 q 613 326 613 537 q 217 -5 597 11 q 65 76 71 0 q 119 136 71 130 q 206 92 146 136 q 217 87 201 98 q 315 49 271 49 q 483 271 467 71 q 212 456 510 521 z "},"4":{"ha":684,"x_min":22,"x_max":646,"o":"m 646 326 l 646 217 l 510 217 l 510 -5 l 401 -5 l 401 217 l 22 217 l 22 320 l 445 982 l 510 982 l 510 326 l 646 326 m 401 326 l 401 825 l 81 326 l 401 326 z "},"5":{"ha":684,"x_min":49,"x_max":581,"o":"m 212 846 l 168 651 q 581 315 575 656 q 217 -5 559 16 q 49 71 54 -5 q 103 136 49 136 q 206 87 141 141 q 298 43 271 43 q 445 266 439 54 q 119 515 461 526 q 98 543 98 515 l 179 960 l 581 960 l 559 873 q 532 846 559 846 l 212 846 z "},"6":{"ha":684,"x_min":49,"x_max":635,"o":"m 602 982 l 602 939 q 201 526 255 841 q 380 602 282 602 q 635 309 618 586 q 347 -5 613 22 q 49 374 60 5 q 602 982 87 884 m 331 521 q 190 472 260 521 q 184 320 179 374 q 347 33 190 27 q 505 282 505 38 q 331 521 510 526 z "},"7":{"ha":684,"x_min":60,"x_max":608,"o":"m 608 960 l 608 928 l 320 -5 l 206 -5 l 488 846 l 184 846 q 130 803 136 852 l 92 684 l 60 684 l 60 960 l 608 960 z "},"8":{"ha":684,"x_min":60,"x_max":624,"o":"m 293 450 q 168 233 163 358 q 353 33 179 43 q 515 206 505 49 q 293 450 515 331 m 336 -5 q 65 217 87 11 q 250 488 60 363 q 87 749 81 602 q 336 982 103 966 q 575 770 559 966 q 407 537 581 640 q 618 239 624 418 q 336 -5 608 5 m 190 798 q 358 570 184 684 q 483 781 483 667 q 320 939 472 928 q 190 798 201 928 z "},"9":{"ha":684,"x_min":43,"x_max":618,"o":"m 81 -5 l 71 33 q 483 434 423 152 q 282 342 391 342 q 43 635 60 363 q 326 982 54 971 q 618 575 608 971 q 81 -5 618 92 m 488 510 q 326 939 505 944 q 174 678 174 939 q 336 418 168 412 q 488 510 423 423 z "},"!":{"ha":374,"x_min":109,"x_max":266,"o":"m 206 293 l 168 293 l 130 640 q 114 873 114 819 q 190 982 114 987 q 260 873 260 987 q 250 700 260 836 q 244 640 244 656 l 206 293 m 190 -5 q 109 71 109 -5 q 190 157 114 152 q 266 71 260 152 q 190 -5 260 0 z "},"\"":{"ha":608,"x_min":119,"x_max":488,"o":"m 201 586 l 157 586 l 130 792 q 125 819 130 803 q 119 890 119 879 q 179 982 119 987 q 239 890 239 987 q 228 792 239 852 l 201 586 m 450 586 l 407 586 l 380 792 q 374 819 380 803 q 369 890 369 879 q 429 982 369 987 q 488 890 488 987 q 477 792 488 852 l 450 586 z "},"#":{"ha":684,"x_min":11,"x_max":667,"o":"m 347 -5 l 391 293 l 217 293 l 179 -5 l 92 -5 l 136 293 l 11 293 l 11 374 l 146 374 l 184 618 l 49 618 l 49 700 l 195 700 l 233 982 l 315 982 l 277 700 l 445 700 l 488 982 l 570 982 l 532 700 l 667 700 l 667 618 l 521 618 l 483 374 l 629 374 l 629 293 l 472 293 l 434 -5 l 347 -5 m 266 618 l 228 374 l 401 374 l 434 618 l 266 618 z "},"$":{"ha":684,"x_min":49,"x_max":640,"o":"m 130 60 l 87 5 l 54 5 l 54 266 l 92 266 q 320 38 163 65 l 320 434 q 54 711 49 521 q 320 982 71 960 l 320 1096 l 369 1096 l 369 977 q 505 917 439 966 l 548 960 l 575 960 l 575 694 l 537 694 q 369 928 494 884 l 369 564 q 418 548 396 559 q 640 277 640 477 q 369 -5 640 5 l 369 -125 l 320 -125 l 320 -5 q 130 60 206 5 m 369 418 l 369 33 q 575 206 570 49 q 369 418 564 358 m 320 581 l 320 939 l 309 939 q 119 770 136 928 q 320 581 119 662 z "},"%":{"ha":1150,"x_min":71,"x_max":1069,"o":"m 1025 391 q 949 494 1025 488 q 743 157 765 456 q 819 65 743 65 q 1025 391 998 114 m 933 553 q 1069 391 1069 553 q 787 16 1042 54 q 629 184 635 22 q 933 553 673 505 m 922 982 l 288 -5 l 217 -5 l 852 982 l 922 982 m 467 798 q 391 901 461 895 q 184 564 206 857 q 260 472 184 472 q 467 798 439 515 m 374 960 q 510 798 510 960 q 228 418 483 456 q 71 586 76 423 q 374 960 114 911 z "},"&":{"ha":998,"x_min":54,"x_max":939,"o":"m 743 553 l 673 553 l 673 591 l 939 591 l 939 553 l 873 553 q 830 505 830 553 q 694 190 814 331 q 776 54 738 125 l 890 54 l 890 16 l 646 16 q 624 60 640 33 q 602 98 613 87 q 336 -5 477 -5 q 54 288 71 11 q 315 586 54 477 q 244 787 244 705 q 456 982 255 977 q 662 798 651 971 q 450 586 667 662 q 467 559 461 570 q 673 233 559 439 q 787 510 770 358 q 743 553 781 548 m 396 54 q 581 136 483 54 q 434 385 526 233 q 363 499 385 467 q 353 510 358 505 q 336 543 347 521 q 179 347 174 477 q 396 54 201 87 m 342 830 q 423 629 342 765 q 559 814 559 684 q 450 939 559 939 q 342 830 347 933 z "},"'":{"ha":304,"x_min":87,"x_max":206,"o":"m 168 586 l 130 586 l 98 792 q 92 819 98 803 q 87 890 87 879 q 146 982 87 987 q 206 890 206 987 q 206 857 206 884 q 201 792 201 814 l 168 586 z "},"(":{"ha":374,"x_min":60,"x_max":369,"o":"m 369 -103 l 342 -125 q 65 483 60 125 q 342 1096 71 852 l 369 1074 q 179 483 163 901 q 369 -103 163 92 z "},")":{"ha":374,"x_min":11,"x_max":320,"o":"m 11 1074 l 33 1096 q 315 483 309 846 q 33 -125 320 125 l 11 -103 q 201 483 217 92 q 11 1074 217 901 z "},"*":{"ha":684,"x_min":92,"x_max":597,"o":"m 163 651 l 315 694 l 163 738 q 92 798 92 760 q 146 863 98 857 q 217 825 179 863 l 326 722 l 298 873 q 293 890 298 879 q 288 928 288 911 q 336 982 293 977 q 391 922 391 982 q 391 901 391 917 q 385 873 385 884 l 353 722 l 467 825 q 543 863 510 863 q 591 798 591 857 q 510 738 597 765 l 363 694 l 521 651 q 591 591 597 629 q 548 532 586 537 q 483 564 526 532 l 353 662 l 385 521 q 391 488 385 510 q 391 461 391 467 q 336 407 391 407 q 288 461 288 407 q 298 521 288 499 l 326 662 l 212 564 q 146 532 168 532 q 92 591 98 537 q 163 651 92 629 z "},"+":{"ha":760,"x_min":71,"x_max":684,"o":"m 331 510 l 331 798 l 423 798 l 423 510 l 684 510 l 684 418 l 423 418 l 423 130 l 331 130 l 331 418 l 71 418 l 71 510 l 331 510 z "},",":{"ha":336,"x_min":65,"x_max":255,"o":"m 92 -190 l 65 -152 q 201 5 168 -92 q 157 -5 184 -11 q 81 81 87 0 q 168 168 87 163 q 255 54 255 168 q 92 -190 255 -103 z "},"-":{"ha":760,"x_min":71,"x_max":684,"o":"m 684 418 l 71 418 l 71 510 l 684 510 l 684 418 z "},".":{"ha":336,"x_min":81,"x_max":255,"o":"m 168 168 q 255 81 250 163 q 168 -5 250 0 q 81 81 87 0 q 168 168 87 163 z "},"/":{"ha":374,"x_min":0,"x_max":380,"o":"m 282 982 l 380 982 l 98 -5 l 0 -5 l 282 982 z "},":":{"ha":336,"x_min":81,"x_max":255,"o":"m 168 168 q 255 81 250 163 q 168 -5 250 0 q 81 81 87 0 q 168 168 87 163 m 168 586 q 255 499 250 581 q 168 412 250 418 q 81 499 87 418 q 168 586 87 581 z "},";":{"ha":336,"x_min":65,"x_max":255,"o":"m 92 -190 l 65 -152 q 201 5 168 -92 q 157 -5 184 -11 q 81 81 87 0 q 168 168 87 163 q 255 49 255 163 q 92 -190 255 -103 m 168 586 q 255 499 250 581 q 168 412 250 418 q 81 499 87 418 q 168 586 87 581 z "},"<":{"ha":760,"x_min":65,"x_max":689,"o":"m 689 195 l 689 87 l 65 418 l 65 510 l 689 841 l 689 732 l 168 467 l 689 195 z "},"=":{"ha":760,"x_min":71,"x_max":684,"o":"m 684 277 l 71 277 l 71 363 l 684 363 l 684 277 m 684 564 l 71 564 l 71 651 l 684 651 l 684 564 z "},">":{"ha":760,"x_min":65,"x_max":689,"o":"m 65 87 l 65 195 l 586 467 l 65 732 l 65 841 l 689 510 l 689 418 l 65 87 z "},"?":{"ha":608,"x_min":54,"x_max":515,"o":"m 271 293 l 228 293 q 277 591 195 548 q 445 787 450 694 q 277 939 439 933 q 119 846 168 933 q 146 852 125 852 q 217 787 212 846 q 136 705 217 705 q 54 792 60 711 q 282 982 76 966 q 510 743 499 971 q 369 499 515 570 q 271 293 282 456 m 250 -5 q 168 76 168 -5 q 250 152 174 146 q 331 76 331 152 q 250 -5 331 -5 z "},"@":{"ha":1069,"x_min":65,"x_max":1015,"o":"m 684 581 q 613 673 678 667 q 445 396 467 640 q 532 288 450 288 q 684 581 662 320 m 705 662 l 722 716 l 814 716 l 727 353 q 776 271 711 277 q 966 548 949 304 q 564 922 944 906 q 179 456 201 890 q 575 49 201 71 q 873 114 727 49 l 890 71 q 575 -5 743 -5 q 65 456 92 16 q 564 982 103 944 q 1015 548 987 955 q 749 212 998 239 q 640 304 646 212 q 488 212 575 212 q 342 391 347 217 q 608 738 374 700 q 705 662 684 732 z "},"A":{"ha":917,"x_min":43,"x_max":879,"o":"m 233 54 l 309 54 l 309 16 l 43 16 l 43 54 l 92 54 q 163 119 141 54 l 439 982 l 499 982 l 760 125 q 836 54 781 60 l 879 54 l 879 16 l 532 16 l 532 54 l 608 54 q 635 98 651 54 l 559 347 l 288 347 l 206 98 q 233 54 195 54 m 429 792 l 304 401 l 543 401 l 429 792 z "},"B":{"ha":841,"x_min":54,"x_max":770,"o":"m 282 488 l 282 109 q 326 54 282 60 l 401 54 q 629 282 629 54 q 401 488 629 494 l 282 488 m 282 863 l 282 532 l 401 532 q 597 727 597 532 q 401 917 602 922 l 326 917 q 282 863 282 917 m 418 16 l 54 16 l 54 54 l 119 54 q 157 109 157 54 l 157 863 q 119 917 157 922 l 54 917 l 54 960 l 418 960 q 732 727 727 955 q 532 510 732 570 q 765 282 765 456 q 418 16 770 11 z "},"C":{"ha":841,"x_min":71,"x_max":749,"o":"m 727 960 l 727 684 l 694 684 q 456 939 651 949 q 212 488 206 944 q 456 33 206 27 q 716 293 684 27 l 749 293 l 749 16 l 722 16 l 684 71 q 461 -5 591 -5 q 71 488 98 22 q 467 982 109 944 q 662 901 575 982 l 700 960 l 727 960 z "},"D":{"ha":917,"x_min":54,"x_max":852,"o":"m 293 863 l 293 109 q 336 54 293 54 l 412 54 q 711 488 722 43 q 412 917 716 922 l 336 917 q 293 863 293 917 m 168 109 l 168 857 q 125 917 168 922 l 54 917 l 54 960 l 423 960 q 852 488 819 928 q 423 16 825 43 l 54 16 l 54 54 l 125 54 q 168 109 168 54 z "},"E":{"ha":841,"x_min":38,"x_max":765,"o":"m 765 16 l 38 16 l 38 54 l 125 54 q 168 109 168 54 l 168 863 q 125 917 168 917 l 38 917 l 38 960 l 732 960 l 732 694 l 700 694 q 483 917 684 933 l 293 917 l 293 521 l 396 521 q 543 673 543 510 l 575 673 l 575 326 l 543 326 q 396 477 543 488 l 293 477 l 293 54 l 515 54 q 732 293 711 33 l 765 293 l 765 16 z "},"F":{"ha":770,"x_min":49,"x_max":722,"o":"m 412 16 l 49 16 l 49 54 l 125 54 q 163 109 163 54 l 163 863 q 125 917 163 917 l 49 917 l 49 960 l 722 960 l 722 694 l 689 694 q 472 917 667 939 l 293 917 l 293 515 l 396 515 q 543 667 537 505 l 575 667 l 575 309 l 543 309 q 396 472 532 483 l 293 472 l 293 109 q 331 54 293 54 l 412 54 l 412 16 z "},"G":{"ha":917,"x_min":71,"x_max":895,"o":"m 700 890 l 738 949 l 765 949 l 765 667 l 732 667 q 467 939 684 939 q 212 488 217 928 q 467 33 212 38 q 673 228 662 43 l 673 326 q 629 380 673 380 l 494 380 l 494 423 l 895 423 l 895 380 l 841 380 q 798 326 798 380 l 798 228 q 461 -5 754 22 q 71 488 98 33 q 467 982 114 922 q 700 890 608 982 z "},"H":{"ha":998,"x_min":65,"x_max":933,"o":"m 293 515 l 705 515 l 705 863 q 662 917 700 911 l 586 917 l 586 960 l 933 960 l 933 917 l 868 917 q 830 863 836 917 l 830 109 q 868 54 830 54 l 933 54 l 933 16 l 586 16 l 586 54 l 662 54 q 705 109 705 54 l 705 477 l 293 477 l 293 109 q 331 54 298 60 l 401 54 l 401 16 l 65 16 l 65 54 l 125 54 q 168 109 168 60 l 168 863 q 125 917 168 917 l 65 917 l 65 960 l 401 960 l 401 917 l 331 917 q 293 863 298 917 l 293 515 z "},"I":{"ha":456,"x_min":43,"x_max":412,"o":"m 412 54 l 412 16 l 43 16 l 43 54 l 125 54 q 168 109 168 54 l 168 863 q 125 917 168 917 l 43 917 l 43 960 l 412 960 l 412 917 l 331 917 q 293 863 298 917 l 293 109 q 331 54 293 54 l 412 54 z "},"J":{"ha":537,"x_min":16,"x_max":499,"o":"m 136 960 l 499 960 l 499 917 l 434 917 q 391 863 391 917 l 391 233 q 179 -5 385 5 q 16 136 27 5 q 92 217 22 212 q 168 136 168 212 q 141 76 168 109 q 184 43 152 43 q 266 174 260 54 l 266 863 q 222 917 266 917 l 136 917 l 136 960 z "},"K":{"ha":917,"x_min":43,"x_max":884,"o":"m 391 54 l 391 16 l 43 16 l 43 54 l 114 54 q 157 109 157 54 l 157 863 q 114 917 157 911 l 43 917 l 43 960 l 391 960 l 391 917 l 320 917 q 282 863 288 917 l 282 521 l 656 890 q 667 911 667 901 q 646 917 662 917 l 575 917 l 575 960 l 846 960 l 846 917 l 808 917 q 716 879 754 917 l 391 564 l 760 109 q 846 54 798 60 l 884 54 l 884 16 l 537 16 l 537 54 l 597 54 q 618 65 618 54 q 613 87 624 76 l 282 505 l 282 109 q 320 54 288 54 l 391 54 z "},"L":{"ha":770,"x_min":33,"x_max":732,"o":"m 732 16 l 33 16 l 33 54 l 98 54 q 141 109 141 54 l 141 863 q 98 917 141 917 l 33 917 l 33 960 l 401 960 l 401 917 l 304 917 q 266 863 271 917 l 266 109 q 304 54 271 60 l 483 54 q 694 293 667 38 l 732 293 l 732 16 z "},"M":{"ha":1069,"x_min":65,"x_max":1004,"o":"m 119 917 l 65 917 l 65 960 l 309 960 l 526 244 l 760 960 l 1004 960 l 1004 917 l 944 917 q 906 863 911 917 l 906 109 q 949 54 906 54 l 1004 54 l 1004 16 l 662 16 l 662 54 l 738 54 q 781 109 781 54 l 781 863 l 499 16 l 467 16 l 212 863 l 212 109 q 250 54 212 54 l 309 54 l 309 16 l 65 16 l 65 54 l 119 54 q 157 109 157 54 l 157 863 q 119 917 157 917 z "},"N":{"ha":917,"x_min":60,"x_max":863,"o":"m 157 109 l 157 863 q 114 917 157 917 l 60 917 l 60 960 l 304 960 l 716 277 l 716 863 q 673 917 716 917 l 608 917 l 608 960 l 863 960 l 863 917 l 808 917 q 765 863 765 917 l 765 16 l 732 16 l 206 884 l 206 109 q 250 54 206 54 l 315 54 l 315 16 l 60 16 l 60 54 l 114 54 q 157 109 157 54 z "},"O":{"ha":917,"x_min":71,"x_max":852,"o":"m 456 33 q 711 483 711 38 q 456 939 711 939 q 206 483 206 939 q 456 33 212 33 m 456 -5 q 71 488 103 27 q 456 982 109 939 q 852 488 814 939 q 456 -5 819 27 z "},"P":{"ha":770,"x_min":33,"x_max":738,"o":"m 260 917 l 260 477 l 396 477 q 597 700 608 467 q 396 917 608 928 l 260 917 m 43 917 l 43 960 l 412 960 q 738 700 722 939 q 412 434 722 456 l 260 434 l 260 109 q 304 54 260 54 l 407 54 l 407 16 l 33 16 l 33 54 l 92 54 q 136 109 136 54 l 136 863 q 92 917 136 917 l 43 917 z "},"Q":{"ha":917,"x_min":71,"x_max":852,"o":"m 456 33 q 711 483 711 38 q 456 939 711 944 q 206 483 206 939 q 456 33 201 22 m 770 -239 l 770 -277 l 727 -277 q 385 -49 369 -288 l 385 -5 q 71 488 87 76 q 456 982 109 949 q 852 488 808 939 q 526 -5 841 87 l 526 -49 q 727 -239 532 -233 l 770 -239 z "},"R":{"ha":917,"x_min":54,"x_max":879,"o":"m 282 917 l 282 543 l 401 543 q 618 727 624 537 q 401 917 629 928 l 282 917 m 401 16 l 54 16 l 54 54 l 114 54 q 157 109 157 54 l 157 863 q 114 917 157 917 l 54 917 l 54 960 l 412 960 q 760 727 749 949 q 521 521 754 570 q 727 250 732 472 q 798 65 727 60 q 879 81 830 65 l 879 33 q 781 16 836 16 q 586 244 581 5 q 401 499 586 505 l 282 499 l 282 109 q 326 54 282 54 l 401 54 l 401 16 z "},"S":{"ha":684,"x_min":49,"x_max":640,"o":"m 130 60 l 87 5 l 54 5 l 54 266 l 92 266 q 353 33 168 33 q 570 206 559 43 q 363 418 564 353 q 54 711 49 499 q 326 982 71 966 q 515 917 434 982 l 559 960 l 586 960 l 586 694 l 548 694 q 315 939 494 933 q 125 770 141 922 q 418 553 119 635 q 640 277 640 483 q 336 -5 635 0 q 130 60 222 -5 z "},"T":{"ha":770,"x_min":22,"x_max":743,"o":"m 564 16 l 206 16 l 206 54 l 277 54 q 320 109 320 54 l 320 917 l 217 917 q 60 667 87 939 l 22 667 l 22 960 l 743 960 l 743 667 l 711 667 q 548 917 684 933 l 445 917 l 445 109 q 488 54 445 54 l 564 54 l 564 16 z "},"U":{"ha":917,"x_min":60,"x_max":857,"o":"m 60 960 l 407 960 l 407 917 l 331 917 q 288 863 288 917 l 288 320 q 477 87 288 87 q 716 342 716 87 l 716 863 q 678 917 716 922 l 613 917 l 613 960 l 857 960 l 857 917 l 808 917 q 765 863 765 917 l 765 342 q 456 -5 754 11 q 163 320 168 0 l 163 863 q 125 917 163 922 l 60 917 l 60 960 z "},"V":{"ha":917,"x_min":43,"x_max":873,"o":"m 43 917 l 43 960 l 391 960 l 391 917 l 315 917 q 288 868 271 917 l 494 212 l 705 868 q 678 917 727 917 l 608 917 l 608 960 l 873 960 l 873 917 l 825 917 q 749 836 776 917 l 477 -5 l 439 -5 l 168 830 q 81 917 136 917 l 43 917 z "},"W":{"ha":1232,"x_min":38,"x_max":1194,"o":"m 591 879 l 662 678 l 738 884 q 722 917 749 917 l 613 917 q 591 879 581 917 m 71 917 l 38 917 l 38 960 l 863 960 l 863 917 l 836 917 q 787 879 803 917 l 684 608 l 825 201 l 1047 884 q 1025 917 1058 917 l 949 917 l 949 960 l 1194 960 l 1194 917 l 1156 917 q 1085 852 1107 911 l 808 -5 l 776 -5 l 618 434 l 456 -5 l 418 -5 l 136 852 q 71 917 114 911 m 412 917 l 282 917 q 260 879 244 917 l 477 195 l 597 505 l 467 868 q 412 917 450 917 z "},"X":{"ha":917,"x_min":38,"x_max":884,"o":"m 846 54 l 884 54 l 884 16 l 526 16 l 526 54 l 602 54 q 618 98 640 60 l 434 418 l 222 98 q 244 54 206 60 l 320 54 l 320 16 l 38 16 l 38 54 l 81 54 q 174 109 141 54 l 412 467 l 179 868 q 98 917 146 917 l 65 917 l 65 960 l 418 960 l 418 917 l 336 917 q 315 906 320 917 q 320 879 309 895 l 488 586 l 684 879 q 689 906 694 895 q 667 917 684 917 l 591 917 l 591 960 l 857 960 l 857 917 l 814 917 q 732 873 765 917 l 515 537 l 754 114 q 846 54 798 54 z "},"Y":{"ha":917,"x_min":38,"x_max":879,"o":"m 505 499 l 716 884 q 700 917 732 917 l 602 917 l 602 960 l 879 960 l 879 917 l 841 917 q 765 868 792 917 l 521 434 l 521 109 q 564 54 521 54 l 646 54 l 646 16 l 271 16 l 271 54 l 358 54 q 396 109 396 54 l 396 434 l 157 868 q 87 917 130 911 l 38 917 l 38 960 l 407 960 l 407 917 l 315 917 q 298 879 277 911 l 505 499 z "},"Z":{"ha":770,"x_min":49,"x_max":722,"o":"m 722 922 l 217 92 q 239 54 201 60 l 472 54 q 689 293 656 33 l 722 293 l 722 16 l 49 16 l 49 49 l 548 879 q 532 917 570 911 l 342 917 q 125 684 163 939 l 92 684 l 92 960 l 722 960 l 722 922 z "},"[":{"ha":374,"x_min":65,"x_max":353,"o":"m 353 -76 l 353 -125 l 65 -125 l 65 1096 l 353 1096 l 353 1053 l 179 1053 l 179 -76 l 353 -76 z "},"\\":{"ha":374,"x_min":0,"x_max":380,"o":"m 0 982 l 98 982 l 380 -5 l 282 -5 l 0 982 z "},"]":{"ha":374,"x_min":27,"x_max":309,"o":"m 27 -125 l 27 -76 l 195 -76 l 195 1053 l 27 1053 l 27 1096 l 309 1096 l 309 -125 l 27 -125 z "},"^":{"ha":374,"x_min":-16,"x_max":396,"o":"m 152 982 l 228 982 l 396 738 l 336 738 l 190 884 l 38 738 l -16 738 l 152 982 z "},"_":{"ha":684,"x_min":11,"x_max":678,"o":"m 678 16 l 11 16 l 11 98 l 678 98 l 678 16 z "},"`":{"ha":374,"x_min":27,"x_max":326,"o":"m 326 732 l 271 732 l 92 846 q 27 933 27 901 q 76 982 33 977 q 163 928 119 982 l 326 732 z "},"a":{"ha":608,"x_min":27,"x_max":581,"o":"m 369 168 l 369 320 q 168 141 163 260 q 250 49 168 49 q 369 168 358 60 m 548 130 l 581 130 q 467 -5 581 -5 q 374 71 401 -11 q 195 -5 320 -11 q 33 136 38 0 q 369 363 27 293 l 369 461 q 260 575 374 581 q 152 515 157 575 q 163 499 152 505 q 168 499 163 505 q 195 450 195 483 q 125 385 195 385 q 54 456 60 391 q 277 618 71 608 q 483 439 472 608 l 483 114 q 510 65 483 65 q 548 130 532 60 z "},"b":{"ha":684,"x_min":38,"x_max":640,"o":"m 228 982 l 228 537 q 374 618 293 618 q 640 304 613 591 q 374 -5 618 16 q 228 76 277 -5 l 228 0 l 38 0 l 38 43 l 114 43 l 114 928 l 38 928 l 38 971 l 71 971 q 228 982 130 971 m 222 304 q 363 33 222 33 q 505 304 505 33 q 363 575 505 570 q 222 304 222 575 z "},"c":{"ha":608,"x_min":54,"x_max":559,"o":"m 526 195 l 559 195 q 331 -5 515 -5 q 54 304 76 16 q 331 618 92 586 q 543 445 521 602 q 472 369 537 374 q 401 434 407 374 q 439 494 407 477 q 445 515 450 505 q 342 575 418 575 q 190 304 190 575 q 342 33 190 33 q 526 195 472 33 z "},"d":{"ha":684,"x_min":49,"x_max":646,"o":"m 456 304 q 320 575 456 575 q 179 304 179 581 q 320 33 179 33 q 456 304 456 33 m 570 38 l 646 38 l 646 0 l 456 0 l 456 81 q 282 -5 401 -5 q 49 304 60 5 q 298 618 71 602 q 456 521 412 618 l 456 928 l 374 928 l 374 971 l 418 971 q 570 982 499 971 l 570 38 z "},"e":{"ha":608,"x_min":49,"x_max":564,"o":"m 184 380 l 434 380 q 309 575 434 581 q 184 380 184 581 m 526 195 l 559 195 q 320 -5 515 -5 q 49 304 65 11 q 309 618 65 597 q 564 315 553 602 l 184 315 l 184 293 q 342 33 184 38 q 526 195 483 33 z "},"f":{"ha":374,"x_min":11,"x_max":450,"o":"m 222 591 l 331 591 l 331 532 l 222 532 l 222 109 q 266 54 222 54 l 331 54 l 331 16 l 11 16 l 11 54 l 71 54 q 109 109 109 54 l 109 532 l 11 532 l 11 591 l 109 591 l 109 694 q 331 982 125 960 q 450 879 445 977 q 380 808 450 814 q 315 868 320 814 q 331 911 315 895 q 336 928 342 917 q 315 939 331 939 q 222 711 222 944 l 222 591 z "},"g":{"ha":608,"x_min":27,"x_max":597,"o":"m 266 575 q 179 418 179 581 q 266 260 179 260 q 353 418 353 260 q 266 575 353 575 m 119 125 q 233 125 157 119 q 304 125 277 125 q 559 -49 548 125 q 277 -277 548 -266 q 27 -119 33 -271 q 146 16 27 -22 q 38 130 43 43 q 157 250 38 217 q 71 418 71 304 q 255 618 87 597 q 418 543 358 618 q 537 613 483 613 q 597 548 591 608 q 543 488 591 494 q 494 526 499 494 q 483 537 494 537 q 439 505 456 532 q 461 418 461 467 q 315 233 456 271 q 239 222 288 222 q 87 146 92 212 q 119 125 87 130 m 217 16 q 136 -98 141 -22 q 271 -201 141 -195 q 510 -71 499 -195 q 347 16 510 5 q 217 16 293 16 z "},"h":{"ha":684,"x_min":38,"x_max":646,"o":"m 109 109 l 109 928 l 38 928 l 38 971 l 65 971 q 222 982 146 971 l 222 461 q 412 618 298 618 q 575 429 570 613 l 575 109 q 618 54 575 54 l 646 54 l 646 16 l 396 16 l 396 54 l 423 54 q 467 109 467 54 l 467 423 q 380 537 467 537 q 222 320 255 505 l 222 109 q 266 54 222 54 l 293 54 l 293 16 l 38 16 l 38 54 l 71 54 q 109 109 109 54 z "},"i":{"ha":374,"x_min":54,"x_max":326,"o":"m 326 16 l 54 16 l 54 54 l 98 54 q 141 109 146 54 l 141 559 l 54 559 l 54 602 l 98 602 q 255 618 179 602 l 255 109 q 293 54 255 54 l 326 54 l 326 16 m 125 906 q 195 982 130 977 q 266 906 260 977 q 195 836 266 841 q 125 906 130 841 z "},"j":{"ha":374,"x_min":-33,"x_max":277,"o":"m 260 618 l 260 43 q 71 -277 250 -250 q -33 -190 -27 -271 q 22 -130 -27 -136 q 81 -184 81 -136 q 71 -217 81 -206 q 81 -239 65 -239 q 146 -54 146 -228 l 146 559 l 60 559 l 60 602 l 109 602 q 260 618 190 602 m 130 906 q 206 982 136 977 q 277 906 271 977 q 206 836 271 841 q 130 906 136 841 z "},"k":{"ha":684,"x_min":49,"x_max":640,"o":"m 298 16 l 49 16 l 49 54 l 71 54 q 114 109 114 54 l 114 928 l 49 928 l 49 971 l 71 971 q 222 982 174 971 l 222 358 l 467 559 l 380 559 l 380 602 l 613 602 l 613 559 l 537 559 l 326 385 l 543 103 q 618 54 575 60 l 640 54 l 640 16 l 380 16 l 380 54 l 401 54 q 418 87 434 60 l 222 342 l 222 109 q 266 54 222 54 l 298 54 l 298 16 z "},"l":{"ha":374,"x_min":33,"x_max":342,"o":"m 342 16 l 33 16 l 33 54 l 87 54 q 130 109 130 54 l 130 928 l 33 928 l 33 971 l 92 971 q 244 982 168 971 l 244 109 q 282 54 244 54 l 342 54 l 342 16 z "},"m":{"ha":998,"x_min":43,"x_max":949,"o":"m 928 54 l 949 54 l 949 16 l 705 16 l 705 54 l 732 54 q 776 109 776 54 l 776 439 q 705 537 776 537 q 553 315 575 521 l 553 109 q 597 54 553 54 l 618 54 l 618 16 l 374 16 l 374 54 l 401 54 q 445 109 445 54 l 445 439 q 374 537 445 537 q 222 315 244 521 l 222 109 q 266 54 222 54 l 293 54 l 293 16 l 43 16 l 43 54 l 71 54 q 109 109 109 54 l 109 559 l 43 559 l 43 602 l 65 602 q 222 618 146 602 l 222 472 q 401 618 298 618 q 548 472 532 618 q 732 618 629 618 q 884 439 884 618 l 884 109 q 928 54 884 54 z "},"n":{"ha":684,"x_min":43,"x_max":651,"o":"m 114 109 l 114 559 l 43 559 l 43 602 l 65 602 q 222 618 146 602 l 222 467 q 418 618 309 618 q 575 434 570 613 l 575 109 q 618 54 575 54 l 651 54 l 651 16 l 401 16 l 401 54 l 423 54 q 467 109 467 54 l 467 429 q 385 537 467 543 q 222 304 250 515 l 222 109 q 266 54 222 54 l 293 54 l 293 16 l 43 16 l 43 54 l 71 54 q 114 109 114 54 z "},"o":{"ha":608,"x_min":43,"x_max":564,"o":"m 304 575 q 179 304 168 586 q 304 33 174 22 q 434 304 445 16 q 304 575 439 586 m 304 618 q 564 304 532 591 q 304 -5 543 11 q 43 304 65 11 q 304 618 71 597 z "},"p":{"ha":684,"x_min":33,"x_max":640,"o":"m 217 304 q 363 33 217 33 q 505 304 510 27 q 363 575 505 575 q 217 304 217 575 m 109 -179 l 109 559 l 33 559 l 33 602 l 65 602 q 222 618 146 602 l 222 532 q 385 618 293 618 q 640 304 608 581 q 380 -5 618 16 q 222 71 277 -5 l 222 -179 q 260 -239 228 -239 l 309 -239 l 309 -277 l 33 -277 l 33 -239 l 71 -239 q 109 -179 109 -239 z "},"q":{"ha":684,"x_min":49,"x_max":646,"o":"m 461 304 q 320 575 467 575 q 179 304 179 581 q 320 33 179 27 q 461 304 467 27 m 613 -239 l 646 -239 l 646 -277 l 374 -277 l 374 -239 l 418 -239 q 456 -179 456 -239 l 456 65 q 288 -5 401 -5 q 49 304 71 11 q 288 618 76 597 q 456 537 401 618 l 456 618 q 608 602 505 602 l 646 602 l 646 559 l 570 559 l 570 -179 q 613 -239 570 -239 z "},"r":{"ha":456,"x_min":27,"x_max":461,"o":"m 228 618 l 228 477 q 385 618 298 613 q 461 543 456 613 q 391 467 456 472 q 331 515 342 467 q 326 526 331 521 q 315 515 320 521 q 228 315 239 434 l 228 109 q 271 54 228 54 l 326 54 l 326 16 l 27 16 l 27 54 l 76 54 q 119 109 119 54 l 119 559 l 27 559 l 27 602 l 71 602 q 228 618 152 602 z "},"s":{"ha":537,"x_min":65,"x_max":472,"o":"m 407 608 l 434 608 l 434 429 l 401 429 q 233 575 358 575 q 119 483 130 570 q 331 363 103 412 q 472 195 472 342 q 277 -5 467 0 q 114 54 190 -11 l 92 0 l 65 0 l 65 179 l 98 179 q 282 33 136 33 q 418 141 412 38 q 228 255 423 206 q 65 429 65 293 q 250 618 76 608 q 385 553 320 618 l 407 608 z "},"t":{"ha":374,"x_min":22,"x_max":363,"o":"m 22 532 l 22 591 l 98 591 l 98 781 l 206 781 l 206 591 l 326 591 l 326 532 l 206 532 l 206 125 q 255 65 206 65 q 326 141 293 65 l 363 125 q 217 -5 320 -5 q 98 119 103 -5 l 98 532 l 22 532 z "},"u":{"ha":684,"x_min":38,"x_max":646,"o":"m 646 38 l 646 0 l 461 0 l 461 103 q 271 -5 385 0 q 109 152 109 -5 l 109 559 l 38 559 l 38 602 l 65 602 q 222 618 146 602 l 222 157 q 298 65 222 65 q 461 228 445 81 l 461 559 l 385 559 l 385 602 l 418 602 q 570 618 505 602 l 570 38 l 646 38 z "},"v":{"ha":608,"x_min":38,"x_max":575,"o":"m 65 575 l 38 575 l 38 618 l 277 618 l 277 575 l 244 575 q 222 543 212 575 l 336 179 l 456 532 q 434 575 472 581 l 391 575 l 391 618 l 575 618 l 575 575 l 548 575 q 499 526 521 570 l 320 -5 l 282 -5 l 109 521 q 65 575 92 575 z "},"w":{"ha":841,"x_min":27,"x_max":819,"o":"m 54 575 l 27 575 l 27 618 l 282 618 l 282 575 l 250 575 q 222 537 212 575 l 315 206 l 439 618 l 472 618 l 608 201 l 700 537 q 673 575 705 575 l 618 575 l 618 618 l 819 618 l 819 575 l 792 575 q 738 526 754 575 l 591 -5 l 559 -5 l 423 423 l 293 -5 l 260 -5 l 109 521 q 54 575 92 575 z "},"x":{"ha":608,"x_min":27,"x_max":586,"o":"m 65 575 l 33 575 l 33 618 l 288 618 l 288 575 l 260 575 q 250 543 233 575 l 331 391 l 434 537 q 445 564 445 553 q 423 575 439 575 l 391 575 l 391 618 l 581 618 l 581 575 l 553 575 q 488 537 515 575 l 353 347 l 494 103 q 564 54 526 54 l 586 54 l 586 16 l 331 16 l 331 54 l 353 54 q 374 92 391 60 l 282 250 l 168 87 q 184 54 152 60 l 222 54 l 222 16 l 27 16 l 27 54 l 49 54 q 125 92 98 54 l 260 288 l 130 532 q 65 575 98 575 z "},"y":{"ha":608,"x_min":27,"x_max":581,"o":"m 581 575 l 559 575 q 494 510 521 570 l 315 -65 q 136 -277 244 -277 q 60 -201 65 -271 q 130 -125 60 -125 q 190 -168 179 -125 q 195 -174 190 -168 q 201 -179 195 -179 q 271 -54 233 -168 l 298 22 l 119 510 q 60 575 92 575 l 27 575 l 27 618 l 288 618 l 288 575 l 250 575 q 228 532 217 581 l 353 195 l 456 532 q 429 575 472 581 l 391 575 l 391 618 l 581 618 l 581 575 z "},"z":{"ha":537,"x_min":33,"x_max":472,"o":"m 109 396 l 71 396 l 71 618 l 472 618 l 472 581 l 190 92 q 206 54 174 60 l 320 54 q 439 239 412 43 l 472 239 l 472 16 l 33 16 l 33 49 l 320 537 q 304 575 336 575 l 228 575 q 109 396 136 591 z "},"{":{"ha":456,"x_min":54,"x_max":369,"o":"m 369 -92 l 369 -125 q 163 92 152 -136 l 163 320 q 54 488 168 461 q 163 656 168 515 l 163 873 q 369 1096 152 1112 l 369 1063 q 277 884 271 1080 l 277 667 q 174 488 282 532 q 277 309 282 450 l 277 87 q 369 -92 271 -109 z "},"|":{"ha":304,"x_min":103,"x_max":201,"o":"m 103 -5 l 103 982 l 201 982 l 201 -5 l 103 -5 z "},"}":{"ha":456,"x_min":81,"x_max":396,"o":"m 179 87 l 179 309 q 277 488 179 450 q 179 667 174 532 l 179 884 q 81 1063 184 1080 l 81 1096 q 288 873 304 1112 l 288 656 q 396 488 282 515 q 288 320 282 456 l 288 92 q 81 -125 298 -136 l 81 -92 q 179 87 184 -109 z "},"~":{"ha":760,"x_min":65,"x_max":689,"o":"m 640 559 l 689 488 q 515 369 613 369 q 380 418 456 369 q 228 467 293 467 q 109 369 152 467 l 65 434 q 233 559 119 564 q 423 499 304 559 q 515 467 488 467 q 640 559 591 467 z "},"·":{"ha":1389,"x_min":608,"x_max":781,"o":"m 694 570 q 781 488 770 559 q 694 401 776 407 q 608 488 613 407 q 694 570 613 564 z "},"—":{"ha":1389,"x_min":-5,"x_max":1394,"o":"m 1394 439 l -5 439 l -5 532 l 1394 532 l 1394 439 z "},"‘":{"ha":1389,"x_min":933,"x_max":1145,"o":"m 1123 1085 l 1145 1047 q 1004 890 1036 977 q 1036 901 1020 901 q 1112 814 1107 895 q 1025 722 1107 727 q 933 830 939 727 q 1123 1085 939 982 z "},"’":{"ha":1389,"x_min":239,"x_max":450,"o":"m 266 722 l 239 765 q 385 917 353 825 q 353 906 369 906 q 277 998 282 911 q 363 1085 282 1080 q 450 977 450 1085 q 266 722 445 825 z "},"“":{"ha":1389,"x_min":798,"x_max":1286,"o":"m 987 1085 l 1009 1047 q 863 890 901 977 q 873 895 868 890 q 901 901 884 901 q 977 814 971 895 q 890 722 971 727 q 798 830 803 727 q 987 1085 803 987 m 1259 1085 l 1286 1047 q 1139 890 1172 977 q 1172 901 1156 901 q 1248 814 1248 901 q 1161 722 1242 727 q 1074 830 1080 727 q 1259 1085 1080 982 z "},"”":{"ha":1389,"x_min":103,"x_max":591,"o":"m 401 722 l 380 765 q 526 917 483 825 q 515 911 521 917 q 488 906 505 906 q 412 998 418 911 q 499 1085 418 1080 q 591 977 586 1080 q 401 722 586 819 m 130 722 l 103 765 q 250 917 217 825 q 217 906 233 906 q 141 998 141 906 q 228 1085 146 1080 q 315 977 309 1080 q 130 722 309 825 z "},"…":{"ha":1389,"x_min":146,"x_max":1242,"o":"m 694 570 q 781 488 776 564 q 694 401 776 407 q 608 488 613 407 q 694 570 613 564 m 233 570 q 320 488 309 559 q 233 401 315 412 q 146 488 152 407 q 233 570 152 564 m 1156 570 q 1242 488 1237 564 q 1156 401 1237 407 q 1069 488 1074 412 q 1156 570 1080 559 z "},"、":{"ha":1389,"x_min":206,"x_max":488,"o":"m 206 184 l 217 201 q 461 87 374 146 q 488 33 488 71 q 445 -71 483 -60 q 412 -43 429 -71 q 206 184 336 60 z "},"。":{"ha":1389,"x_min":184,"x_max":510,"o":"m 347 157 q 260 71 271 152 q 347 -16 266 -11 q 434 71 429 -11 q 347 157 429 152 m 347 233 q 510 71 499 222 q 347 -92 499 -81 q 184 71 195 -81 q 347 233 201 217 z "},"《":{"ha":1389,"x_min":477,"x_max":1085,"o":"m 1085 0 l 1085 -125 l 781 488 l 1085 1096 l 1085 971 l 901 488 l 1085 0 m 776 0 l 776 -125 l 477 488 l 776 1096 l 776 971 l 597 488 l 776 0 z "},"》":{"ha":1389,"x_min":298,"x_max":911,"o":"m 298 0 l 483 488 l 298 971 l 298 1096 l 602 488 l 298 -125 l 298 0 m 608 0 l 792 488 l 608 971 l 608 1096 l 911 488 l 608 -125 l 608 0 z "},"【":{"ha":1389,"x_min":646,"x_max":1080,"o":"m 1080 -130 l 646 -130 l 646 1096 l 1080 1096 q 738 483 738 901 q 1080 -130 738 87 z "},"】":{"ha":1389,"x_min":309,"x_max":743,"o":"m 309 1096 l 743 1096 l 743 -125 l 309 -125 q 646 488 646 92 q 309 1096 646 895 z "},"丁":{"ha":1389,"x_min":87,"x_max":1308,"o":"m 1183 1074 l 1308 960 l 1302 949 l 749 949 l 749 -11 q 591 -141 754 -87 q 564 -130 570 -152 q 363 5 564 -38 l 369 33 l 559 11 q 629 76 635 -5 l 629 949 l 184 949 l 103 944 l 87 987 l 1107 987 l 1183 1074 z "},"七":{"ha":1389,"x_min":54,"x_max":1324,"o":"m 711 1025 l 662 982 l 662 581 l 1128 678 l 1177 787 l 1324 700 l 1318 684 l 662 543 l 662 60 q 722 0 656 -5 l 1053 0 q 1161 76 1150 -5 l 1204 277 l 1226 271 l 1232 81 q 1280 5 1226 22 q 1074 -103 1253 -109 l 694 -103 q 553 43 548 -109 l 553 521 l 168 439 l 87 407 l 54 450 l 553 559 l 553 1107 l 711 1042 q 722 1036 722 1036 q 711 1025 722 1031 z "},"万":{"ha":1389,"x_min":60,"x_max":1335,"o":"m 1210 1063 l 1335 949 l 1329 939 l 656 939 q 629 629 646 770 l 960 629 l 1020 711 l 1145 618 q 1145 602 1156 613 l 1090 559 q 1047 38 1085 304 q 825 -141 1053 -92 q 814 -136 814 -141 q 629 16 819 -49 l 640 38 l 825 5 q 944 76 933 -22 q 982 597 971 271 l 624 597 q 76 -163 591 87 l 60 -146 q 543 939 559 179 l 163 939 l 87 933 l 65 977 l 1139 977 l 1210 1063 z "},"丈":{"ha":1389,"x_min":60,"x_max":1335,"o":"m 700 1128 l 868 1063 q 868 1053 879 1063 l 814 1009 q 808 798 814 895 l 1096 798 l 1172 890 l 1302 776 l 1297 765 l 808 765 q 689 195 792 358 q 1335 -33 884 38 l 1329 -54 q 1183 -141 1210 -54 q 629 114 798 -38 q 71 -157 505 -43 l 60 -136 q 564 184 472 33 q 353 662 423 342 l 380 673 q 613 266 483 391 q 700 765 684 407 l 195 765 l 119 754 l 98 798 l 700 798 q 700 939 700 863 q 700 1128 700 1031 z "},"三":{"ha":1389,"x_min":54,"x_max":1335,"o":"m 1194 119 l 1335 -5 l 1329 -16 l 146 -16 l 71 -27 l 54 22 l 1112 22 l 1194 119 m 1128 1036 l 1264 917 l 1253 906 l 250 906 l 174 901 l 157 944 l 1053 944 l 1128 1036 m 1015 602 l 1145 483 l 1139 472 l 326 472 l 250 461 l 233 505 l 939 505 l 1015 602 z "},"上":{"ha":1389,"x_min":54,"x_max":1335,"o":"m 1080 743 l 1204 635 l 1199 618 l 694 618 l 694 -11 l 1128 -11 l 1204 92 l 1335 -27 l 1324 -43 l 152 -43 l 76 -49 l 54 -11 l 581 -11 l 581 1128 l 749 1053 q 749 1036 760 1053 l 694 998 l 694 656 l 1009 656 l 1080 743 z "},"下":{"ha":1389,"x_min":65,"x_max":1335,"o":"m 1204 1074 l 1335 960 l 1324 949 l 711 949 l 711 667 q 1074 515 917 608 q 1134 418 1134 477 q 1080 309 1128 326 q 1042 336 1058 309 q 711 635 928 505 l 711 391 q 711 222 711 342 q 716 -114 716 22 q 591 -152 684 -146 q 591 -109 591 -92 q 602 391 602 260 l 602 949 l 157 949 l 81 944 l 65 987 l 1128 987 l 1204 1074 z "},"且":{"ha":1389,"x_min":49,"x_max":1340,"o":"m 1199 71 l 1340 -49 l 1329 -60 l 141 -60 l 65 -71 l 49 -27 l 336 -27 l 336 1058 l 467 993 l 917 993 l 971 1074 l 1096 987 q 1096 971 1107 982 l 1047 928 l 1047 -27 l 1128 -27 l 1199 71 m 445 282 l 445 -27 l 939 -27 l 939 282 l 445 282 m 445 624 l 445 315 l 939 315 l 939 624 l 445 624 m 939 960 l 445 960 l 445 656 l 939 656 l 939 960 z "},"丘":{"ha":1389,"x_min":60,"x_max":1335,"o":"m 1118 656 l 1242 543 l 1237 532 l 895 532 l 895 -22 l 1123 -22 l 1194 76 l 1335 -43 l 1324 -54 l 146 -54 l 76 -65 l 60 -22 l 298 -22 l 298 966 l 423 901 q 917 1053 732 982 q 1025 1112 987 1080 l 1128 998 q 1118 987 1139 987 q 993 971 1063 998 q 407 863 743 906 l 407 564 l 1047 564 l 1118 656 m 407 532 l 407 -22 l 787 -22 l 787 532 l 407 532 z "},"业":{"ha":1389,"x_min":54,"x_max":1340,"o":"m 1199 54 l 1340 -65 l 1329 -76 l 141 -76 l 71 -81 l 54 -43 l 499 -43 l 499 1128 l 646 1058 q 646 1047 656 1058 l 602 1009 l 602 -43 l 781 -43 l 781 1128 l 928 1058 q 928 1047 939 1058 l 884 1009 l 884 -43 l 1128 -43 l 1199 54 m 1123 825 l 1270 743 q 1270 732 1280 732 q 1204 673 1221 716 q 911 136 1074 347 l 884 152 q 1123 825 1042 472 m 336 179 q 304 217 309 184 q 152 776 271 494 l 168 787 q 396 407 309 591 q 418 304 418 358 q 336 179 407 195 z "},"丛":{"ha":1389,"x_min":49,"x_max":1351,"o":"m 830 1128 l 977 1063 q 977 1053 987 1063 l 939 1020 q 1351 136 1020 358 l 1345 119 q 1210 71 1242 141 q 922 939 966 298 q 396 22 928 217 l 385 38 q 830 960 825 293 q 830 1069 836 998 q 830 1128 830 1107 m 353 1112 l 499 1053 q 499 1036 510 1047 l 456 1004 q 450 906 456 971 q 439 705 450 765 q 635 570 553 640 q 684 488 684 537 q 618 396 673 412 q 581 434 597 401 q 434 667 543 537 q 65 103 396 326 l 49 125 q 353 922 353 380 q 353 1112 353 1015 m 1177 49 l 1308 -65 l 1297 -76 l 157 -76 l 87 -81 l 71 -43 l 1101 -43 l 1177 49 z "},"东":{"ha":1389,"x_min":49,"x_max":1324,"o":"m 1194 977 l 1324 863 l 1318 852 l 608 852 q 418 537 543 732 q 380 477 391 494 l 689 477 l 689 754 l 836 689 q 846 684 841 689 q 836 673 841 678 l 792 640 l 792 477 l 1009 477 l 1085 570 l 1204 456 l 1199 445 l 792 445 l 792 -38 q 646 -157 792 -119 q 624 -152 624 -168 q 461 -27 624 -71 l 467 -5 l 618 -22 q 689 38 689 -33 l 689 445 l 380 445 l 326 396 l 233 472 q 233 488 228 483 l 282 515 q 488 852 374 635 l 179 852 l 103 841 l 87 884 l 510 884 q 570 998 537 944 q 624 1134 608 1074 l 760 1047 q 754 1036 770 1036 l 700 1009 q 651 933 684 987 q 624 884 635 901 l 1118 884 l 1194 977 m 456 369 l 575 271 q 575 260 586 266 q 488 217 521 250 q 60 -103 293 22 l 49 -81 q 369 239 244 81 q 456 369 423 304 m 901 336 q 1253 103 1112 233 q 1291 27 1291 71 q 1232 -76 1286 -60 q 1188 -43 1210 -76 q 890 320 1085 146 l 901 336 z "},"两":{"ha":1389,"x_min":60,"x_max":1335,"o":"m 895 814 q 895 722 895 765 l 1090 722 l 1139 798 l 1264 711 q 1264 694 1264 705 l 1210 651 l 1210 -27 q 1063 -152 1215 -103 q 1042 -141 1047 -157 q 857 -11 1047 -49 l 863 11 l 1036 -5 q 1107 54 1112 -22 l 1107 689 l 890 689 q 863 483 890 570 q 1031 342 944 434 q 1058 271 1063 309 q 987 179 1047 201 q 955 217 955 179 q 857 450 933 326 q 564 81 803 244 l 553 103 q 798 689 787 326 l 564 689 q 548 526 564 591 q 662 423 613 477 q 689 358 689 391 q 624 277 678 293 q 597 315 597 277 q 543 488 581 412 q 282 109 494 277 l 271 125 q 472 689 461 342 l 266 689 l 266 -114 q 157 -157 222 -152 q 168 434 168 98 l 168 787 l 288 722 l 472 722 q 472 836 472 770 l 472 955 l 152 955 l 76 944 l 60 987 l 1123 987 l 1199 1080 l 1335 966 l 1329 955 l 895 955 l 895 814 m 798 722 q 798 803 798 760 l 798 955 l 570 955 l 570 836 q 570 722 570 770 l 798 722 z "},"个":{"ha":1389,"x_min":49,"x_max":1356,"o":"m 49 472 q 553 971 363 678 q 646 1139 602 1042 l 781 1063 q 781 1047 792 1053 q 722 1020 749 1036 q 1356 581 971 689 l 1351 559 q 1221 477 1242 564 q 700 993 873 640 l 684 977 q 65 450 450 629 l 49 472 m 629 749 l 787 684 q 787 673 798 678 l 738 629 l 738 369 q 743 -109 738 130 q 618 -152 716 -146 q 618 -54 618 -119 q 629 369 629 157 l 629 749 z "},"中":{"ha":1389,"x_min":168,"x_max":1275,"o":"m 640 1134 l 798 1063 q 798 1053 808 1063 l 743 1015 l 743 798 l 1090 798 l 1145 873 l 1264 792 q 1264 781 1275 787 l 1210 732 l 1210 662 q 1221 320 1210 467 q 1107 277 1166 282 l 1107 380 l 743 380 q 743 212 743 331 q 749 -114 749 11 q 629 -157 711 -152 q 640 380 640 60 l 282 380 l 282 293 q 168 255 239 255 q 174 342 168 288 q 179 754 179 575 l 179 863 l 298 798 l 640 798 l 640 1134 m 1107 765 l 743 765 l 743 412 l 1107 412 l 1107 765 m 282 765 l 282 412 l 640 412 l 640 765 l 282 765 z "},"丰":{"ha":1389,"x_min":49,"x_max":1335,"o":"m 1042 667 l 1172 553 l 1166 543 l 743 543 l 743 363 l 743 255 l 1118 255 l 1199 353 l 1335 233 l 1329 222 l 743 222 q 743 87 743 179 q 749 -119 749 -43 q 624 -157 700 -152 q 629 33 624 -92 q 635 222 629 163 l 146 222 l 71 212 l 49 255 l 635 255 l 635 358 l 635 543 l 315 543 l 239 532 l 217 575 l 635 575 l 635 841 l 228 841 l 152 830 l 136 873 l 635 873 l 635 1128 l 798 1058 q 798 1047 808 1047 l 743 1004 l 743 873 l 1042 873 l 1118 966 l 1253 852 l 1242 841 l 743 841 l 743 575 l 971 575 l 1042 667 z "},"临":{"ha":1389,"x_min":125,"x_max":1313,"o":"m 1248 -98 q 1145 -136 1210 -130 l 1145 -11 l 694 -11 l 694 -109 q 591 -146 646 -146 q 597 336 597 -11 l 597 515 l 711 461 l 1128 461 l 1183 537 l 1291 456 q 1291 439 1302 450 l 1242 396 l 1242 304 q 1248 71 1242 239 q 1248 -98 1248 -60 m 363 1128 l 505 1058 q 505 1047 515 1058 l 456 1009 l 456 -119 q 358 -152 429 -146 q 358 157 358 -65 q 363 521 363 412 l 363 1128 m 1188 949 l 1313 841 l 1302 830 l 754 830 q 499 526 662 667 l 483 543 q 727 993 646 770 q 770 1128 754 1063 l 901 1063 q 911 1058 911 1058 q 901 1047 911 1053 q 841 998 863 1036 q 770 863 808 928 l 1118 863 l 1188 949 m 130 928 l 266 863 q 266 852 277 863 l 222 819 l 222 125 q 125 87 184 87 q 130 233 130 146 q 130 505 130 304 l 130 928 m 1145 429 l 966 429 l 966 27 l 1145 27 l 1145 429 m 694 429 l 694 27 l 873 27 l 873 429 l 694 429 m 830 798 q 998 678 933 738 q 1031 608 1031 646 q 960 521 1015 537 q 933 553 933 526 q 819 787 901 673 l 830 798 z "},"丹":{"ha":1389,"x_min":49,"x_max":1335,"o":"m 1204 586 l 1335 472 l 1324 456 l 1069 456 l 1069 11 q 901 -152 1080 -109 q 884 -141 884 -157 q 716 0 884 -49 l 722 22 l 895 0 q 966 65 971 -22 l 966 456 l 434 456 q 65 -152 418 49 l 49 -136 q 331 456 320 81 l 146 456 l 71 450 l 54 488 l 331 488 q 331 553 331 510 q 336 629 336 602 l 336 1063 l 461 998 l 944 998 l 998 1080 l 1123 998 q 1123 982 1134 993 l 1069 939 l 1069 488 l 1134 488 l 1204 586 m 966 966 l 439 966 l 439 629 q 434 553 439 602 q 434 488 434 510 l 966 488 l 966 966 m 608 873 q 754 738 705 803 q 787 662 787 705 q 705 575 770 591 q 667 613 678 575 q 597 863 656 749 l 608 873 z "},"为":{"ha":1389,"x_min":49,"x_max":1308,"o":"m 130 667 l 114 711 l 646 711 q 673 944 662 814 q 678 1134 678 1031 l 841 1069 q 841 1058 852 1063 l 787 1015 q 749 711 770 841 l 1118 711 l 1177 787 l 1297 694 q 1297 678 1308 689 l 1242 640 q 1172 92 1210 331 q 939 -157 1161 -109 q 917 -146 917 -163 q 722 5 928 -54 l 727 27 l 928 -5 q 1063 109 1042 -33 q 1139 678 1123 477 l 743 678 q 705 499 727 581 q 901 391 836 445 q 966 298 960 353 q 901 195 955 212 q 863 233 879 195 q 700 467 808 353 q 60 -152 597 60 l 49 -136 q 640 678 570 146 l 212 678 l 130 667 m 282 1031 l 293 1047 q 467 933 401 993 q 515 852 515 895 q 445 754 505 776 q 412 787 423 754 q 282 1031 374 911 z "},"主":{"ha":1389,"x_min":76,"x_max":1313,"o":"m 1047 526 l 1177 412 l 1172 396 l 749 396 l 749 -16 l 1090 -16 l 1172 87 l 1313 -38 l 1302 -49 l 168 -49 l 92 -54 l 76 -16 l 635 -16 l 635 396 l 326 396 l 250 391 l 228 429 l 635 429 l 635 803 l 250 803 l 174 792 l 157 836 l 1042 836 l 1118 928 l 1253 814 l 1248 803 l 749 803 l 749 429 l 971 429 l 1047 526 m 537 1139 q 738 1025 656 1090 q 776 955 776 993 q 700 852 765 873 q 662 890 678 852 q 526 1128 640 993 l 537 1139 z "},"丽":{"ha":1389,"x_min":54,"x_max":1329,"o":"m 1215 -22 q 1085 -136 1221 -98 q 1074 -141 1074 -141 q 1069 -130 1069 -136 q 917 -16 1063 -54 l 922 5 l 1063 -11 q 1118 49 1123 -27 l 1118 738 l 841 738 l 841 -98 q 743 -141 803 -141 q 743 0 743 -98 q 749 277 749 157 l 749 825 l 857 770 l 1096 770 l 1150 841 l 1259 765 q 1259 749 1270 760 l 1215 711 l 1215 -22 m 608 -11 q 494 -130 613 -87 q 472 -119 472 -136 q 336 -5 472 -38 l 342 16 l 467 0 q 515 54 521 -16 l 515 732 l 266 732 l 266 -98 q 163 -141 222 -141 q 174 298 174 60 l 174 819 l 282 765 l 494 765 l 548 836 l 656 760 q 656 749 667 754 l 608 711 l 608 -11 m 1210 1085 l 1329 977 l 1324 966 l 152 966 l 76 955 l 54 998 l 1134 998 l 1210 1085 m 331 575 q 445 407 418 467 q 467 336 467 374 q 391 239 456 255 q 363 293 363 239 q 315 564 358 423 l 331 575 m 917 570 q 1031 401 1004 461 q 1053 331 1053 369 q 977 233 1042 250 q 949 288 949 233 q 901 559 944 450 l 917 570 z "},"乃":{"ha":1389,"x_min":54,"x_max":1313,"o":"m 933 575 l 884 526 l 787 597 q 787 613 781 608 l 830 651 l 939 955 l 570 955 q 461 217 559 423 q 65 -157 374 5 l 54 -141 q 369 266 298 54 q 461 955 456 483 l 277 955 l 206 944 l 190 987 l 922 987 l 982 1053 l 1090 966 q 1090 955 1101 955 l 1036 917 l 922 613 l 1123 613 l 1183 684 l 1302 602 q 1302 586 1313 597 l 1248 548 q 1183 60 1232 363 q 955 -141 1177 -92 q 944 -136 944 -141 q 754 16 949 -43 l 760 38 l 944 11 q 1074 98 1063 -5 q 1139 575 1123 347 l 933 575 z "},"久":{"ha":1389,"x_min":54,"x_max":1340,"o":"m 499 1128 l 646 1058 q 640 1036 662 1047 q 570 955 597 1020 q 548 911 564 939 q 510 836 543 890 l 754 836 l 814 911 l 928 819 q 928 798 944 803 l 873 765 q 803 581 841 667 q 1340 -54 939 125 l 1335 -76 q 1183 -136 1210 -60 q 781 526 863 76 q 71 -157 559 49 l 54 -136 q 765 803 575 146 l 494 803 q 174 353 358 553 l 152 369 q 450 949 336 646 q 499 1128 477 1031 z "},"义":{"ha":1389,"x_min":60,"x_max":1345,"o":"m 1183 -146 q 689 157 857 -5 q 71 -152 472 -43 l 60 -136 q 624 228 445 38 q 331 955 418 467 l 363 966 q 694 309 477 532 q 949 830 852 505 q 977 933 960 863 q 993 1015 987 987 l 1134 939 q 1145 928 1145 933 q 1134 917 1145 922 q 1069 846 1085 901 q 770 239 955 445 q 1345 -49 977 65 l 1340 -71 q 1183 -146 1210 -65 m 505 1101 q 738 955 651 1036 q 781 873 781 928 q 716 770 770 787 q 678 808 694 770 q 494 1085 618 966 l 505 1101 z "},"乌":{"ha":1389,"x_min":76,"x_max":1318,"o":"m 445 374 l 385 315 l 288 385 q 288 401 282 396 l 331 439 l 331 993 l 467 922 l 515 922 q 591 1145 564 1042 l 722 1069 q 722 1058 732 1058 q 656 1015 684 1047 q 618 971 646 1004 q 575 922 591 939 l 928 922 l 977 993 l 1096 911 q 1096 895 1107 906 l 1047 863 q 1036 732 1047 825 q 1031 667 1031 689 q 846 477 1025 526 q 825 488 830 477 q 673 608 830 575 l 678 629 l 836 618 q 928 689 922 602 q 944 890 944 798 l 434 890 l 434 412 l 1128 412 l 1188 483 l 1308 396 q 1308 380 1318 391 l 1253 342 q 1237 141 1253 293 q 1232 81 1232 103 q 1025 -152 1232 -114 q 1004 -141 1009 -157 q 830 -5 1009 -60 l 836 16 l 1015 -5 q 1123 98 1118 -33 q 1150 358 1139 184 q 1150 374 1150 369 l 445 374 m 944 288 l 1063 179 l 1058 163 l 163 163 l 92 152 l 76 195 l 873 195 l 944 288 z "},"乐":{"ha":1389,"x_min":43,"x_max":1297,"o":"m 1069 1090 l 1161 971 q 1150 960 1166 960 q 1020 960 1096 977 q 418 906 743 922 q 363 694 401 836 q 309 505 326 559 l 678 505 l 678 852 l 830 787 q 830 776 846 787 l 787 738 l 787 505 l 1090 505 l 1172 602 l 1297 488 l 1291 472 l 787 472 l 787 -33 q 635 -152 787 -109 q 613 -141 613 -157 q 439 -16 608 -54 l 445 5 l 608 -11 q 678 49 684 -22 l 678 472 l 315 472 l 266 418 l 174 483 q 174 499 168 494 l 212 532 q 298 868 250 651 q 326 1015 320 977 l 439 944 q 955 1047 776 987 q 1069 1090 1036 1069 m 456 396 l 575 298 q 570 288 581 288 q 499 255 526 288 q 54 -81 320 60 l 43 -60 q 456 396 320 168 m 884 374 q 1253 125 1128 244 q 1291 38 1291 92 q 1226 -65 1280 -49 q 1183 -27 1204 -65 q 873 358 1069 190 l 884 374 z "},"九":{"ha":1389,"x_min":54,"x_max":1340,"o":"m 499 1128 l 656 1063 q 656 1053 667 1058 l 608 1009 q 602 792 608 911 l 830 792 l 884 873 l 1009 787 q 1009 776 1020 781 l 955 732 l 944 81 q 1031 5 933 0 l 1139 5 q 1226 98 1210 0 l 1264 293 l 1286 288 l 1291 81 q 1340 11 1297 27 q 1166 -98 1302 -98 l 982 -98 q 841 43 841 -103 l 846 760 l 602 760 q 602 738 602 743 q 65 -152 608 71 l 54 -136 q 494 760 499 130 l 233 760 l 163 749 l 146 792 l 494 792 q 494 798 494 792 q 499 814 499 808 q 499 1128 510 966 z "},"习":{"ha":1389,"x_min":141,"x_max":1248,"o":"m 412 846 q 651 689 559 770 q 689 602 689 656 q 613 494 678 515 q 575 537 591 494 q 401 836 532 700 l 412 846 m 222 98 l 141 212 q 1004 515 353 266 l 1020 494 q 684 331 922 445 q 342 168 445 217 q 239 98 271 136 q 222 98 233 92 m 1080 955 l 315 955 l 233 949 l 217 993 l 1058 993 l 1112 1069 l 1237 987 q 1237 971 1248 977 l 1183 928 q 1139 157 1161 423 q 863 -141 1139 -98 q 852 -130 852 -141 q 651 22 857 -43 l 656 38 l 841 11 q 1031 163 1020 -33 q 1080 955 1053 391 z "},"乡":{"ha":1389,"x_min":130,"x_max":1215,"o":"m 1069 564 l 1204 467 q 1194 450 1215 461 q 1112 391 1145 445 q 136 -146 836 -103 l 130 -125 q 939 326 722 -5 q 472 260 678 293 q 358 228 385 239 q 347 228 353 222 l 298 331 q 439 391 353 331 q 770 651 624 521 q 450 608 608 635 q 353 575 396 602 q 342 581 342 575 l 288 689 q 407 749 358 700 q 651 1020 537 868 q 722 1123 689 1074 l 841 1031 q 841 1020 852 1025 q 760 987 792 1020 q 412 684 553 787 q 819 694 515 684 q 852 727 830 705 q 917 792 901 770 q 1015 906 982 857 l 1128 798 q 1134 787 1134 792 q 1123 781 1134 781 q 1036 749 1085 792 q 445 331 694 467 q 960 363 711 353 q 1009 439 987 396 q 1069 564 1036 483 z "},"乳":{"ha":1389,"x_min":49,"x_max":1340,"o":"m 1047 1047 l 998 1009 l 998 49 q 1053 -11 998 -11 l 1123 -11 q 1226 60 1215 -16 l 1270 250 l 1286 244 l 1291 71 q 1340 0 1291 16 q 1139 -109 1308 -114 l 1025 -109 q 895 33 890 -114 l 895 1134 l 1047 1063 q 1047 1047 1058 1058 m 635 586 l 217 586 l 146 575 l 130 618 l 629 618 l 705 678 l 803 570 q 798 553 814 564 l 738 548 l 532 423 l 559 412 q 564 401 570 412 l 526 374 l 526 304 q 798 342 618 315 q 841 347 825 347 l 846 320 q 618 271 765 304 q 526 250 553 255 l 526 -43 q 391 -152 526 -114 q 369 -146 369 -163 q 217 -27 363 -65 l 222 -5 l 369 -22 q 423 33 429 -33 l 423 222 q 331 201 391 217 q 239 179 266 184 q 119 125 146 157 q 114 125 119 125 q 98 136 103 119 l 49 250 q 347 277 125 255 q 423 288 396 282 l 423 477 l 499 439 l 635 586 m 722 1112 l 798 1015 q 792 1004 803 1004 q 700 998 749 1015 q 92 928 396 944 l 87 949 q 613 1074 456 1020 q 684 1096 635 1080 q 722 1112 711 1107 m 689 955 l 803 873 q 803 857 814 863 q 743 825 760 852 q 564 656 640 705 l 553 667 q 689 955 651 830 m 152 890 q 293 781 250 836 q 309 732 309 760 q 239 651 293 667 q 206 689 217 651 q 141 879 201 787 l 152 890 m 380 928 q 505 808 461 868 q 515 765 521 792 q 445 689 499 705 q 418 727 423 689 q 363 917 407 830 l 380 928 z "},"乾":{"ha":1389,"x_min":54,"x_max":1340,"o":"m 646 260 l 754 152 l 749 141 l 439 141 q 445 5 439 98 q 445 -119 445 -81 q 336 -157 407 -157 q 342 141 342 -71 l 130 141 l 71 136 l 54 174 l 342 174 l 342 244 l 342 358 l 239 358 l 239 304 q 141 271 201 271 q 146 597 146 369 l 146 792 l 255 738 l 347 738 l 347 884 l 141 884 l 76 879 l 54 917 l 347 917 l 347 1134 l 477 1074 q 477 1063 488 1074 l 439 1036 l 439 917 l 581 917 l 646 998 l 754 895 l 743 884 l 439 884 l 439 738 l 532 738 l 575 803 l 678 732 q 678 716 689 727 l 640 678 l 640 570 q 646 331 640 418 q 548 298 608 309 l 548 358 l 439 358 l 439 244 l 439 174 l 581 174 l 646 260 m 1074 651 l 1183 543 q 1177 532 1194 532 l 1118 510 q 879 130 944 260 q 852 22 852 60 q 993 -22 852 -22 l 1123 -22 q 1221 54 1204 -22 l 1259 250 l 1286 244 l 1291 60 q 1340 -11 1291 5 q 1161 -109 1313 -114 l 944 -109 q 754 5 760 -103 q 787 152 754 71 q 1015 548 852 282 l 825 548 l 760 543 l 743 586 l 1009 586 l 1074 651 m 1194 917 l 1318 814 l 1308 798 l 863 798 q 667 494 776 618 l 651 510 q 830 982 770 749 q 863 1128 857 1069 l 1004 1063 q 1015 1058 1009 1063 q 1004 1047 1009 1053 q 939 977 960 1036 q 911 906 928 955 q 879 830 890 857 l 1128 830 l 1194 917 m 239 532 l 239 391 l 548 391 l 548 532 l 239 532 m 548 705 l 239 705 l 239 564 l 548 564 l 548 705 z "},"二":{"ha":1389,"x_min":54,"x_max":1335,"o":"m 1199 190 l 1335 65 l 1324 49 l 146 49 l 71 43 l 54 87 l 1118 87 l 1199 190 m 1063 977 l 1194 857 l 1183 846 l 266 846 l 190 836 l 174 884 l 987 884 l 1063 977 z "},"于":{"ha":1389,"x_min":71,"x_max":1329,"o":"m 1101 1069 l 1226 966 l 1215 955 l 749 955 l 749 570 l 1118 570 l 1194 667 l 1329 548 l 1318 537 l 749 537 l 749 -22 q 602 -152 760 -98 q 575 -141 581 -157 q 396 -11 575 -49 l 401 16 l 570 -5 q 640 65 651 -22 l 640 537 l 163 537 l 87 526 l 71 570 l 640 570 l 640 955 l 260 955 l 184 944 l 168 987 l 1025 987 l 1101 1069 z "},"云":{"ha":1389,"x_min":81,"x_max":1313,"o":"m 836 391 q 1166 87 1063 228 q 1194 5 1199 49 q 1112 -103 1183 -81 q 1074 -65 1085 -103 q 1031 49 1058 -11 q 358 -43 651 5 q 255 -76 315 -54 q 244 -81 244 -81 q 228 -76 239 -92 l 184 49 q 309 119 244 49 q 526 429 391 206 q 602 570 570 505 l 174 570 l 98 559 l 81 602 l 1101 602 l 1177 700 l 1313 581 l 1308 570 l 646 570 l 749 494 q 743 483 760 488 q 667 429 694 472 q 326 43 494 195 q 1015 92 488 49 q 819 380 949 228 l 836 391 m 1031 1069 l 1161 966 l 1150 949 l 320 949 l 244 944 l 228 987 l 960 987 l 1031 1069 z "},"互":{"ha":1389,"x_min":60,"x_max":1340,"o":"m 1145 1080 l 1280 966 l 1275 955 l 570 955 l 526 694 l 873 694 l 928 770 l 1047 689 q 1047 673 1058 684 l 993 629 l 911 -11 l 1123 -11 l 1199 87 l 1340 -27 l 1329 -43 l 141 -43 l 76 -49 l 60 -11 l 803 -11 l 841 298 l 472 298 l 418 244 l 320 309 q 320 326 315 320 l 358 363 l 461 955 l 201 955 l 125 944 l 109 987 l 1069 987 l 1145 1080 m 890 662 l 515 662 l 461 331 l 846 331 l 890 662 z "},"五":{"ha":1389,"x_min":60,"x_max":1340,"o":"m 1123 1069 l 1259 955 l 1253 944 l 678 944 l 624 591 l 884 591 l 939 667 l 1063 586 q 1063 570 1074 581 l 1015 526 l 1015 -16 l 1123 -16 l 1199 81 l 1340 -38 l 1329 -49 l 141 -49 l 76 -60 l 60 -16 l 429 -16 l 515 559 l 304 559 l 244 548 l 228 591 l 515 591 l 570 944 l 212 944 l 136 939 l 119 977 l 1047 977 l 1123 1069 m 906 559 l 624 559 l 537 -16 l 906 -16 l 906 559 z "},"井":{"ha":1389,"x_min":54,"x_max":1340,"o":"m 1150 884 l 1264 781 l 1259 765 l 955 765 l 955 488 l 955 418 l 1139 418 l 1210 510 l 1340 396 l 1335 385 l 955 385 q 955 141 955 298 q 960 -114 960 -22 q 841 -152 928 -146 q 841 -119 841 -103 q 852 385 852 174 l 543 385 q 65 -152 526 5 l 54 -136 q 439 385 412 65 l 157 385 l 81 380 l 65 418 l 445 418 q 456 656 456 521 l 456 765 l 228 765 l 152 760 l 136 798 l 456 798 l 456 1123 l 602 1053 q 602 1042 613 1053 l 559 1004 l 559 798 l 852 798 l 852 1128 l 1004 1053 q 1004 1042 1015 1053 l 955 1009 l 955 798 l 1085 798 l 1150 884 m 559 684 q 548 418 559 532 l 852 418 l 852 499 l 852 765 l 559 765 l 559 684 z "},"亚":{"ha":1389,"x_min":54,"x_max":1335,"o":"m 1199 65 l 1335 -54 l 1329 -65 l 146 -65 l 76 -76 l 54 -33 l 499 -33 l 499 939 l 222 939 l 146 933 l 130 971 l 1063 971 l 1139 1063 l 1264 955 l 1259 939 l 879 939 l 879 222 q 1080 776 1031 537 l 1221 694 q 1215 678 1232 689 q 1150 624 1177 667 q 879 141 1025 336 l 879 -33 l 1123 -33 l 1199 65 m 608 939 l 608 -33 l 776 -33 l 776 939 l 608 939 m 342 195 q 309 239 320 195 q 168 749 288 488 l 184 760 q 401 418 326 591 q 423 315 423 369 q 342 195 412 212 z "},"交":{"ha":1389,"x_min":38,"x_max":1340,"o":"m 467 570 q 673 244 553 363 q 798 477 743 342 q 808 505 803 488 q 841 618 825 548 l 982 537 q 993 532 993 532 q 982 521 993 526 q 911 461 933 515 q 749 174 836 271 q 1340 -27 917 43 l 1340 -49 q 1188 -141 1215 -49 q 684 103 846 -49 q 43 -157 499 -81 l 38 -136 q 618 179 467 0 q 439 559 510 315 l 467 570 m 1183 993 l 1318 879 l 1313 863 l 157 863 l 87 857 l 71 901 l 684 901 q 673 917 673 906 q 667 922 673 911 q 564 1118 646 1015 l 570 1128 q 738 1047 673 1096 q 770 987 770 1020 q 716 901 765 928 l 1112 901 l 1183 993 m 467 825 l 586 732 q 586 722 591 727 q 575 716 586 716 q 570 716 575 716 q 499 684 526 705 q 81 412 315 515 l 71 429 q 467 825 304 608 m 814 798 q 1188 656 1069 732 q 1248 581 1242 629 q 1194 488 1237 505 q 1156 510 1177 488 q 803 781 1015 667 l 814 798 z "},"亨":{"ha":1389,"x_min":92,"x_max":1308,"o":"m 320 667 l 320 846 l 439 787 l 939 787 l 987 852 l 1096 781 q 1096 765 1107 776 l 1058 732 l 1058 689 q 1058 521 1058 608 q 955 488 1025 499 l 955 548 l 418 548 l 418 505 q 315 472 374 472 q 320 667 320 532 m 754 -33 q 608 -152 754 -109 q 586 -146 586 -163 q 407 -22 581 -54 l 412 5 l 581 -16 q 646 43 651 -27 l 646 293 l 738 250 l 998 391 l 260 391 l 195 380 l 179 423 l 998 423 l 1085 477 l 1188 358 q 1188 342 1199 353 l 1112 342 l 754 217 l 754 -33 m 955 754 l 418 754 l 418 581 l 955 581 l 955 754 m 1177 1025 l 1308 911 l 1302 901 l 184 901 l 109 890 l 92 933 l 678 933 q 656 966 662 944 q 570 1128 640 1047 l 586 1139 q 727 1069 667 1107 q 765 1015 765 1042 q 705 933 760 960 l 1096 933 l 1177 1025 z "},"京":{"ha":1389,"x_min":49,"x_max":1324,"o":"m 591 -11 q 651 49 656 -27 l 651 391 l 423 391 l 423 358 q 320 326 380 326 q 320 450 320 353 q 326 581 326 548 l 326 787 l 445 722 l 949 722 l 993 792 l 1107 716 q 1107 705 1118 711 l 1069 667 l 1069 602 q 1069 363 1069 488 q 966 331 1047 342 l 966 391 l 754 391 l 754 -33 q 618 -152 754 -114 q 597 -146 597 -163 q 418 -16 591 -54 l 423 5 l 591 -11 m 966 689 l 423 689 l 423 429 l 966 429 l 966 689 m 597 1134 q 743 1063 689 1101 q 781 1004 781 1036 q 716 922 776 944 l 1128 922 l 1194 1009 l 1324 901 l 1318 890 l 168 890 l 98 879 l 81 922 l 694 922 q 673 955 684 922 q 586 1123 651 1047 l 597 1134 m 412 298 l 532 195 q 526 184 537 190 q 434 141 477 179 q 65 -109 271 -5 l 49 -87 q 342 190 206 33 q 363 217 347 201 q 412 298 401 277 m 884 266 q 1199 109 1101 184 q 1248 33 1242 81 q 1188 -71 1242 -49 q 1150 -43 1172 -76 q 873 250 1058 119 l 884 266 z "},"亭":{"ha":1389,"x_min":49,"x_max":1340,"o":"m 1020 564 q 922 532 998 543 l 922 586 l 445 586 l 445 559 q 342 526 412 526 q 347 716 347 618 l 347 868 l 467 814 l 906 814 l 955 879 l 1063 808 q 1063 792 1074 803 l 1020 760 l 1020 732 q 1020 564 1020 651 m 749 -38 q 602 -157 749 -114 q 581 -146 586 -168 q 401 -27 575 -60 l 407 0 l 575 -22 q 640 38 640 -33 l 640 244 l 326 244 l 250 239 l 233 277 l 949 277 l 1015 358 l 1128 255 l 1123 244 l 749 244 l 749 -38 m 922 781 l 445 781 l 445 618 l 922 618 l 922 781 m 212 380 q 109 271 184 282 q 49 320 54 271 q 71 353 49 336 q 179 548 163 418 l 195 548 q 212 461 212 505 l 1156 461 l 1221 526 l 1329 423 q 1324 407 1340 418 l 1264 396 l 1118 293 l 1101 309 l 1166 429 l 212 429 q 212 380 212 407 m 591 1145 q 716 1090 673 1123 q 760 1031 760 1063 q 727 966 760 998 l 1058 966 l 1128 1058 l 1259 944 l 1253 933 l 190 933 l 114 922 l 92 966 l 667 966 q 662 982 662 977 q 581 1134 635 1069 l 591 1145 z "},"亳":{"ha":1389,"x_min":65,"x_max":1335,"o":"m 949 439 l 1020 347 q 1015 336 1031 331 q 911 331 960 342 q 678 298 792 315 l 678 168 l 1031 201 l 1085 293 l 1210 201 l 1204 184 l 678 136 l 678 71 q 770 -22 667 -33 l 1112 -22 q 1226 54 1215 -27 l 1259 217 l 1280 212 l 1286 60 q 1335 -16 1280 0 q 1172 -109 1302 -114 l 722 -109 q 575 22 570 -114 l 575 125 l 163 87 l 92 71 l 65 109 l 575 157 l 575 288 q 233 266 450 277 l 228 288 q 830 401 586 342 q 922 429 868 407 q 949 439 939 434 m 1036 608 q 933 570 1009 581 l 933 640 l 456 640 l 456 597 q 358 564 423 564 q 358 754 358 656 l 358 879 l 467 830 l 911 830 l 960 895 l 1074 825 q 1074 814 1085 825 l 1031 776 l 1031 738 q 1036 608 1031 646 m 1172 494 l 217 494 q 222 472 217 483 q 222 456 222 461 q 119 326 212 342 q 71 369 76 331 q 87 401 71 385 q 184 591 179 467 l 201 591 q 217 521 212 553 l 1166 521 l 1226 581 l 1335 472 q 1324 461 1335 461 l 1264 450 l 1112 358 l 1096 374 l 1172 494 m 933 803 l 456 803 l 456 673 l 933 673 l 933 803 m 591 1139 q 738 1074 694 1107 q 760 1031 760 1063 q 700 955 749 982 l 1107 955 l 1172 1036 l 1291 939 l 1286 922 l 212 922 l 141 917 l 125 955 l 689 955 q 662 987 673 955 q 586 1128 635 1069 l 591 1139 z "},"什":{"ha":1389,"x_min":43,"x_max":1340,"o":"m 1221 705 l 1340 597 l 1329 586 l 922 586 l 922 363 q 928 -119 922 125 q 803 -157 884 -152 q 814 81 808 -43 q 814 363 814 190 l 814 586 l 532 586 l 450 575 l 434 618 l 814 618 l 814 1128 l 971 1063 q 971 1047 982 1058 l 922 1009 l 922 618 l 1150 618 l 1221 705 m 401 1128 l 548 1053 q 543 1036 559 1036 q 467 960 494 1025 q 353 749 412 846 l 439 711 q 439 700 450 711 l 391 662 l 391 434 q 391 244 391 391 q 396 -119 396 0 q 282 -157 363 -152 q 293 434 293 38 l 293 651 q 65 369 190 499 l 43 380 q 347 966 233 667 q 401 1128 385 1047 z "},"仁":{"ha":1389,"x_min":43,"x_max":1335,"o":"m 385 1134 l 532 1058 q 543 1053 543 1053 q 532 1042 543 1047 q 439 944 483 1036 q 342 760 391 846 l 418 727 q 418 716 429 716 l 369 678 l 369 -119 q 266 -157 336 -152 q 271 434 271 38 l 271 646 q 65 380 212 543 l 43 391 q 336 966 244 711 q 385 1134 369 1053 m 1194 168 l 1335 38 l 1324 27 l 537 27 l 461 16 l 445 65 l 1112 65 l 1194 168 m 1118 971 l 1248 852 l 1237 841 l 624 841 l 548 836 l 532 879 l 1047 879 l 1118 971 z "},"仆":{"ha":1389,"x_min":43,"x_max":1308,"o":"m 792 1134 l 955 1063 q 955 1053 966 1058 l 901 1009 l 901 727 q 1259 510 1118 624 q 1302 423 1308 472 q 1242 320 1291 336 q 1204 353 1226 320 q 901 689 1107 532 l 901 391 q 906 -114 901 125 q 787 -152 863 -146 q 792 391 792 65 l 792 1134 m 401 1128 l 543 1047 q 553 1042 553 1042 q 543 1031 553 1036 q 467 955 488 1031 q 429 890 456 933 q 358 754 412 852 l 450 716 q 450 700 461 711 l 401 662 l 401 434 q 407 -119 401 92 q 293 -157 374 -152 q 304 434 304 217 l 304 662 q 65 369 195 499 l 43 380 q 347 966 233 667 q 401 1128 385 1047 z "},"介":{"ha":1389,"x_min":49,"x_max":1345,"o":"m 49 450 q 559 960 374 678 q 640 1101 591 1004 q 651 1128 646 1118 l 787 1053 q 787 1036 798 1047 q 738 1015 754 1031 q 1345 591 971 684 l 1340 564 q 1199 488 1232 570 q 711 993 879 640 q 700 977 711 987 q 689 960 694 966 q 60 429 477 618 l 49 450 m 814 640 l 966 564 q 966 553 977 564 l 917 521 l 917 358 q 928 -81 917 141 q 928 -114 928 -103 q 808 -152 890 -146 q 814 369 814 0 l 814 640 m 445 640 l 597 564 q 602 559 597 564 q 602 553 608 559 l 553 515 l 553 450 q 467 49 559 157 q 114 -152 391 -65 l 103 -136 q 374 81 309 -27 q 445 423 445 195 l 445 640 z "},"从":{"ha":1389,"x_min":49,"x_max":1351,"o":"m 819 1134 l 982 1074 q 982 1058 993 1069 l 928 1015 q 928 857 928 949 q 1351 -54 1004 125 l 1345 -76 q 1199 -125 1242 -54 q 917 684 939 109 q 363 -152 917 33 l 353 -136 q 819 743 819 109 q 819 1134 830 966 m 342 1118 l 494 1053 q 494 1042 510 1053 l 445 998 q 429 575 445 749 q 635 418 543 505 q 678 326 678 374 q 608 228 667 250 q 570 260 586 228 q 423 537 532 407 q 65 -114 380 146 l 49 -98 q 342 928 353 239 q 342 1118 342 1020 z "},"仑":{"ha":1389,"x_min":49,"x_max":1345,"o":"m 548 521 l 499 483 l 499 266 q 977 526 857 418 l 1074 407 q 1080 396 1080 401 q 1063 391 1074 391 q 933 369 1009 401 q 499 222 694 277 l 499 60 q 575 -11 494 -16 l 993 -11 q 1096 60 1085 -16 l 1139 212 l 1161 212 l 1161 71 q 1210 0 1161 16 q 1015 -109 1172 -114 l 548 -109 q 385 43 380 -114 l 385 608 l 543 532 q 548 521 559 532 m 49 450 q 559 966 374 678 q 640 1107 591 1009 q 651 1128 646 1123 l 792 1053 q 787 1042 798 1047 q 738 1020 754 1036 q 1345 586 982 678 l 1345 564 q 1204 483 1232 564 q 711 993 868 651 q 689 966 700 982 q 60 429 477 629 l 49 450 z "},"仓":{"ha":1389,"x_min":49,"x_max":1345,"o":"m 49 456 q 559 971 369 684 q 640 1112 591 1015 q 651 1139 646 1128 l 792 1063 q 787 1053 798 1053 q 749 1036 770 1047 q 738 1031 738 1031 q 1345 597 987 678 l 1345 570 q 1204 494 1237 575 q 711 1004 873 656 q 689 977 700 993 q 385 635 543 749 l 488 581 l 841 581 l 895 651 l 1009 570 q 1009 553 1020 564 l 960 515 l 949 309 q 781 114 955 163 q 760 125 760 109 q 618 244 765 201 l 624 266 l 770 250 q 846 315 846 239 l 857 548 l 472 548 l 472 71 q 553 -22 461 -33 l 1009 -22 q 1112 49 1101 -27 l 1161 222 l 1183 217 l 1183 54 q 1232 -16 1188 -5 q 1074 -119 1183 -125 l 494 -119 q 363 22 363 -119 l 363 618 q 60 439 239 521 l 49 456 z "},"仔":{"ha":1389,"x_min":33,"x_max":1340,"o":"m 982 694 l 933 662 l 933 488 l 1145 488 l 1215 581 l 1340 467 l 1335 456 l 933 456 l 933 -27 q 792 -152 939 -109 q 776 -141 776 -152 q 613 -16 781 -54 l 618 5 l 770 -11 q 825 43 830 -22 l 825 456 l 515 456 l 439 445 l 423 488 l 825 488 l 825 781 l 901 749 l 1101 966 l 613 966 l 548 960 l 532 1004 l 1096 1004 l 1177 1063 l 1286 949 q 1280 933 1291 933 l 1210 922 l 939 732 l 982 716 q 982 694 998 711 m 353 1134 l 499 1058 q 505 1053 505 1053 q 494 1042 505 1047 q 412 944 445 1020 q 391 901 407 928 q 304 738 358 830 l 407 694 q 407 678 418 689 l 358 646 l 358 -114 q 255 -152 326 -146 q 260 434 260 43 l 260 662 q 49 380 174 515 l 33 391 q 309 966 184 640 q 353 1134 336 1036 z "},"仙":{"ha":1389,"x_min":43,"x_max":1318,"o":"m 1264 260 q 1270 -114 1264 22 q 1166 -152 1221 -152 l 1166 -43 l 656 -43 l 597 -103 l 505 -33 q 505 -16 499 -27 l 548 22 l 548 830 l 689 765 q 689 749 700 760 l 646 716 l 646 -11 l 852 -11 l 852 1128 l 1004 1063 q 1015 1058 1015 1058 q 1004 1047 1015 1058 l 955 1004 l 955 -11 l 1166 -11 l 1166 836 l 1308 770 q 1308 754 1318 765 l 1264 716 l 1264 260 m 380 1134 l 515 1058 q 526 1053 526 1053 q 515 1042 526 1047 q 434 944 472 1031 q 363 787 412 890 q 342 749 347 760 l 418 716 q 418 705 429 716 l 369 662 l 369 -119 q 266 -157 336 -152 q 271 434 271 38 l 271 635 q 60 363 184 494 l 43 380 q 336 966 228 667 q 347 1004 342 977 q 380 1134 363 1053 z "},"仡":{"ha":1389,"x_min":43,"x_max":1340,"o":"m 993 635 l 1118 532 q 1112 515 1128 526 l 1047 494 q 673 54 808 255 q 662 16 662 38 q 803 -11 646 -16 l 1107 -11 q 1221 60 1204 -16 l 1259 244 l 1286 239 l 1291 65 q 1340 -5 1286 11 q 1161 -109 1302 -114 l 792 -109 q 548 -5 537 -114 q 602 119 548 43 q 933 532 743 320 l 678 532 l 602 521 l 586 564 l 922 564 l 993 635 m 358 1134 l 510 1058 q 521 1053 521 1053 q 510 1042 521 1047 q 429 944 461 1031 q 331 743 380 841 l 423 705 q 423 694 434 705 l 374 656 l 374 -130 q 271 -168 342 -163 q 277 423 277 27 l 277 656 q 65 369 190 505 l 43 385 q 320 966 217 667 q 358 1134 347 1047 m 705 1123 l 846 1058 q 846 1036 863 1053 q 760 933 803 1031 q 743 901 754 922 q 700 819 732 868 l 1090 819 l 1172 911 l 1302 792 l 1291 781 l 678 781 q 439 477 575 608 l 423 494 q 667 966 575 727 q 700 1107 684 1004 q 705 1123 705 1118 z "},"代":{"ha":1389,"x_min":49,"x_max":1345,"o":"m 1204 814 l 1335 711 l 1329 700 l 868 656 q 1199 -11 901 195 q 1226 0 1215 -27 l 1286 217 l 1313 212 l 1302 49 q 1345 -119 1286 -54 q 1280 -152 1329 -152 q 960 65 1123 -146 q 770 651 798 271 l 548 629 l 483 613 l 456 656 l 765 684 q 760 857 760 765 q 754 949 760 890 q 743 1134 749 1074 l 911 1074 q 911 1063 922 1074 l 863 1020 q 857 895 857 987 q 868 689 857 787 l 1150 716 l 1204 814 m 391 1128 l 537 1047 q 543 1036 548 1042 q 532 1031 543 1031 q 445 939 483 1025 q 391 825 429 901 q 358 754 369 776 l 439 722 q 439 711 450 716 l 391 667 l 391 -114 q 288 -152 358 -146 q 298 434 298 222 l 298 651 q 65 347 212 515 l 49 363 q 342 966 233 646 q 391 1128 385 1085 m 966 1047 q 1172 944 1096 998 q 1199 890 1199 928 q 1139 803 1188 819 q 1101 836 1118 803 q 960 1031 1053 949 l 966 1047 z "},"令":{"ha":1389,"x_min":49,"x_max":1345,"o":"m 49 467 q 559 966 369 684 q 629 1085 586 1004 q 651 1128 646 1112 l 787 1058 q 787 1042 798 1053 q 732 1020 754 1036 q 1345 591 987 678 l 1340 564 q 1199 488 1248 575 q 711 998 884 635 q 689 966 694 982 q 60 445 472 624 l 49 467 m 418 184 q 694 92 602 130 l 939 385 l 331 385 l 271 380 l 255 418 l 939 418 l 1009 488 l 1128 363 q 1123 353 1139 358 l 1047 331 l 738 76 q 836 22 787 43 q 901 -65 901 -16 q 841 -152 895 -141 q 798 -125 825 -157 q 412 168 684 22 l 418 184 m 575 760 q 760 646 689 711 q 787 591 787 624 q 716 499 776 526 q 678 543 689 494 q 570 749 651 651 l 575 760 z "},"仪":{"ha":1389,"x_min":43,"x_max":1335,"o":"m 1177 -136 q 857 136 987 -16 q 418 -157 705 -38 l 401 -141 q 798 212 667 27 q 570 939 624 456 l 602 944 q 857 298 673 537 q 1058 846 977 488 q 1085 1020 1074 933 l 1232 939 q 1237 933 1237 933 q 1226 922 1237 928 q 1172 846 1183 911 q 922 222 1069 423 q 1335 -43 1085 54 l 1329 -65 q 1177 -136 1204 -60 m 358 1139 l 499 1063 q 510 1053 505 1058 q 499 1047 505 1047 q 412 949 445 1031 q 320 743 369 841 l 412 711 q 412 694 423 705 l 363 656 l 363 -114 q 260 -152 326 -146 q 266 423 266 43 l 266 656 q 65 385 201 537 l 43 401 q 309 966 217 673 q 358 1139 342 1058 m 722 1107 q 895 955 846 1025 q 933 879 933 922 q 852 776 917 798 q 825 819 836 776 q 705 1096 787 987 l 722 1107 z "},"仫":{"ha":1389,"x_min":49,"x_max":1313,"o":"m 1047 320 l 1063 331 q 1291 43 1221 179 q 1313 -43 1313 0 q 1226 -152 1297 -136 q 1194 -103 1199 -146 q 1183 -49 1188 -81 q 1166 16 1172 -5 q 689 -60 868 -16 q 570 -103 613 -76 q 553 -103 559 -114 l 494 16 q 640 109 591 43 q 933 575 803 309 q 1009 743 982 662 l 1161 651 q 1161 635 1172 640 q 1074 581 1107 629 q 656 27 884 271 q 1150 65 955 54 q 1047 320 1118 184 m 380 1134 l 521 1058 q 532 1053 532 1053 q 521 1042 532 1047 q 439 944 467 1036 q 336 738 391 830 l 418 700 q 418 689 429 700 l 374 646 l 374 -119 q 271 -157 331 -152 q 277 423 277 49 l 277 629 q 65 358 190 494 l 49 374 q 331 960 233 678 q 380 1134 363 1047 m 895 1096 l 1047 1004 q 1042 987 1058 987 q 944 917 987 987 q 418 326 749 575 l 401 347 q 819 922 662 629 q 895 1096 873 1031 z "},"们":{"ha":1389,"x_min":43,"x_max":1313,"o":"m 1150 49 l 1150 955 l 901 955 l 830 944 l 814 987 l 1134 987 l 1188 1058 l 1302 977 q 1302 960 1313 971 l 1253 922 l 1253 -27 q 1112 -152 1259 -103 q 1090 -141 1096 -157 q 922 -22 1090 -60 l 933 5 l 1090 -16 q 1150 49 1156 -27 m 315 1134 l 456 1063 q 450 1047 467 1058 q 385 977 407 1031 q 293 770 342 868 l 374 732 q 374 716 385 727 l 331 689 l 331 -114 q 233 -152 293 -146 q 239 -5 239 -92 q 239 266 239 65 l 239 662 q 60 396 157 510 l 43 407 q 277 966 184 673 q 315 1134 298 1047 m 499 873 l 640 803 q 640 792 651 803 l 597 760 l 597 -114 q 494 -152 559 -146 q 499 250 499 -33 l 499 873 m 559 1090 q 738 993 662 1047 q 765 939 765 971 q 700 846 754 863 q 667 879 678 846 q 548 1080 629 987 l 559 1090 z "},"仲":{"ha":1389,"x_min":33,"x_max":1313,"o":"m 825 1128 l 971 1063 q 971 1047 982 1058 l 922 1009 l 922 792 l 1134 792 l 1194 868 l 1302 787 q 1302 776 1313 781 l 1253 732 l 1253 667 q 1259 320 1253 515 q 1156 277 1215 282 l 1156 369 l 922 369 q 933 -27 922 233 q 933 -114 933 -87 q 819 -152 895 -146 q 819 76 819 -76 q 825 369 825 260 l 597 369 l 597 277 q 494 239 553 244 q 499 358 494 282 q 505 700 505 537 l 505 852 l 618 792 l 825 792 l 825 1128 m 347 1128 l 483 1058 q 494 1053 494 1053 q 483 1042 494 1047 q 401 949 434 1020 q 304 743 353 836 l 380 705 q 380 694 391 705 l 336 656 l 336 -119 q 239 -157 304 -152 q 244 434 244 38 l 244 640 q 54 380 168 510 l 33 396 q 304 966 195 673 q 347 1128 331 1031 m 1156 760 l 922 760 l 922 477 l 922 401 l 1156 401 l 1156 760 m 825 401 l 825 521 l 825 760 l 597 760 l 597 401 l 825 401 z "},"任":{"ha":1389,"x_min":49,"x_max":1340,"o":"m 1172 81 l 1297 -33 l 1286 -43 l 591 -43 l 515 -49 l 499 -11 l 825 -11 l 825 477 l 526 477 l 450 472 l 434 510 l 825 510 l 825 906 q 521 879 624 884 l 515 901 q 581 917 537 906 q 1020 1025 906 982 q 1134 1085 1085 1053 l 1226 971 q 1215 960 1232 955 q 1085 949 1145 960 q 928 922 1015 933 l 928 510 l 1145 510 l 1221 602 l 1340 494 l 1335 477 l 928 477 l 928 -11 l 1101 -11 l 1172 81 m 369 1134 l 515 1063 q 526 1058 526 1058 q 515 1047 526 1053 q 429 949 467 1042 q 407 906 423 933 q 331 749 363 803 l 418 711 q 418 700 429 711 l 369 662 l 369 -119 q 260 -157 336 -152 q 271 434 271 217 l 271 640 q 65 363 184 494 l 49 374 q 320 966 239 716 q 369 1134 353 1053 z "},"份":{"ha":1389,"x_min":27,"x_max":1362,"o":"m 564 467 l 548 505 l 1009 505 l 1058 575 l 1172 488 q 1172 472 1183 483 l 1128 439 q 1096 49 1123 326 q 911 -152 1096 -103 q 895 -141 895 -157 q 743 -11 901 -65 l 749 11 l 906 -11 q 993 81 982 -33 q 1020 380 1004 174 q 1025 472 1025 439 l 792 472 q 374 -157 787 -11 l 363 -136 q 684 472 684 65 l 624 472 l 564 467 m 374 1134 l 510 1058 q 521 1053 521 1053 q 510 1042 521 1047 q 423 949 456 1025 q 309 738 385 863 l 385 705 q 385 689 396 700 l 336 651 l 336 -103 q 239 -146 298 -141 q 244 445 244 54 l 244 635 q 43 391 174 521 l 27 407 q 320 971 190 651 q 374 1134 353 1058 m 901 1123 l 1015 1085 q 1020 1074 1031 1085 l 977 1047 q 1362 575 1063 684 l 1356 559 q 1221 488 1259 564 q 901 1123 971 678 m 662 1063 l 803 993 q 803 977 814 987 q 732 901 754 966 q 429 401 629 597 l 412 418 q 629 895 564 651 q 662 1063 656 977 z "},"企":{"ha":1389,"x_min":54,"x_max":1340,"o":"m 347 515 l 494 445 q 494 429 505 439 l 450 396 l 450 -43 l 656 -43 l 656 738 l 808 667 q 819 662 819 662 q 808 651 819 656 l 765 618 l 765 374 l 928 374 l 998 461 l 1123 353 l 1118 336 l 765 336 l 765 -43 l 1080 -43 l 1156 54 l 1297 -65 l 1291 -76 l 168 -76 l 92 -81 l 76 -43 l 347 -43 l 347 515 m 54 467 q 564 971 380 694 q 646 1112 597 1015 q 656 1139 651 1128 l 792 1063 q 792 1053 803 1058 q 738 1025 760 1042 q 1340 602 987 684 l 1335 581 q 1199 494 1232 581 q 716 1004 890 646 q 694 971 700 987 q 65 445 467 635 l 54 467 z "},"伊":{"ha":1389,"x_min":43,"x_max":1345,"o":"m 1242 749 l 1345 656 l 1340 640 l 1156 640 l 1156 570 q 1161 233 1156 304 q 1053 201 1118 201 l 1053 331 l 770 331 q 385 -157 743 16 l 374 -141 q 667 331 629 60 l 505 331 l 439 320 l 423 363 l 673 363 q 689 640 689 477 l 472 640 l 401 635 l 385 673 l 694 673 l 694 727 l 694 955 l 543 955 l 477 949 l 461 987 l 1031 987 l 1085 1058 l 1204 977 q 1204 966 1215 971 l 1156 922 l 1156 673 l 1188 673 l 1242 749 m 298 1123 l 439 1053 q 439 1036 450 1047 q 374 966 385 1020 q 293 770 336 863 l 369 732 q 369 716 380 727 l 326 689 l 326 -119 q 222 -152 282 -152 q 233 401 233 92 l 233 651 q 60 380 152 494 l 43 391 q 260 955 174 651 q 298 1123 282 1036 m 792 640 q 776 363 792 477 l 1053 363 l 1053 640 l 792 640 m 798 727 l 798 673 l 1053 673 l 1053 955 l 798 955 l 798 727 z "},"伍":{"ha":1389,"x_min":33,"x_max":1351,"o":"m 1161 1063 l 1286 949 l 1280 939 l 825 939 l 781 570 l 993 570 l 1047 646 l 1172 564 q 1172 548 1183 559 l 1123 505 l 1123 -33 l 1161 -33 l 1226 60 l 1351 -54 l 1340 -65 l 477 -65 l 401 -76 l 391 -33 l 602 -33 l 673 537 l 532 537 l 472 532 l 456 570 l 678 570 l 722 939 l 537 939 l 467 933 l 450 971 l 1090 971 l 1161 1063 m 1020 537 l 776 537 l 705 -33 l 1020 -33 l 1020 537 m 342 1139 l 488 1069 q 499 1063 499 1063 q 488 1053 499 1058 q 401 955 434 1036 q 298 738 353 841 l 385 705 q 385 689 396 700 l 336 656 l 336 -114 q 233 -152 304 -146 q 244 434 244 222 l 244 635 q 49 374 146 494 l 33 391 q 298 977 195 684 q 342 1139 331 1058 z "},"休":{"ha":1389,"x_min":43,"x_max":1351,"o":"m 1194 873 l 1308 765 l 1302 754 l 955 754 q 1351 146 1074 293 l 1340 125 q 1204 76 1242 146 q 922 754 987 271 l 890 754 l 890 532 q 890 157 890 288 q 895 -119 890 11 q 781 -152 857 -146 q 792 483 792 206 l 792 608 q 380 43 673 309 l 363 60 q 743 754 629 380 l 510 754 l 450 743 l 434 787 l 792 787 l 792 1128 l 939 1069 q 939 1053 949 1063 l 890 1015 l 890 787 l 1123 787 l 1194 873 m 342 1134 l 488 1069 q 499 1058 494 1063 q 488 1053 494 1053 q 407 955 439 1036 q 353 836 391 911 q 320 754 331 781 l 391 722 q 391 711 401 722 l 347 673 l 347 -119 q 244 -157 309 -152 q 250 434 250 38 l 250 635 q 60 369 174 499 l 43 385 q 304 966 206 673 q 309 987 304 971 q 342 1134 331 1053 z "},"会":{"ha":1389,"x_min":49,"x_max":1340,"o":"m 814 228 q 1107 38 993 141 q 1150 -43 1156 -5 q 1085 -141 1139 -125 q 1053 -119 1069 -141 q 1004 -27 1031 -71 q 787 -54 933 -33 q 391 -98 521 -81 q 293 -130 326 -109 q 277 -125 282 -130 l 239 -11 q 363 49 304 -5 q 510 222 445 130 q 532 250 515 233 q 581 326 553 277 l 222 326 l 146 315 l 130 358 l 1080 358 l 1156 456 l 1291 336 l 1286 326 l 662 326 l 732 277 q 732 260 743 266 q 656 222 694 266 q 380 -11 499 71 q 488 -5 412 -11 q 982 11 825 0 q 803 212 901 125 l 814 228 m 49 483 q 559 977 391 705 q 646 1139 602 1036 l 787 1063 q 787 1053 798 1053 q 749 1036 770 1047 q 738 1031 738 1031 q 1340 613 977 705 l 1335 591 q 1199 521 1237 591 q 716 1009 879 662 q 705 993 711 1004 q 689 977 694 982 q 60 467 488 656 l 49 483 m 890 694 l 1009 591 l 1004 581 l 467 581 l 396 570 l 380 613 l 819 613 l 890 694 z "},"伟":{"ha":1389,"x_min":33,"x_max":1318,"o":"m 770 1134 l 922 1063 q 922 1053 933 1063 l 873 1015 l 873 895 l 1123 895 l 1188 987 l 1313 879 l 1308 863 l 873 863 l 873 673 l 1042 673 l 1112 760 l 1232 651 l 1221 640 l 873 640 l 873 450 l 1139 450 l 1194 521 l 1308 439 q 1308 423 1318 434 l 1259 385 q 1253 277 1253 353 q 1248 168 1248 206 q 1090 -5 1248 43 q 1080 5 1080 -5 q 949 119 1080 87 l 955 141 l 1063 125 q 1145 206 1139 103 q 1161 418 1150 266 l 873 418 l 873 -119 q 760 -157 836 -152 q 760 -119 760 -98 q 770 358 770 233 l 770 418 l 488 418 l 423 407 l 407 450 l 770 450 l 770 640 l 564 640 l 505 629 l 488 673 l 770 673 l 770 863 l 515 863 l 450 857 l 434 895 l 770 895 l 770 1134 m 347 1134 l 483 1063 q 494 1053 488 1058 q 483 1047 488 1047 q 401 949 434 1031 q 309 760 358 852 l 401 722 q 401 705 412 716 l 353 667 l 353 -119 q 250 -157 320 -152 q 260 429 260 217 l 260 667 q 49 385 174 521 l 33 401 q 304 971 195 678 q 347 1134 331 1053 z "},"伦":{"ha":1389,"x_min":22,"x_max":1351,"o":"m 1047 553 l 1145 445 q 1139 434 1156 434 q 1047 401 1096 434 q 722 233 890 304 l 722 60 q 798 -11 716 -16 l 1053 -11 q 1156 60 1150 -16 l 1199 239 l 1221 233 l 1226 71 q 1275 0 1221 16 q 1080 -109 1237 -114 l 770 -109 q 618 43 608 -119 l 618 613 l 765 543 q 765 532 781 537 l 722 494 l 722 282 q 1047 553 944 429 m 369 1139 l 505 1058 q 515 1053 515 1053 q 505 1042 515 1047 q 418 949 461 1036 q 304 738 363 836 l 380 705 q 380 689 391 700 l 336 656 l 336 -119 q 228 -157 298 -152 q 239 429 239 217 l 239 635 q 38 391 163 526 l 22 401 q 315 977 201 684 q 369 1139 353 1053 m 787 1128 l 928 1053 q 928 1036 939 1047 q 917 1031 922 1036 q 884 1020 890 1031 q 1351 618 1063 711 l 1345 602 q 1232 515 1264 597 q 857 998 982 656 q 852 987 857 987 q 374 445 656 629 l 363 467 q 727 977 581 678 q 732 987 727 982 q 787 1128 776 1085 z "},"伯":{"ha":1389,"x_min":43,"x_max":1280,"o":"m 825 1139 l 960 1069 q 971 1063 971 1063 q 960 1053 971 1058 q 884 977 911 1042 q 814 852 846 906 l 1107 852 l 1161 928 l 1280 846 q 1280 830 1280 841 l 1226 787 l 1226 353 q 1232 -103 1226 49 q 1123 -146 1188 -146 l 1123 11 l 667 11 l 667 -109 q 559 -152 624 -152 q 559 87 559 -87 q 564 369 564 288 l 564 906 l 684 852 l 749 852 q 825 1139 808 1015 m 667 429 l 667 43 l 1123 43 l 1123 429 l 667 429 m 1123 819 l 667 819 l 667 461 l 1123 461 l 1123 819 m 358 1128 l 499 1058 q 494 1036 510 1047 q 418 944 445 1025 q 412 928 418 939 q 326 754 374 841 l 396 722 q 396 711 407 722 l 347 673 l 347 -119 q 250 -157 315 -152 q 255 434 255 38 l 255 629 q 65 369 174 499 l 43 385 q 309 960 212 667 q 358 1128 342 1047 z "},"伸":{"ha":1389,"x_min":38,"x_max":1297,"o":"m 830 1134 l 977 1069 q 977 1058 987 1069 l 928 1020 l 928 857 l 1123 857 l 1177 928 l 1286 846 q 1286 836 1297 841 l 1242 792 l 1242 537 q 1242 212 1242 369 q 1145 179 1210 184 l 1145 271 l 928 271 q 933 76 928 212 q 933 -119 933 -60 q 825 -157 901 -152 q 825 271 825 33 l 613 271 l 613 195 q 510 163 570 168 q 515 586 515 271 l 515 917 l 635 857 l 830 857 l 830 1134 m 336 1128 l 477 1063 q 488 1053 483 1058 q 477 1047 483 1047 q 396 949 429 1031 q 315 760 358 846 l 396 722 q 396 711 407 722 l 353 673 l 353 -119 q 250 -157 315 -152 q 255 434 255 38 l 255 651 q 54 369 174 505 l 38 385 q 293 966 195 673 q 336 1128 326 1047 m 928 526 l 928 304 l 1145 304 l 1145 548 l 928 548 l 928 526 m 1145 825 l 928 825 l 928 581 l 1145 581 l 1145 825 m 830 304 l 830 521 l 830 548 l 613 548 l 613 304 l 830 304 m 613 825 l 613 581 l 830 581 l 830 825 l 613 825 z "},"伽":{"ha":1389,"x_min":38,"x_max":1302,"o":"m 1253 -54 q 1156 -98 1215 -87 l 1156 49 l 1015 49 l 1015 -76 q 917 -119 982 -114 q 922 418 922 22 l 922 906 l 1042 846 l 1134 846 l 1183 917 l 1291 841 q 1291 825 1302 836 l 1248 787 l 1248 412 q 1253 -54 1248 103 m 515 1128 l 662 1069 q 662 1053 673 1063 l 618 1020 q 618 798 618 911 l 711 798 l 765 868 l 873 781 q 873 770 884 776 l 825 732 q 814 81 825 369 q 662 -125 819 -71 q 640 -114 640 -130 q 515 0 640 -27 l 521 22 l 646 11 q 711 92 716 -5 q 727 765 727 407 l 618 765 l 618 754 q 559 190 618 363 q 336 -152 510 16 l 320 -136 q 477 228 434 33 q 521 765 521 423 l 434 765 l 380 760 l 363 798 l 521 798 q 515 1128 521 1020 m 320 1128 l 450 1053 q 445 1036 461 1047 q 380 966 401 1020 q 277 765 326 852 l 347 732 q 347 716 358 727 l 304 689 l 304 -109 q 212 -146 266 -146 q 212 -16 212 -109 q 217 271 217 146 l 217 656 q 87 477 174 586 q 54 434 65 450 l 38 450 q 271 966 174 694 q 320 1128 304 1047 m 1156 814 l 1015 814 l 1015 87 l 1156 87 l 1156 814 z "},"余":{"ha":1389,"x_min":49,"x_max":1345,"o":"m 895 732 l 1004 629 l 993 618 l 749 618 l 749 401 l 1025 401 l 1101 494 l 1226 385 l 1221 369 l 749 369 l 749 -33 q 613 -152 749 -114 q 591 -146 591 -163 q 423 -22 591 -60 l 429 0 l 586 -16 q 646 49 651 -27 l 646 369 l 255 369 l 184 363 l 168 401 l 646 401 l 646 618 l 472 618 l 396 608 l 380 651 l 830 651 l 895 732 m 49 499 q 575 1009 401 727 q 624 1107 591 1042 q 646 1150 640 1134 l 787 1074 q 787 1058 798 1069 q 743 1047 760 1058 q 1345 640 971 738 l 1340 618 q 1210 537 1237 624 q 716 1020 868 700 q 694 993 700 1009 q 65 483 488 667 l 49 499 m 407 315 l 532 217 q 526 206 537 212 q 434 157 483 206 q 87 -98 271 0 l 71 -81 q 342 206 239 65 q 407 315 385 271 m 863 277 q 1188 98 1047 201 q 1226 22 1226 65 q 1166 -87 1221 -65 q 1134 -65 1150 -87 q 1128 -54 1139 -65 q 852 260 1031 119 l 863 277 z "},"佛":{"ha":1389,"x_min":33,"x_max":1324,"o":"m 548 374 l 499 326 l 412 396 q 412 412 407 407 l 450 445 l 472 705 l 570 646 l 667 646 l 667 852 l 515 852 l 456 846 l 439 884 l 667 884 l 667 1134 l 808 1069 q 808 1058 819 1069 l 765 1025 l 765 884 l 890 884 l 890 1134 l 1031 1069 q 1031 1058 1042 1058 l 987 1020 l 987 884 l 1090 884 l 1139 955 l 1253 879 q 1253 863 1264 873 l 1204 825 l 1204 803 q 1210 586 1204 662 q 1112 548 1161 553 l 1112 613 l 987 613 l 987 537 l 987 407 l 1166 407 l 1215 472 l 1318 396 q 1318 391 1318 396 q 1318 380 1324 385 l 1275 347 q 1270 282 1275 331 q 1253 136 1259 179 q 1118 5 1248 38 q 1107 11 1107 5 q 987 119 1107 87 l 993 141 l 1096 125 q 1161 163 1161 114 q 1177 326 1166 201 q 1183 374 1183 358 l 987 374 q 987 98 987 195 q 993 -109 987 -11 q 890 -146 955 -141 q 890 374 890 76 l 749 374 q 374 -152 732 5 l 363 -136 q 656 374 635 65 l 548 374 m 347 732 l 309 705 l 309 -109 q 212 -146 260 -146 q 217 0 217 -87 q 217 271 217 71 l 217 667 q 87 488 174 602 q 49 439 60 456 l 33 456 q 271 977 163 694 q 320 1134 304 1058 l 456 1063 q 450 1047 467 1047 q 380 977 407 1036 q 282 781 331 873 l 347 749 q 347 732 358 743 m 890 407 l 890 526 l 890 613 l 765 613 q 754 407 765 499 l 890 407 m 765 852 l 765 646 l 890 646 l 890 852 l 765 852 m 1112 852 l 987 852 l 987 646 l 1112 646 l 1112 852 m 662 407 q 667 613 667 499 l 553 613 l 537 407 l 662 407 z "},"作":{"ha":1389,"x_min":43,"x_max":1329,"o":"m 1177 320 l 1297 212 l 1286 201 l 846 201 l 846 -119 q 732 -157 798 -152 q 738 -5 738 -92 q 738 266 738 65 l 738 814 l 667 814 q 423 494 575 646 l 401 510 q 651 987 581 787 q 694 1134 673 1053 l 836 1053 q 846 1047 846 1047 q 836 1036 846 1042 q 765 987 781 1031 q 689 846 727 911 l 1134 846 l 1204 933 l 1329 825 l 1324 814 l 846 814 l 846 537 l 1096 537 l 1166 624 l 1280 515 l 1270 505 l 846 505 l 846 233 l 1107 233 l 1177 320 m 385 673 l 347 646 l 347 -114 q 244 -152 309 -146 q 250 -5 250 -92 q 250 266 250 65 l 250 656 q 60 401 157 510 l 43 418 q 304 966 179 646 q 353 1128 331 1047 l 488 1053 q 488 1036 499 1042 q 418 966 439 1025 q 374 884 401 939 q 293 732 358 841 l 385 689 q 385 673 396 684 z "},"佤":{"ha":1389,"x_min":33,"x_max":1335,"o":"m 1172 1085 l 1297 977 l 1291 966 l 722 966 l 694 705 l 955 705 l 1009 776 l 1123 694 q 1123 684 1134 689 l 1074 640 l 1047 43 q 1080 -16 1042 -22 l 1150 -16 q 1221 49 1210 -22 l 1253 222 l 1275 217 l 1286 54 q 1335 -11 1286 11 q 1188 -109 1297 -114 l 1053 -109 q 944 -5 939 -109 l 971 667 l 694 667 l 624 0 q 857 103 727 43 l 868 81 q 667 -60 770 16 q 564 -152 618 -98 q 553 -152 553 -163 l 477 -60 q 526 27 521 -33 l 618 966 l 543 966 l 477 955 l 461 998 l 1101 998 l 1172 1085 m 353 1134 l 483 1058 q 494 1053 494 1053 q 483 1042 494 1047 q 407 960 434 1031 q 309 743 358 841 l 391 705 q 391 689 401 700 l 353 651 l 353 -114 q 250 -152 315 -146 q 255 434 255 43 l 255 651 q 49 363 168 499 l 33 380 q 309 982 195 646 q 353 1134 336 1069 m 727 521 q 873 391 819 467 q 895 342 895 369 q 819 255 884 271 q 792 293 798 250 q 716 510 776 407 l 727 521 z "},"佬":{"ha":1389,"x_min":27,"x_max":1340,"o":"m 754 1134 l 895 1069 q 895 1058 911 1069 l 852 1025 l 852 879 l 906 879 l 971 949 l 1063 868 q 1074 890 1069 873 q 1085 906 1085 901 q 1150 1047 1118 955 l 1270 966 q 1275 955 1275 960 q 1264 949 1275 949 q 1188 890 1221 939 q 993 602 1101 738 l 1150 602 l 1221 689 l 1340 586 l 1335 570 l 966 570 q 787 380 879 472 l 814 369 q 814 353 825 363 l 770 320 l 770 206 q 1020 374 911 288 q 1031 380 1025 374 q 1118 467 1080 423 l 1210 353 q 1199 342 1215 342 q 1112 320 1156 342 q 770 168 982 244 l 770 60 q 852 -11 765 -16 l 1069 -11 q 1172 60 1161 -16 l 1215 239 l 1237 233 l 1242 71 q 1286 0 1237 16 q 1090 -109 1248 -114 l 830 -109 q 673 43 662 -119 l 673 277 q 401 87 548 179 l 391 103 q 673 363 526 217 l 673 439 l 722 412 q 776 472 738 434 q 852 570 830 537 l 483 570 l 429 564 l 412 602 l 754 602 l 754 846 l 602 846 l 548 836 l 532 879 l 754 879 l 754 1134 m 347 1134 l 483 1058 q 494 1053 494 1053 q 483 1042 494 1047 q 407 960 434 1031 q 326 781 380 895 q 304 743 309 754 l 391 700 q 391 689 401 700 l 353 651 l 353 -119 q 250 -157 298 -152 q 260 434 260 228 l 260 656 q 43 363 157 483 l 27 380 q 304 977 201 651 q 342 1107 320 1025 q 347 1134 347 1123 m 879 602 q 1047 846 977 727 l 852 846 l 852 602 l 879 602 z "},"佳":{"ha":1389,"x_min":22,"x_max":1340,"o":"m 342 1134 l 477 1058 q 483 1047 483 1053 q 472 1042 483 1047 q 396 960 429 1036 q 298 743 347 836 l 380 700 q 380 689 391 700 l 342 651 l 342 -119 q 239 -157 288 -157 q 250 434 250 228 l 250 651 q 38 363 179 521 l 22 380 q 298 977 201 678 q 315 1042 304 998 q 342 1134 336 1107 m 803 548 l 949 483 q 949 467 960 477 l 906 434 l 906 277 l 1069 277 l 1139 363 l 1253 260 l 1248 244 l 906 244 l 906 -49 l 1139 -49 l 1210 43 l 1340 -71 l 1335 -81 l 494 -81 l 423 -92 l 401 -49 l 803 -49 l 803 244 l 575 244 l 505 239 l 488 277 l 803 277 l 803 548 m 1194 667 l 1313 559 l 1308 548 l 510 548 l 439 543 l 423 581 l 803 581 l 803 830 l 581 830 l 510 825 l 494 863 l 803 863 l 803 1128 l 949 1069 q 949 1058 960 1063 l 906 1025 l 906 863 l 1069 863 l 1134 949 l 1248 841 l 1242 830 l 906 830 l 906 581 l 1123 581 l 1194 667 z "},"侗":{"ha":1389,"x_min":16,"x_max":1302,"o":"m 1242 -33 q 1107 -157 1248 -109 q 1085 -146 1085 -163 q 928 -27 1080 -65 l 933 -5 l 1080 -22 q 1139 38 1145 -33 l 1139 966 l 581 966 l 581 -119 q 477 -157 532 -157 q 477 49 477 -114 q 483 315 483 250 l 483 1063 l 591 1004 l 1118 1004 l 1177 1074 l 1291 993 q 1291 977 1302 987 l 1242 933 l 1242 -33 m 309 1134 l 445 1069 q 456 1063 456 1063 q 445 1053 456 1058 q 369 960 401 1047 q 358 939 363 955 q 277 760 326 846 l 353 722 q 353 711 363 711 l 315 678 l 315 -119 q 212 -157 271 -152 q 222 434 222 228 l 222 651 q 38 374 152 521 l 16 391 q 266 971 184 678 q 309 1134 298 1069 m 1025 179 q 933 141 982 146 l 933 222 l 781 222 l 781 136 q 689 103 743 103 q 694 401 694 195 l 694 629 l 803 570 l 911 570 l 960 635 l 1063 564 q 1063 548 1074 559 l 1020 510 l 1020 396 q 1025 179 1020 244 m 933 537 l 781 537 l 781 255 l 933 255 l 933 537 m 1009 846 l 1112 754 l 1107 738 l 694 738 l 640 732 l 618 776 l 949 776 l 1009 846 z "},"依":{"ha":1389,"x_min":27,"x_max":1345,"o":"m 1161 694 l 1270 597 q 1264 581 1275 586 q 1183 553 1226 586 q 971 401 1074 467 q 1345 5 1085 141 l 1340 -16 q 1210 -76 1242 -5 q 825 722 884 174 q 678 505 760 608 l 727 477 q 727 467 738 477 l 689 439 l 689 16 l 933 152 l 944 130 q 917 109 933 119 q 743 -43 781 -5 q 646 -146 667 -103 q 629 -152 640 -157 l 548 -43 q 591 38 597 -22 l 591 407 q 342 201 472 298 l 342 -119 q 239 -157 288 -152 q 244 434 244 43 l 244 662 q 43 385 168 526 l 27 396 q 293 982 190 689 q 336 1139 326 1063 l 477 1074 q 488 1063 483 1069 q 477 1058 483 1058 q 396 960 423 1031 q 347 863 380 928 q 309 781 320 808 l 380 749 q 380 732 391 743 l 342 700 l 342 239 q 760 830 635 526 l 494 830 l 429 825 l 412 863 l 1128 863 l 1199 955 l 1324 846 l 1313 830 l 852 830 l 901 803 q 901 787 911 792 q 857 770 873 781 q 955 439 901 575 q 1161 694 1069 548 m 722 1134 q 868 1036 803 1096 q 906 960 906 998 q 830 873 895 890 q 798 911 803 879 q 711 1123 776 1042 l 722 1134 z "},"侯":{"ha":1389,"x_min":33,"x_max":1345,"o":"m 1215 385 l 1340 277 l 1329 266 l 933 266 q 1345 -60 1047 5 l 1340 -81 q 1210 -157 1242 -76 q 895 266 977 -43 l 863 266 q 374 -157 803 -49 l 363 -136 q 760 266 705 22 l 472 266 l 407 255 l 391 298 l 765 298 q 798 515 792 391 l 624 515 q 461 331 543 401 l 445 342 q 581 602 526 467 q 624 732 608 667 l 749 673 q 743 656 760 667 q 684 602 711 651 q 651 553 667 581 l 1053 553 l 1123 635 l 1237 532 l 1232 515 l 901 515 q 873 298 890 391 l 1139 298 l 1215 385 m 331 1118 l 472 1053 q 472 1031 488 1042 q 396 939 434 1031 q 385 917 391 933 q 288 705 342 808 l 369 667 q 369 656 380 667 l 326 624 l 326 -119 q 222 -157 271 -152 q 228 434 228 43 l 228 602 q 49 353 157 472 l 33 369 q 293 949 190 651 q 331 1118 326 1036 m 559 1015 l 977 1015 l 1025 1080 l 1134 1009 q 1134 993 1145 1004 l 1085 955 l 1080 792 l 1145 792 l 1210 873 l 1324 770 l 1318 760 l 494 760 l 418 749 l 401 792 l 982 792 l 993 982 l 629 982 l 575 971 l 559 1015 z "},"保":{"ha":1389,"x_min":43,"x_max":1356,"o":"m 1210 526 l 1335 418 l 1324 401 l 960 401 q 1356 49 1074 157 l 1351 33 q 1232 -27 1253 38 q 928 401 1015 92 l 906 401 l 906 250 q 906 -125 906 92 q 803 -157 868 -152 q 803 38 803 -98 q 808 250 808 184 l 808 342 q 385 -60 640 81 l 374 -43 q 732 401 591 146 l 483 401 l 412 396 l 396 434 l 808 434 l 808 629 l 656 629 l 656 581 q 548 548 613 548 q 553 901 553 629 l 553 1058 l 667 1004 l 1031 1004 l 1085 1074 l 1199 998 q 1199 982 1210 993 l 1156 939 l 1156 906 q 1161 602 1156 711 q 1058 564 1128 570 l 1058 629 l 906 629 l 906 434 l 1139 434 l 1210 526 m 385 673 l 342 646 l 342 -114 q 244 -152 293 -146 q 244 -11 244 -109 q 250 271 250 152 l 250 662 q 60 401 157 510 l 43 418 q 298 966 179 662 q 347 1128 331 1047 l 483 1053 q 483 1036 494 1047 q 412 971 434 1025 q 369 884 396 944 q 293 732 347 841 l 385 689 q 385 673 396 684 m 1058 971 l 656 971 l 656 667 l 1058 667 l 1058 971 z "},"信":{"ha":1389,"x_min":43,"x_max":1340,"o":"m 1183 -119 q 1069 -152 1128 -146 l 1069 -22 l 673 -22 l 673 -119 q 559 -152 629 -152 q 564 27 564 -38 q 564 250 564 81 l 564 363 l 678 304 l 1047 304 l 1101 380 l 1221 298 q 1221 282 1232 293 l 1172 244 l 1172 201 q 1177 49 1172 136 q 1183 -119 1183 -43 m 363 1139 l 499 1058 q 510 1047 505 1053 q 499 1042 505 1042 q 412 949 445 1025 q 369 868 396 922 q 326 787 342 814 l 391 749 q 391 738 401 749 l 347 705 l 347 -114 q 244 -152 315 -146 q 255 434 255 222 l 255 673 q 60 423 141 510 l 43 439 q 309 977 201 694 q 320 1009 315 987 q 363 1139 347 1069 m 1069 266 l 673 266 l 673 16 l 1069 16 l 1069 266 m 1215 1004 l 1340 890 l 1335 873 l 532 873 l 461 868 l 445 911 l 841 911 q 836 922 836 917 q 830 939 830 933 q 749 1134 808 1053 l 760 1145 q 906 1063 836 1118 q 939 998 939 1031 q 890 911 933 949 l 1139 911 l 1215 1004 m 1134 581 l 1248 472 l 1242 461 l 618 461 l 548 450 l 532 494 l 1063 494 l 1134 581 m 1128 787 l 1242 678 l 1237 667 l 613 667 l 543 656 l 526 705 l 1063 705 l 1128 787 z "},"修":{"ha":1389,"x_min":38,"x_max":1351,"o":"m 770 1145 l 895 1080 q 895 1063 906 1074 q 830 1009 857 1053 q 814 977 825 998 q 792 939 798 949 l 1080 939 l 1139 1004 l 1242 906 q 1242 895 1253 901 l 1183 873 q 1004 673 1085 738 q 1351 564 1134 597 l 1351 543 q 1237 461 1253 532 q 933 613 1036 526 q 537 418 776 488 l 526 434 q 873 667 727 532 q 749 873 803 749 q 537 624 673 749 l 521 640 q 732 1020 662 841 q 770 1145 754 1085 m 293 1134 l 429 1063 q 423 1047 439 1058 q 363 977 385 1036 q 277 787 315 873 l 342 754 q 353 749 353 749 q 342 738 353 743 l 304 711 l 304 -114 q 206 -152 255 -152 q 217 266 217 43 l 217 667 q 54 429 136 532 l 38 439 q 255 971 179 732 q 293 1134 277 1053 m 423 922 l 553 857 q 553 846 564 857 l 510 808 l 510 109 q 412 71 461 71 q 423 515 423 266 l 423 922 m 1210 250 l 1302 157 q 1313 146 1308 152 q 1302 141 1308 141 q 1226 119 1253 146 q 434 -157 863 -119 l 429 -141 q 1096 146 841 -33 q 1123 168 1107 152 q 1210 250 1183 217 m 1058 407 l 1150 326 q 1150 304 1166 309 q 1074 277 1107 304 q 532 -5 814 71 l 521 16 q 971 315 792 152 q 1047 396 1009 347 q 1058 407 1042 391 m 949 543 l 1047 467 q 1058 456 1053 461 q 1047 450 1053 450 q 987 429 1025 450 q 971 423 977 423 q 570 195 792 277 l 564 212 q 879 456 727 315 q 928 515 901 483 q 949 543 944 532 m 1085 906 l 776 906 q 770 901 770 906 q 933 722 846 798 q 1085 906 1015 803 z "},"偃":{"ha":1389,"x_min":27,"x_max":1345,"o":"m 1221 488 l 1324 396 l 1318 385 l 1161 385 q 1053 190 1118 266 q 1101 174 1069 184 q 1145 152 1128 157 q 1199 76 1199 125 q 1161 16 1199 16 q 1128 33 1150 16 q 1123 38 1134 27 q 993 130 1058 92 q 624 -11 868 38 l 618 11 q 917 168 803 76 q 705 239 830 206 q 792 385 754 304 l 684 385 l 618 374 l 602 418 l 808 418 q 846 499 825 445 q 868 553 863 537 l 787 553 l 787 526 q 694 488 749 494 q 700 781 700 591 l 700 917 l 798 863 l 1085 863 l 1134 928 l 1237 857 q 1237 846 1248 852 l 1194 808 l 1194 760 q 1194 673 1194 738 q 1199 537 1199 575 q 1107 494 1161 494 l 1107 553 l 873 553 l 977 494 q 977 483 987 488 l 933 461 q 922 445 928 456 q 906 418 911 423 l 1161 418 l 1221 488 m 1204 1096 l 1324 993 l 1313 982 l 586 982 l 586 -54 l 1156 -54 l 1221 33 l 1345 -76 l 1335 -87 l 602 -87 l 548 -141 l 456 -71 q 456 -54 450 -65 l 494 -16 l 494 1074 l 602 1015 l 1134 1015 l 1204 1096 m 342 1123 l 467 1053 q 477 1042 472 1047 q 467 1036 472 1036 q 391 944 418 1020 q 298 765 342 836 l 369 732 q 369 722 380 727 l 331 684 l 331 -119 q 233 -157 288 -152 q 244 423 244 228 l 244 667 q 43 412 179 564 l 27 429 q 293 955 184 673 q 309 1004 298 971 q 342 1123 336 1085 m 787 694 l 787 581 l 1107 581 l 1107 694 l 787 694 m 1107 836 l 787 836 l 787 722 l 1107 722 l 1107 836 m 814 250 q 960 217 895 233 q 1058 385 1015 271 l 890 385 q 846 309 873 358 q 814 250 825 271 z "},"偏":{"ha":1389,"x_min":33,"x_max":1335,"o":"m 1145 -27 q 1188 16 1194 -33 l 1188 244 l 1074 244 l 1074 27 q 993 -5 1020 -5 q 993 244 993 98 l 895 244 l 895 -33 q 808 -65 841 -65 q 814 244 814 0 l 711 244 l 711 -103 q 618 -141 667 -141 q 629 293 629 146 l 629 602 l 727 543 l 1172 543 l 1221 613 l 1324 537 q 1324 526 1335 532 l 1275 483 l 1275 -38 q 1166 -152 1280 -109 q 1150 -141 1150 -157 q 1031 -38 1150 -76 l 1031 -16 l 1145 -27 m 787 1139 q 939 1058 868 1112 q 955 1015 955 1042 q 890 933 949 949 l 1112 933 l 1161 1004 l 1275 928 q 1275 917 1286 917 l 1226 879 l 1226 841 q 1232 749 1226 819 q 1232 656 1232 684 q 1134 629 1194 635 l 1134 700 l 624 700 q 391 -54 629 233 l 369 -38 q 532 770 543 266 l 532 998 l 640 933 l 879 933 q 852 971 857 944 q 776 1134 836 1053 l 787 1139 m 347 1128 l 483 1053 q 494 1047 494 1047 q 483 1036 494 1042 q 401 949 439 1025 q 320 781 363 857 l 380 743 q 380 732 391 743 l 342 700 l 342 -114 q 244 -152 309 -146 q 250 434 250 43 l 250 662 q 49 385 174 526 l 33 396 q 304 966 195 673 q 347 1128 331 1031 m 624 760 l 624 732 l 1134 732 l 1134 901 l 624 901 l 624 760 m 1188 510 l 1074 510 l 1074 277 l 1188 277 l 1188 510 m 814 277 l 814 315 l 814 510 l 711 510 l 711 277 l 814 277 m 998 277 l 998 374 l 998 510 l 895 510 l 895 277 l 998 277 z "},"傈":{"ha":1389,"x_min":33,"x_max":1351,"o":"m 1204 1090 l 1318 987 l 1313 977 l 993 977 l 993 803 l 1101 803 l 1150 873 l 1253 798 q 1253 787 1264 792 l 1210 749 l 1210 673 q 1215 483 1210 543 q 1118 445 1183 450 l 1118 510 l 564 510 l 564 456 q 467 423 532 423 q 467 537 467 456 q 472 700 472 640 l 472 863 l 581 803 l 689 803 l 689 977 l 505 977 l 439 966 l 423 1009 l 1134 1009 l 1204 1090 m 1221 418 l 1335 315 l 1329 298 l 944 298 q 1351 -5 1080 76 l 1345 -27 q 1226 -98 1248 -27 q 906 298 998 27 l 884 298 l 884 244 q 884 -125 884 81 q 781 -157 841 -157 q 781 27 781 -103 q 787 239 787 174 q 358 -109 613 11 l 347 -92 q 716 298 602 103 l 445 298 l 385 293 l 369 331 l 787 331 l 787 499 l 922 445 q 933 439 933 439 q 922 429 933 434 l 884 396 l 884 331 l 1156 331 l 1221 418 m 353 711 l 315 684 l 315 -114 q 212 -152 266 -152 q 222 336 222 65 l 222 646 q 49 385 130 494 l 33 401 q 260 960 163 662 q 304 1123 293 1042 l 439 1047 q 434 1031 450 1042 q 369 960 391 1015 q 315 841 353 917 q 282 760 293 787 l 353 727 q 353 711 363 722 m 564 776 l 564 543 l 689 543 l 689 776 l 564 776 m 1118 776 l 993 776 l 993 543 l 1118 543 l 1118 776 m 776 776 l 776 543 l 901 543 l 901 776 l 776 776 m 776 977 l 776 803 l 901 803 l 901 977 l 776 977 z "},"傣":{"ha":1389,"x_min":38,"x_max":1345,"o":"m 743 1134 l 890 1085 q 890 1074 906 1080 q 841 1015 846 1053 q 841 982 841 1004 q 836 949 836 960 l 1090 949 l 1150 1031 l 1264 933 l 1253 917 l 830 917 q 819 873 825 901 q 798 781 808 814 l 1031 781 l 1090 857 l 1204 765 l 1199 749 l 792 749 q 738 613 770 678 l 1139 613 l 1204 694 l 1324 591 l 1318 581 l 960 581 q 1345 342 1096 401 l 1340 320 q 1226 244 1248 320 q 922 581 1015 347 l 722 581 q 559 363 651 450 q 689 304 651 336 q 722 250 722 282 q 667 179 711 195 q 640 201 651 179 q 548 353 613 288 l 553 358 q 342 201 467 282 l 326 217 q 618 581 537 401 l 439 581 l 380 570 l 363 613 l 635 613 q 684 749 667 678 l 532 749 l 477 743 l 461 781 l 694 781 q 722 917 711 846 l 494 917 l 434 911 l 418 949 l 727 949 q 732 977 727 960 q 732 998 732 993 q 743 1134 743 1063 m 770 33 l 770 146 q 543 5 667 87 q 532 -5 537 0 q 472 -54 505 -27 q 467 -60 472 -54 q 461 -54 467 -65 l 385 33 q 770 184 515 71 l 770 510 l 901 456 q 901 439 911 450 l 863 407 l 863 212 q 1009 380 955 304 l 1101 298 q 1096 282 1112 282 q 1015 260 1047 288 q 863 179 922 201 l 863 168 q 1145 76 1031 130 q 1204 0 1210 49 q 1166 -81 1199 -71 q 1128 -60 1150 -81 q 863 141 1015 60 l 863 -49 q 743 -157 868 -119 q 722 -146 727 -163 q 586 -33 716 -71 l 591 -11 l 716 -27 q 770 33 776 -38 m 315 1123 l 445 1053 q 456 1042 450 1047 q 445 1036 450 1036 q 374 966 401 1025 q 277 760 326 857 l 363 722 q 363 705 374 716 l 320 678 l 320 -114 q 222 -152 271 -157 q 228 11 228 -87 q 228 353 228 81 l 228 673 q 54 429 152 537 l 38 445 q 271 960 163 651 q 315 1123 298 1042 z "},"僳":{"ha":1389,"x_min":33,"x_max":1351,"o":"m 1210 1085 l 1324 987 l 1318 971 l 1004 971 l 1004 830 l 1118 830 l 1166 895 l 1270 825 q 1280 819 1280 819 q 1270 808 1280 814 l 1226 770 l 1226 732 q 1226 640 1226 705 q 1232 543 1232 575 q 1134 505 1199 515 l 1134 570 l 553 570 l 553 532 q 456 494 515 499 q 461 776 461 613 l 461 890 l 570 830 l 689 830 l 689 971 l 510 971 l 445 966 l 429 1009 l 1139 1009 l 1210 1085 m 1215 369 l 1329 266 l 1324 250 l 939 250 q 1351 -5 1090 54 l 1351 -22 q 1237 -98 1248 -33 q 895 250 1009 5 l 879 250 q 879 98 879 212 q 884 -125 884 -60 q 776 -152 846 -146 q 776 11 776 -103 q 781 195 781 136 q 353 -119 613 -5 l 342 -98 q 705 250 581 71 l 439 250 l 374 244 l 358 282 l 781 282 l 781 548 l 922 494 q 933 488 933 488 q 922 477 933 483 l 879 445 l 879 282 l 944 282 q 1004 396 966 320 q 1058 515 1036 461 l 1166 439 q 1161 423 1177 423 q 1090 385 1123 418 q 1042 336 1074 369 q 998 282 1015 298 l 1150 282 l 1215 369 m 353 705 l 315 678 l 315 -114 q 217 -152 277 -146 q 217 22 217 -109 q 222 336 222 228 l 222 646 q 49 380 130 488 l 33 396 q 266 960 195 727 q 304 1123 293 1042 l 439 1053 q 439 1036 450 1047 q 374 966 396 1025 q 277 754 326 852 l 353 722 q 353 705 363 716 m 1134 798 l 1004 798 l 1004 602 l 1134 602 l 1134 798 m 553 798 l 553 602 l 689 602 l 689 798 l 553 798 m 776 798 l 776 602 l 911 602 l 911 798 l 776 798 m 776 971 l 776 830 l 911 830 l 911 971 l 776 971 m 532 494 q 673 418 629 456 q 700 369 700 396 q 635 293 689 309 q 608 326 618 293 q 526 483 591 396 l 532 494 z "},"儋":{"ha":1389,"x_min":33,"x_max":1329,"o":"m 722 1139 l 836 1069 q 830 1053 846 1063 q 765 1020 798 1053 q 754 1009 760 1015 q 738 993 754 1004 l 955 993 l 1015 1047 l 1112 955 q 1112 939 1123 944 l 1047 922 l 933 830 l 1150 830 l 1215 906 l 1329 808 l 1318 792 l 608 792 l 608 586 l 608 553 l 922 553 l 917 564 q 863 684 906 629 l 873 694 q 977 646 933 673 q 1004 597 1004 624 q 977 553 998 570 l 1161 553 l 1221 624 l 1324 537 l 1318 521 l 613 521 l 608 521 q 353 -152 624 54 l 336 -136 q 477 163 445 16 q 515 591 515 309 l 515 765 q 401 678 461 716 l 385 694 q 646 1015 548 863 q 722 1139 689 1074 m 1204 -119 q 1107 -152 1161 -146 l 1107 -54 l 749 -54 l 749 -119 q 651 -152 716 -152 q 656 98 656 -54 l 656 222 l 765 168 l 1090 168 l 1139 233 l 1242 157 q 1242 146 1253 152 l 1199 109 l 1199 81 q 1204 -119 1199 -54 m 353 716 l 315 684 l 315 -109 q 217 -146 277 -146 q 222 396 222 -49 l 222 667 q 49 439 141 532 l 33 450 q 282 971 179 700 q 320 1080 298 1009 q 331 1128 326 1112 l 461 1058 q 456 1042 472 1053 q 391 977 412 1031 q 282 765 342 863 l 353 727 q 353 716 363 722 m 1107 136 l 749 136 l 749 -27 l 1107 -27 l 1107 136 m 960 955 l 711 955 q 597 836 656 890 l 613 830 l 884 830 l 960 955 m 1123 369 l 1226 282 l 1215 271 l 738 271 l 689 260 l 673 298 l 1069 298 l 1123 369 m 1128 488 l 1221 407 l 1215 396 l 738 396 l 689 391 l 673 429 l 1069 429 l 1128 488 m 884 716 q 879 705 890 705 q 798 678 841 705 q 635 597 727 635 l 624 613 q 803 787 738 705 l 884 716 m 966 754 l 971 770 q 1150 716 1090 749 q 1183 678 1183 700 q 1145 608 1177 618 q 1112 629 1123 608 q 966 754 1058 700 z "},"儿":{"ha":1389,"x_min":33,"x_max":1340,"o":"m 890 103 q 982 11 879 0 l 1101 11 q 1215 81 1210 5 l 1259 320 l 1280 315 l 1291 92 q 1340 22 1286 38 q 1166 -92 1302 -98 l 928 -92 q 787 60 787 -92 l 787 1096 l 939 1025 q 944 1015 955 1020 l 890 971 l 890 103 m 445 1090 l 597 1020 q 602 1009 608 1020 l 548 971 l 548 727 q 450 146 553 309 q 43 -152 369 -16 l 33 -136 q 363 184 288 22 q 445 700 445 342 l 445 1090 z "},"元":{"ha":1389,"x_min":54,"x_max":1340,"o":"m 1194 722 l 1324 608 l 1313 597 l 895 597 l 895 65 q 955 11 890 0 l 1107 11 q 1221 81 1210 5 l 1259 266 l 1280 260 l 1286 92 q 1340 16 1286 33 q 1128 -87 1308 -92 l 928 -87 q 787 54 776 -98 l 787 597 l 586 597 l 586 553 q 483 98 591 233 q 65 -152 380 -49 l 54 -130 q 391 136 304 -5 q 477 559 477 277 l 477 597 l 157 597 l 87 586 l 71 629 l 1118 629 l 1194 722 m 1025 1074 l 1156 966 l 1150 955 l 315 955 l 239 944 l 222 987 l 955 987 l 1025 1074 z "},"充":{"ha":1389,"x_min":49,"x_max":1340,"o":"m 814 754 l 825 770 q 1128 608 1004 705 q 1183 521 1183 575 q 1128 429 1177 439 q 1090 461 1112 429 q 1047 526 1074 494 q 873 515 966 526 l 873 76 q 955 -11 863 -22 l 1145 -11 q 1226 65 1215 -16 l 1270 260 l 1286 260 l 1291 71 q 1340 -5 1297 11 q 1188 -109 1297 -114 l 906 -109 q 765 33 765 -114 l 765 505 l 586 488 q 467 54 570 168 q 60 -157 374 -71 l 49 -141 q 483 477 505 22 q 374 467 423 467 q 353 461 369 467 q 282 434 304 450 q 271 434 271 429 l 228 543 q 342 597 298 553 q 586 879 488 722 l 168 879 l 98 868 l 81 911 l 705 911 q 678 939 689 911 q 575 1118 651 1036 l 586 1128 q 749 1053 667 1101 q 781 998 787 1025 q 711 911 770 928 l 1123 911 l 1194 998 l 1318 890 l 1313 879 l 597 879 l 705 798 q 705 781 716 787 q 624 749 678 781 q 363 548 483 629 q 1015 564 711 548 q 814 754 933 662 z "},"光":{"ha":1389,"x_min":43,"x_max":1345,"o":"m 640 1134 l 798 1063 q 798 1053 808 1063 l 749 1015 l 749 581 l 798 581 q 1004 1009 933 808 l 1139 917 q 1134 906 1150 911 q 1058 857 1085 901 q 846 581 966 711 l 1139 581 l 1215 678 l 1340 559 l 1335 548 l 879 548 l 879 81 q 966 -5 868 -16 l 1139 -5 q 1221 71 1210 -11 l 1264 271 l 1280 266 l 1291 76 q 1345 0 1297 11 q 1194 -109 1313 -114 l 911 -109 q 776 33 770 -114 l 776 548 l 581 548 q 461 87 570 217 q 54 -152 363 -54 l 43 -130 q 472 548 488 54 l 152 548 l 76 537 l 54 581 l 640 581 l 640 1134 m 277 993 q 488 825 396 917 q 521 743 521 787 q 445 640 510 662 q 412 673 423 640 q 266 977 374 836 l 277 993 z "},"克":{"ha":1389,"x_min":60,"x_max":1335,"o":"m 1194 998 l 1318 890 l 1313 879 l 749 879 l 749 705 l 949 705 l 1009 781 l 1118 700 q 1128 694 1128 694 q 1118 684 1128 689 l 1069 646 l 1069 591 q 1074 450 1069 548 q 1074 326 1074 363 q 971 288 1025 288 l 971 369 l 873 369 l 873 76 q 955 -11 863 -22 l 1139 -11 q 1226 65 1210 -16 l 1264 266 l 1286 260 l 1291 71 q 1335 -5 1291 16 q 1183 -109 1308 -109 l 906 -109 q 770 27 770 -109 l 770 369 l 629 369 q 65 -157 635 -103 l 60 -136 q 526 369 537 -5 l 423 369 l 423 304 q 320 260 380 260 q 326 456 320 326 q 326 613 326 564 l 326 765 l 445 705 l 646 705 l 646 879 l 179 879 l 103 873 l 87 911 l 646 911 l 646 1134 l 798 1063 q 798 1053 814 1058 l 749 1015 l 749 911 l 1123 911 l 1194 998 m 971 667 l 423 667 l 423 401 l 971 401 l 971 667 z "},"兖":{"ha":1389,"x_min":54,"x_max":1324,"o":"m 781 591 l 792 602 q 1063 450 977 526 q 1096 391 1096 429 q 1036 304 1090 315 q 1004 331 1020 304 q 971 380 987 358 q 873 369 944 380 q 857 369 922 380 l 857 43 q 917 -11 857 -11 l 1096 -11 q 1204 54 1199 -16 l 1248 239 l 1264 239 l 1275 71 q 1324 -5 1275 11 q 1118 -109 1297 -114 l 895 -109 q 749 33 738 -119 l 749 358 q 602 342 678 353 q 60 -152 608 -92 l 54 -136 q 494 331 494 -5 q 456 326 477 326 q 353 293 401 315 q 342 298 342 282 l 298 412 q 401 461 353 418 q 646 754 564 608 l 760 662 q 760 651 770 656 q 673 608 711 646 q 418 401 521 477 q 949 412 597 401 q 781 591 884 505 m 1183 1015 l 1318 895 l 1313 884 l 179 884 l 103 879 l 87 917 l 694 917 q 667 949 678 917 q 570 1123 635 1058 l 575 1139 q 738 1058 684 1107 q 770 1004 770 1042 q 700 917 760 944 l 1107 917 l 1183 1015 m 434 841 l 543 749 q 548 743 548 743 q 537 732 548 738 q 450 700 499 732 q 81 477 298 575 l 71 499 q 434 841 326 684 m 868 814 q 1210 651 1096 738 q 1248 586 1248 629 q 1194 494 1237 510 q 1150 526 1172 494 q 857 798 1053 673 l 868 814 z "},"全":{"ha":1389,"x_min":49,"x_max":1351,"o":"m 993 374 l 1118 266 l 1112 255 l 732 255 l 732 -11 l 1112 -11 l 1183 87 l 1313 -27 l 1302 -43 l 179 -43 l 98 -49 l 81 -11 l 624 -11 l 624 255 l 374 255 l 304 250 l 288 288 l 624 288 l 624 532 l 374 532 l 298 526 l 282 564 l 884 564 l 949 646 l 1069 543 l 1063 532 l 732 532 l 732 288 l 928 288 l 993 374 m 49 467 q 559 966 374 694 q 629 1085 586 1004 q 651 1128 646 1112 l 787 1058 q 787 1042 798 1053 q 727 1015 754 1031 q 1351 608 960 727 l 1345 586 q 1210 515 1242 591 q 705 993 879 673 q 700 982 705 987 q 689 966 694 971 q 60 445 472 635 l 49 467 z "},"八":{"ha":1389,"x_min":43,"x_max":1340,"o":"m 472 884 l 635 803 q 629 792 651 792 q 570 732 575 765 q 60 -136 488 174 l 43 -114 q 472 884 434 271 m 727 1069 l 846 1020 q 846 1004 857 1015 l 803 966 q 1340 -27 852 217 l 1335 -49 q 1166 -98 1199 -22 q 727 1069 765 217 z "},"公":{"ha":1389,"x_min":71,"x_max":1329,"o":"m 808 320 q 1090 81 977 217 q 1134 -5 1139 38 q 1063 -119 1123 -98 q 1025 -87 1042 -119 q 982 22 1009 -27 q 944 16 971 22 q 391 -60 521 -33 q 369 -65 385 -60 q 282 -92 304 -76 q 266 -87 271 -92 l 222 43 q 347 109 304 43 q 635 640 537 369 l 770 553 q 770 537 781 548 q 700 488 727 537 q 358 38 526 212 q 955 71 684 49 q 792 304 906 163 l 808 320 m 754 1118 l 873 1080 q 879 1063 890 1074 l 836 1031 q 1329 515 944 646 l 1324 499 q 1177 423 1204 499 q 754 1118 857 613 m 488 1074 l 624 993 q 618 977 635 987 q 548 906 570 960 q 81 358 385 559 l 71 374 q 434 911 309 629 q 488 1074 467 993 z "},"六":{"ha":1389,"x_min":54,"x_max":1335,"o":"m 477 570 l 635 477 q 640 467 640 472 q 624 461 635 461 q 543 396 570 450 q 71 -114 347 76 l 54 -98 q 423 434 271 130 q 477 570 461 505 m 781 564 q 1248 109 1080 336 q 1275 27 1275 65 q 1194 -87 1259 -60 q 1150 -43 1166 -92 q 760 548 1053 233 l 781 564 m 510 1101 q 732 966 635 1053 q 770 890 776 939 q 694 781 754 803 q 656 819 662 781 q 499 1090 608 971 l 510 1101 m 1194 841 l 1335 711 l 1324 700 l 157 700 l 81 689 l 65 732 l 1118 732 l 1194 841 z "},"兰":{"ha":1389,"x_min":60,"x_max":1324,"o":"m 1118 836 l 1253 722 l 1248 711 l 255 711 l 179 700 l 163 743 l 743 743 q 911 1128 846 939 l 1053 1031 q 1047 1020 1063 1020 q 971 966 1004 1015 q 798 743 879 830 l 1042 743 l 1118 836 m 1183 71 l 1324 -49 l 1318 -65 l 152 -65 l 76 -71 l 60 -27 l 1101 -27 l 1183 71 m 1020 472 l 1150 358 l 1145 347 l 342 347 l 266 336 l 250 380 l 949 380 l 1020 472 m 353 1101 q 559 960 488 1025 q 602 884 602 928 q 526 776 591 798 q 494 803 505 776 q 342 1090 445 966 l 353 1101 z "},"共":{"ha":1389,"x_min":49,"x_max":1335,"o":"m 1161 879 l 1286 765 l 1280 754 l 944 754 l 944 353 l 1128 353 l 1210 445 l 1335 331 l 1329 320 l 157 320 l 81 309 l 65 353 l 434 353 l 434 754 l 217 754 l 141 743 l 125 787 l 434 787 l 434 1134 l 586 1063 q 586 1053 597 1058 l 537 1015 l 537 787 l 841 787 l 841 1134 l 993 1063 q 993 1053 1004 1058 l 944 1015 l 944 787 l 1085 787 l 1161 879 m 537 754 l 537 353 l 841 353 l 841 754 l 537 754 m 499 277 l 618 168 q 613 152 624 157 q 515 109 564 152 q 60 -152 304 -65 l 49 -136 q 423 174 271 11 q 499 277 472 228 m 803 250 q 1188 38 1031 157 q 1232 -38 1226 11 q 1166 -146 1226 -130 q 1128 -114 1150 -146 q 792 228 1004 76 l 803 250 z "},"关":{"ha":1389,"x_min":49,"x_max":1351,"o":"m 1118 873 l 1248 760 l 1242 749 l 727 749 q 705 439 727 564 l 1118 439 l 1194 537 l 1329 423 l 1318 407 l 749 407 q 1351 -27 901 49 l 1345 -54 q 1204 -136 1232 -54 q 711 407 819 -5 l 700 407 q 60 -152 646 -27 l 49 -136 q 586 407 526 49 l 163 407 l 87 401 l 71 439 l 591 439 q 624 749 618 532 l 250 749 l 168 738 l 152 781 l 722 781 q 890 1134 814 933 l 1020 1047 q 1025 1036 1025 1036 q 1015 1031 1020 1031 q 939 977 971 1025 q 776 781 873 890 l 1047 781 l 1118 873 m 358 1112 q 559 987 483 1053 q 597 917 597 960 q 521 825 581 846 q 488 857 499 825 q 347 1096 450 987 l 358 1112 z "},"兴":{"ha":1389,"x_min":54,"x_max":1329,"o":"m 1199 510 l 1329 391 l 1324 380 l 157 380 l 87 374 l 71 412 l 792 412 q 1036 911 949 667 q 1085 1058 1063 987 l 1226 971 q 1226 955 1237 960 q 1161 906 1177 949 q 846 412 998 581 l 1123 412 l 1199 510 m 798 320 q 1226 49 1058 195 q 1264 -27 1264 16 q 1199 -141 1253 -125 q 1156 -103 1177 -141 q 787 304 1015 125 l 798 320 m 488 353 l 613 255 q 618 244 618 250 q 608 239 618 239 q 521 190 570 239 q 65 -152 293 -33 l 54 -130 q 391 217 266 38 q 488 353 450 288 m 694 570 q 662 613 673 570 q 526 1112 646 852 l 543 1123 q 776 732 711 911 q 781 716 776 727 q 787 673 787 694 q 694 570 770 591 m 418 505 q 385 548 391 499 q 206 998 331 792 l 217 1009 q 483 678 396 836 q 488 656 483 673 q 499 608 499 629 q 418 505 488 526 z "},"兵":{"ha":1389,"x_min":49,"x_max":1335,"o":"m 1101 776 l 1226 667 l 1221 656 l 895 656 l 895 315 l 1123 315 l 1194 412 l 1335 298 l 1324 282 l 146 282 l 71 277 l 54 315 l 342 315 l 342 1009 l 461 949 q 944 1053 781 1004 q 1058 1101 1025 1085 l 1150 993 q 1139 977 1156 977 q 1025 977 1101 987 q 1009 977 1015 977 q 445 911 743 933 l 445 689 l 1025 689 l 1101 776 m 445 656 l 445 315 l 787 315 l 787 656 l 445 656 m 787 201 q 1183 43 1020 146 q 1259 -54 1253 0 q 1199 -152 1253 -141 q 1161 -125 1183 -157 q 776 184 1009 54 l 787 201 m 505 239 l 618 136 q 608 125 629 125 q 532 98 575 130 q 60 -157 320 -71 l 49 -141 q 418 136 233 -27 q 505 239 472 195 z "},"其":{"ha":1389,"x_min":60,"x_max":1340,"o":"m 1210 320 l 1340 206 l 1335 195 l 152 195 l 76 190 l 60 228 l 396 228 l 396 852 l 184 852 l 109 846 l 92 884 l 396 884 l 396 1128 l 548 1058 q 548 1047 564 1058 l 499 1009 l 499 884 l 884 884 l 884 1128 l 1036 1063 q 1036 1047 1047 1058 l 987 1015 l 987 884 l 1118 884 l 1183 971 l 1308 863 l 1302 852 l 987 852 l 987 228 l 1134 228 l 1210 320 m 499 635 l 499 445 l 884 445 l 884 635 l 499 635 m 499 852 l 499 667 l 884 667 l 884 852 l 499 852 m 499 412 l 499 228 l 884 228 l 884 412 l 499 412 m 488 157 l 602 65 q 597 49 608 54 q 510 22 553 49 q 125 -168 358 -81 l 109 -146 q 488 157 369 5 m 825 136 q 1166 5 1058 65 q 1215 -76 1215 -27 q 1161 -157 1210 -141 q 1123 -136 1139 -157 q 814 114 1015 0 l 825 136 z "},"冀":{"ha":1389,"x_min":49,"x_max":1340,"o":"m 1210 201 l 1340 98 l 1335 87 l 141 87 l 65 81 l 49 119 l 450 119 l 450 250 l 222 250 l 146 239 l 130 277 l 450 277 l 450 396 l 380 396 l 380 374 q 282 342 347 342 q 282 494 282 391 q 288 673 288 613 l 288 760 l 396 705 l 987 705 l 1031 765 l 1139 700 q 1139 684 1150 694 l 1096 646 l 1096 581 q 1101 380 1096 445 q 1004 347 1069 347 l 1004 396 l 922 396 l 922 277 l 1080 277 l 1145 358 l 1264 260 l 1259 250 l 922 250 l 922 119 l 1145 119 l 1210 201 m 857 917 q 933 846 841 830 l 1145 846 q 1242 895 1237 841 l 1270 982 l 1291 977 l 1297 901 q 1340 852 1297 857 q 1199 765 1308 765 l 890 765 q 765 879 760 760 l 765 1123 l 901 1069 q 901 1053 911 1063 l 857 1025 l 857 955 q 1080 1036 987 998 q 1177 1085 1139 1063 l 1248 993 q 1242 982 1253 982 q 1156 977 1204 993 q 1047 955 1118 971 q 857 917 993 944 m 499 1123 l 629 1069 q 629 1058 640 1063 l 597 1025 l 597 792 q 494 760 548 760 q 499 863 499 814 q 385 830 461 852 q 206 770 233 787 q 136 738 174 760 q 119 727 125 732 q 109 727 109 722 l 54 830 q 499 890 190 841 l 499 955 l 499 971 l 179 971 l 130 966 l 109 1004 l 499 1004 l 499 1123 m 548 250 l 548 119 l 830 119 l 830 250 l 548 250 m 808 65 q 1199 -16 1053 38 q 1253 -92 1248 -38 q 1210 -163 1248 -157 q 1172 -141 1194 -163 q 803 43 1047 -33 l 808 65 m 488 87 l 586 -5 q 591 -16 591 -11 q 581 -22 591 -22 q 488 -38 543 -11 q 81 -163 277 -136 l 71 -146 q 488 87 347 -33 m 548 396 l 548 277 l 830 277 l 830 396 l 548 396 m 1004 673 l 738 673 l 738 564 l 1004 564 l 1004 673 m 738 537 l 738 423 l 1004 423 l 1004 537 l 738 537 m 380 537 l 380 423 l 640 423 l 640 537 l 380 537 m 380 673 l 380 564 l 640 564 l 640 673 l 380 673 z "},"内":{"ha":1389,"x_min":184,"x_max":1253,"o":"m 1085 54 l 1085 787 l 738 787 q 705 581 732 673 q 993 396 857 510 q 1031 320 1031 363 q 966 217 1020 233 q 928 255 944 217 q 700 553 857 401 q 315 146 635 309 l 304 168 q 635 787 618 385 l 298 787 l 298 -114 q 184 -157 255 -152 q 195 434 195 98 l 195 884 l 326 819 l 640 819 q 640 890 640 852 q 646 1134 646 922 l 792 1074 q 792 1058 803 1069 l 749 1025 q 743 911 749 987 q 743 819 743 846 l 1063 819 l 1118 901 l 1242 814 q 1242 798 1253 808 l 1188 760 l 1188 -27 q 1047 -152 1194 -103 q 1020 -141 1025 -157 q 841 -11 1025 -49 l 846 11 l 1015 -5 q 1085 54 1090 -22 z "},"冈":{"ha":1389,"x_min":184,"x_max":1264,"o":"m 190 1063 l 315 998 l 1080 998 l 1139 1074 l 1253 993 q 1253 977 1264 987 l 1204 933 l 1204 -27 q 1058 -146 1210 -103 q 1036 -141 1042 -157 q 852 -11 1042 -54 l 857 11 l 1031 -5 q 1096 54 1101 -16 l 1096 960 l 293 960 l 293 -119 q 184 -157 233 -157 q 190 27 190 -81 q 190 369 190 114 l 190 1063 m 857 884 l 982 798 q 993 787 993 792 q 982 781 993 781 q 917 732 928 765 q 776 499 846 602 q 933 331 873 407 q 971 244 971 282 q 911 141 960 163 q 873 179 890 141 q 792 326 841 255 q 749 380 781 342 q 716 429 727 412 q 331 103 570 244 l 320 125 q 662 494 543 320 q 391 792 548 635 l 401 808 q 705 559 564 694 q 814 754 765 656 q 825 776 819 760 q 857 884 846 841 z "},"册":{"ha":1389,"x_min":33,"x_max":1345,"o":"m 591 0 q 472 -109 591 -76 q 450 -98 456 -119 q 326 11 456 -33 l 331 27 l 445 16 q 494 71 499 0 l 494 526 l 331 526 q 49 -152 336 76 l 33 -136 q 233 526 228 109 l 152 526 l 76 515 l 60 559 l 233 559 q 233 646 233 602 l 233 1074 l 353 1015 l 477 1015 l 526 1085 l 640 1009 q 640 993 651 1004 l 591 955 l 591 559 l 749 559 l 749 629 l 749 1074 l 868 1015 l 1015 1015 l 1069 1085 l 1177 1009 q 1177 993 1188 1004 l 1134 955 l 1134 559 l 1156 559 l 1221 651 l 1345 537 l 1340 526 l 1134 526 l 1134 -33 q 1004 -152 1139 -103 q 982 -141 987 -157 q 836 -27 982 -65 l 841 -5 l 977 -22 q 1036 33 1042 -38 l 1036 526 l 846 526 q 781 109 841 233 q 553 -157 738 -16 l 537 -141 q 749 526 754 60 l 591 526 l 591 0 m 846 618 l 846 559 l 1036 559 l 1036 982 l 846 982 l 846 618 m 331 635 q 331 559 331 597 l 494 559 l 494 982 l 331 982 l 331 635 z "},"冕":{"ha":1389,"x_min":54,"x_max":1324,"o":"m 906 814 l 1015 722 l 1004 711 l 543 711 l 624 656 q 618 640 629 646 q 543 597 575 629 l 532 586 l 787 586 l 846 646 l 955 543 q 949 526 960 537 l 879 515 l 765 434 l 1015 434 l 1063 499 l 1177 429 q 1177 412 1188 423 l 1128 374 l 1128 342 q 1134 168 1128 250 q 1031 136 1090 141 l 1031 206 l 841 206 l 841 22 q 890 -27 836 -38 l 1145 -27 q 1221 33 1204 -33 l 1259 174 l 1280 168 l 1286 38 q 1324 -22 1280 -11 q 1183 -119 1291 -125 l 868 -119 q 738 5 732 -125 l 738 206 l 694 206 q 60 -163 613 -76 l 54 -146 q 586 206 494 -16 l 380 206 l 380 152 q 271 125 336 125 q 277 179 271 146 q 282 385 282 288 q 76 271 217 342 l 65 288 q 439 618 304 461 q 445 624 439 618 q 505 711 488 678 l 456 711 l 391 705 l 374 743 l 846 743 l 906 814 m 1047 998 l 331 998 l 331 689 q 228 651 298 651 q 233 955 233 732 l 233 1085 l 347 1025 l 1025 1025 l 1080 1096 l 1194 1020 q 1194 1009 1204 1020 l 1145 971 l 1145 917 q 1150 705 1145 781 q 1047 673 1112 673 l 1047 998 m 1031 401 l 743 401 q 705 239 727 304 l 1031 239 l 1031 401 m 597 239 q 635 401 624 304 l 380 401 l 380 239 l 597 239 m 787 548 l 494 548 q 363 445 429 494 l 385 434 l 700 434 l 787 548 m 884 955 l 982 868 l 977 852 l 483 852 l 418 846 l 401 884 l 830 884 l 884 955 z "},"军":{"ha":1389,"x_min":49,"x_max":1340,"o":"m 1204 271 l 1340 152 l 1335 141 l 760 141 q 760 16 760 103 q 765 -119 765 -76 q 651 -157 732 -152 q 651 -16 651 -114 q 656 141 656 92 l 141 141 l 71 130 l 49 174 l 656 174 l 656 239 l 656 380 l 391 380 l 331 331 l 250 418 q 250 434 244 429 l 293 456 q 467 716 363 537 l 288 716 l 212 705 l 195 749 l 483 749 q 543 857 515 798 q 597 977 581 928 l 244 977 q 244 933 250 960 q 244 911 244 917 q 152 798 228 808 q 87 846 92 803 q 103 879 87 863 q 212 1080 195 949 l 228 1080 q 239 1047 233 1069 q 244 1009 244 1020 l 1145 1009 l 1204 1080 l 1324 971 q 1318 960 1340 960 l 1264 949 l 1107 841 l 1090 857 l 1150 977 l 618 977 l 727 901 q 727 884 738 895 l 673 863 q 635 798 662 841 q 602 749 613 765 l 993 749 l 1063 841 l 1194 727 l 1183 716 l 581 716 q 380 412 456 510 l 656 412 l 656 673 l 808 613 q 808 602 819 613 l 760 564 l 760 412 l 977 412 l 1047 499 l 1172 391 l 1166 380 l 760 380 l 760 239 l 760 174 l 1128 174 l 1204 271 z "},"农":{"ha":1389,"x_min":49,"x_max":1351,"o":"m 656 1134 l 803 1063 q 803 1053 814 1058 q 738 987 743 1025 q 694 852 722 917 l 1096 852 l 1166 917 l 1286 798 q 1280 781 1291 787 l 1210 776 l 1036 656 l 1020 667 l 1107 819 l 711 819 q 857 391 770 532 q 1118 635 1020 515 l 1210 526 q 1204 510 1215 515 q 1118 488 1161 510 q 971 407 1069 461 q 879 353 906 369 q 1351 5 1009 125 l 1351 -16 q 1210 -92 1237 -11 q 678 803 727 136 q 526 494 613 635 l 559 477 q 559 467 575 477 l 526 434 l 526 5 l 814 157 l 825 136 q 716 49 781 103 q 575 -54 656 5 q 477 -163 499 -119 q 456 -163 472 -174 l 380 -54 q 418 27 423 -33 l 418 353 q 65 54 293 206 l 49 76 q 418 494 298 288 l 418 543 l 445 532 q 575 819 521 662 l 277 819 q 282 792 282 803 q 168 613 277 624 q 109 667 114 618 q 125 700 109 684 q 239 922 228 770 l 255 922 q 277 863 266 906 q 277 852 277 857 l 586 852 q 608 917 597 873 q 629 982 624 960 q 656 1134 646 1058 z "},"冠":{"ha":1389,"x_min":38,"x_max":1335,"o":"m 629 618 l 743 510 l 732 499 l 575 499 l 575 38 q 640 -16 570 -22 l 1134 -16 q 1221 54 1215 -22 l 1259 239 l 1280 239 l 1286 65 q 1335 -11 1286 11 q 1156 -114 1308 -119 l 608 -114 q 477 16 472 -125 l 477 499 l 369 499 l 369 456 q 304 76 369 190 q 49 -152 244 -49 l 38 -136 q 222 103 179 -16 q 271 461 271 222 l 271 499 l 168 499 l 103 488 l 87 532 l 559 532 l 629 618 m 1232 722 l 1335 624 l 1329 613 l 1118 613 l 1118 141 q 993 33 1123 76 q 971 43 977 27 q 836 152 971 114 l 841 174 l 966 157 q 1020 212 1025 146 l 1020 613 l 792 613 l 743 608 l 727 646 l 1020 646 l 1020 879 l 1156 819 q 1166 814 1166 819 q 1156 803 1166 814 l 1118 770 l 1118 646 l 1172 646 l 1232 722 m 239 917 q 146 803 222 814 q 81 846 87 803 q 98 884 81 868 q 206 1080 190 944 l 222 1080 q 239 1015 233 1047 l 1139 1015 l 1199 1080 l 1318 977 q 1313 966 1324 966 l 1253 955 l 1123 846 l 1107 857 l 1150 982 l 244 982 q 239 917 244 949 m 575 857 l 700 754 l 689 743 l 266 743 l 206 732 l 190 776 l 515 776 l 575 857 m 770 521 q 901 407 846 472 q 917 358 917 385 q 852 277 906 288 q 825 309 830 277 q 760 510 814 418 l 770 521 z "},"冬":{"ha":1389,"x_min":43,"x_max":1345,"o":"m 499 1134 l 635 1053 q 635 1036 646 1042 q 553 977 581 1031 q 537 949 548 971 q 521 922 526 933 l 906 922 l 971 987 l 1090 879 q 1085 863 1096 873 l 1020 841 q 776 586 895 684 q 1345 391 966 456 l 1340 369 q 1199 282 1237 363 q 705 526 873 380 q 54 244 505 369 l 43 266 q 635 591 434 423 q 467 852 537 700 q 119 521 320 656 l 109 537 q 445 1004 304 749 q 456 1031 450 1015 q 499 1134 494 1101 m 911 890 l 494 890 q 494 884 494 884 q 700 646 597 727 q 911 890 787 727 m 347 152 q 884 16 640 109 q 939 -71 939 -22 q 895 -157 933 -152 q 846 -130 879 -157 q 336 136 662 22 l 347 152 m 586 407 q 776 309 705 358 q 808 244 808 277 q 743 152 798 168 q 711 184 722 152 q 575 391 673 293 l 586 407 z "},"冲":{"ha":1389,"x_min":81,"x_max":1297,"o":"m 808 1134 l 960 1063 q 960 1053 971 1058 l 911 1009 l 911 792 l 1118 792 l 1172 868 l 1286 787 q 1286 776 1297 781 l 1237 732 l 1237 667 q 1242 320 1237 515 q 1134 277 1194 282 l 1134 369 l 911 369 q 917 -114 911 71 q 798 -152 873 -146 q 803 109 803 -65 q 808 369 808 271 l 581 369 l 581 277 q 472 239 532 239 q 477 358 472 282 q 483 700 483 537 l 483 852 l 602 792 l 808 792 l 808 1134 m 911 477 l 911 401 l 1134 401 l 1134 760 l 911 760 l 911 477 m 808 401 l 808 521 l 808 760 l 581 760 l 581 401 l 808 401 m 445 949 l 467 939 l 304 418 q 277 288 277 331 q 293 130 277 239 q 304 16 304 71 q 266 -38 304 -38 q 179 16 206 -27 q 174 22 179 16 q 174 38 168 33 q 190 239 190 141 q 81 347 201 320 l 81 363 q 130 358 98 363 q 168 358 157 358 q 217 396 201 353 l 445 949 m 109 1020 q 277 906 217 966 q 304 846 304 879 q 233 749 293 770 q 201 787 212 749 q 98 1004 168 911 l 109 1020 z "},"冶":{"ha":1389,"x_min":71,"x_max":1291,"o":"m 1172 -109 q 1063 -146 1123 -141 l 1063 -11 l 662 -11 l 662 -114 q 553 -152 613 -152 q 559 60 559 -43 q 559 342 559 141 l 559 477 l 673 418 l 1042 418 l 1096 494 l 1215 412 q 1215 401 1226 407 l 1166 353 l 1166 239 q 1172 -109 1166 92 m 1063 385 l 662 385 l 662 22 l 1063 22 l 1063 385 m 787 1150 l 922 1063 q 917 1053 928 1058 q 841 993 873 1042 q 575 667 705 798 q 1058 689 694 667 q 1123 694 1101 694 q 993 890 1074 792 l 1004 906 q 1264 684 1161 798 q 1291 602 1291 651 q 1226 510 1286 526 q 1194 543 1204 510 q 1145 651 1172 602 q 597 575 960 635 q 499 543 543 570 q 488 548 494 532 l 445 667 q 543 722 505 667 q 727 1009 640 836 q 776 1123 754 1058 q 787 1150 781 1139 m 445 922 l 472 911 l 298 391 q 271 266 271 315 q 282 109 271 184 q 298 -5 298 27 q 260 -60 298 -60 q 163 -5 201 -49 q 163 5 163 0 q 163 16 157 11 q 179 217 179 119 q 71 320 190 298 l 71 336 q 157 336 109 336 q 206 374 190 326 l 445 922 m 125 1020 q 304 895 244 955 q 326 841 326 873 q 255 743 315 765 q 222 781 233 743 q 114 1004 184 901 l 125 1020 z "},"冷":{"ha":1389,"x_min":43,"x_max":1351,"o":"m 754 1134 l 890 1063 q 890 1047 901 1058 q 852 1031 868 1042 q 1351 602 1036 700 l 1340 581 q 1215 505 1242 591 q 825 1009 944 667 q 825 1004 825 1009 q 819 993 819 998 q 353 439 640 635 l 336 456 q 700 987 559 689 q 754 1134 732 1058 m 586 212 q 830 98 684 179 l 993 385 l 559 385 l 488 380 l 472 418 l 982 418 l 1047 488 l 1166 374 q 1161 358 1177 369 l 1096 336 l 868 71 q 901 54 879 65 q 939 27 928 33 q 982 -60 982 -11 q 917 -157 971 -141 q 879 -119 901 -157 q 575 195 798 27 l 586 212 m 434 955 l 461 944 l 271 423 q 250 293 244 353 q 260 136 250 212 q 277 22 277 54 q 233 -33 277 -33 q 141 22 174 -22 q 136 43 136 38 q 157 244 157 184 q 43 353 168 326 l 49 369 q 87 369 60 369 q 136 363 119 363 q 179 401 163 358 l 434 955 m 92 1009 q 125 987 103 1004 q 260 890 228 928 q 288 836 288 868 q 217 738 277 760 q 184 776 195 738 q 81 993 157 895 l 92 1009 m 705 727 q 863 629 803 673 q 895 564 895 597 q 819 483 879 499 q 787 515 798 483 q 694 716 765 618 l 705 727 z "},"准":{"ha":1389,"x_min":81,"x_max":1335,"o":"m 1210 109 l 1335 0 l 1329 -11 l 640 -11 l 640 -119 q 532 -157 591 -157 q 543 260 543 33 l 543 673 q 380 450 450 532 l 358 467 q 591 982 494 694 q 618 1080 608 1025 q 629 1112 624 1101 l 760 1042 q 760 1025 770 1031 q 689 955 711 1015 q 678 933 684 944 q 646 863 662 911 l 1128 863 l 1199 944 l 1313 846 l 1302 830 l 977 830 l 977 597 l 1101 597 l 1166 673 l 1270 575 l 1264 564 l 977 564 l 977 320 l 1101 320 l 1161 396 l 1270 304 l 1264 288 l 977 288 l 977 22 l 1139 22 l 1210 109 m 439 933 l 467 922 l 298 391 q 271 266 271 315 q 282 109 271 184 q 298 -5 298 27 q 260 -60 298 -60 q 174 -5 201 -49 q 168 16 168 5 q 190 212 190 146 q 81 320 201 298 l 81 336 q 163 331 125 336 q 212 374 201 326 l 439 933 m 640 288 l 640 22 l 873 22 l 873 288 l 640 288 m 640 564 l 640 320 l 873 320 l 873 564 l 640 564 m 640 830 l 640 597 l 873 597 l 873 830 l 640 830 m 114 1009 q 271 917 222 960 q 315 846 320 884 q 250 754 304 776 q 217 792 228 754 q 103 998 184 901 l 114 1009 m 830 1118 q 971 1025 911 1080 q 1004 971 1004 1004 q 939 884 993 906 q 901 922 911 879 q 819 1107 879 1020 l 830 1118 z "},"凉":{"ha":1389,"x_min":65,"x_max":1324,"o":"m 879 -33 q 749 -152 890 -114 q 727 -146 727 -163 q 570 -33 727 -60 l 575 -11 l 716 -22 q 781 38 787 -38 l 781 412 l 608 412 l 608 363 q 505 326 570 326 q 510 618 510 391 l 510 770 l 624 711 l 1025 711 l 1074 776 l 1183 705 q 1183 689 1194 700 l 1139 651 l 1139 559 q 1145 374 1139 418 q 1042 342 1090 342 l 1042 412 l 879 412 l 879 -33 m 1042 673 l 608 673 l 608 445 l 1042 445 l 1042 673 m 391 825 l 412 814 l 282 418 q 260 293 255 353 q 271 136 260 206 q 288 22 288 54 q 244 -33 288 -33 q 157 22 179 -22 q 152 43 152 27 q 174 239 174 174 q 65 347 184 320 l 65 363 q 152 358 103 363 q 201 401 184 358 l 391 825 m 711 1134 q 863 1047 803 1101 q 901 982 901 1020 q 836 901 890 917 l 1134 901 l 1199 982 l 1324 879 l 1313 863 l 461 863 l 396 857 l 380 901 l 819 901 q 792 933 803 901 q 705 1123 770 1036 l 711 1134 m 982 260 q 1248 103 1150 190 q 1291 38 1291 71 q 1232 -60 1286 -49 q 1194 -27 1215 -60 q 971 239 1107 136 l 982 260 m 564 288 l 678 201 q 673 184 689 195 q 586 136 635 190 q 320 -71 445 5 l 304 -49 q 494 168 423 65 q 564 288 532 222 m 114 1020 q 282 906 228 966 q 304 852 304 884 q 233 749 293 770 q 201 792 212 749 q 103 1009 168 922 l 114 1020 z "},"凌":{"ha":1389,"x_min":54,"x_max":1356,"o":"m 711 532 l 825 467 q 836 461 836 461 q 825 450 836 456 q 749 396 781 445 l 971 396 l 1031 456 l 1134 369 q 1134 353 1145 358 l 1080 326 q 901 98 993 174 q 1356 -49 1074 -11 l 1351 -71 q 1226 -152 1248 -71 q 836 43 966 -81 q 320 -152 651 -98 l 315 -130 q 776 109 597 -38 q 662 293 711 184 q 407 71 553 168 l 391 87 q 629 391 510 206 q 700 515 662 434 q 711 532 705 526 m 1199 819 l 1318 711 l 1313 700 l 494 700 l 423 689 l 407 732 l 781 732 l 781 895 l 586 895 l 515 890 l 499 933 l 781 933 l 781 1139 l 928 1074 q 928 1063 939 1069 l 884 1031 l 884 933 l 1042 933 l 1107 1009 l 1226 911 l 1215 895 l 884 895 l 884 732 l 1128 732 l 1199 819 m 423 911 l 450 901 l 277 407 q 250 282 250 331 q 266 125 250 201 q 271 76 266 109 q 277 11 277 27 q 239 -43 277 -43 q 146 11 184 -33 q 146 16 146 11 q 146 33 141 27 q 163 228 163 130 q 54 336 168 309 l 54 358 q 141 353 103 353 q 190 391 163 336 l 423 911 m 982 363 l 722 363 q 689 320 705 336 q 830 157 749 222 q 982 363 917 244 m 640 667 l 743 586 q 738 575 754 575 q 656 532 711 570 q 358 326 526 418 l 342 347 q 559 559 456 445 q 591 602 570 575 q 640 667 608 624 m 1221 380 q 1177 407 1199 380 q 928 629 1074 537 l 939 646 q 1221 532 1128 586 q 1264 467 1264 505 q 1221 380 1259 396 m 92 1015 q 277 895 201 955 q 304 836 309 873 q 233 738 293 754 q 201 781 217 738 q 81 1004 174 879 l 92 1015 z "},"凤":{"ha":1389,"x_min":43,"x_max":1340,"o":"m 222 1080 l 347 1015 l 966 1015 l 1020 1090 l 1139 1009 q 1150 1004 1150 1004 q 1139 993 1150 998 l 1090 955 l 1090 586 q 1215 60 1090 190 q 1232 49 1221 49 q 1242 65 1237 54 l 1308 260 l 1324 255 l 1308 49 q 1340 -98 1286 -38 q 1291 -114 1324 -114 q 1090 43 1177 -103 q 987 602 987 239 l 987 982 l 326 982 l 326 635 q 271 168 326 320 q 60 -141 222 16 l 43 -130 q 184 195 152 27 q 222 667 222 358 l 222 1080 m 798 873 l 906 781 q 906 765 917 776 l 857 732 q 727 429 792 553 q 770 385 743 412 q 895 255 819 342 q 928 163 928 206 q 863 65 917 76 q 830 98 841 71 q 760 239 808 146 q 749 250 760 228 q 678 353 711 304 q 293 16 564 174 l 277 33 q 618 429 494 206 q 429 656 537 537 l 439 673 q 618 526 505 618 q 656 494 646 505 q 754 770 716 618 l 472 770 l 412 765 l 396 803 l 743 803 l 798 873 z "},"凭":{"ha":1389,"x_min":43,"x_max":1340,"o":"m 933 43 q 987 -11 928 -16 l 1139 -11 q 1221 60 1210 -16 l 1259 233 l 1280 228 l 1291 71 q 1340 0 1291 16 q 1139 -109 1308 -114 l 955 -109 q 825 33 819 -114 l 825 282 l 532 282 l 532 271 q 439 -27 537 54 q 65 -157 353 -109 l 54 -136 q 423 271 461 -43 l 423 380 l 548 315 l 808 315 l 863 391 l 987 309 q 987 293 998 304 l 933 250 l 933 43 m 1128 581 l 1248 472 l 1242 456 l 553 456 l 477 450 l 461 488 l 776 488 l 776 716 l 499 716 l 423 711 l 407 749 l 776 749 l 776 949 q 456 928 559 928 l 450 949 q 993 1058 781 998 q 1031 1074 1004 1063 q 1107 1107 1085 1096 l 1194 998 q 1183 987 1204 982 q 1058 982 1128 998 q 960 966 1025 977 q 879 955 906 960 l 879 749 l 1123 749 l 1194 841 l 1318 732 l 1313 716 l 879 716 l 879 488 l 1053 488 l 1128 581 m 369 1139 l 483 1058 q 483 1036 494 1047 q 401 982 439 1031 q 347 906 385 955 q 320 868 331 879 l 385 836 q 385 825 396 836 l 353 798 l 353 418 q 255 380 315 385 q 255 505 255 418 q 260 770 260 656 l 260 798 q 54 613 168 700 l 43 629 q 369 1139 260 901 z "},"凯":{"ha":1389,"x_min":76,"x_max":1351,"o":"m 1123 49 q 1177 -11 1123 -11 l 1188 -11 q 1248 60 1237 -11 l 1280 260 l 1302 260 l 1308 71 q 1351 0 1302 16 q 1194 -109 1324 -114 l 1150 -109 q 1025 33 1020 -114 l 1025 971 l 863 971 l 863 662 q 787 130 868 277 q 467 -157 722 -22 l 456 -136 q 705 157 651 11 q 765 635 765 304 l 765 1074 l 884 1009 l 1009 1009 l 1058 1074 l 1172 1004 q 1172 987 1183 998 l 1123 944 l 1123 49 m 76 602 l 510 602 l 559 667 l 662 597 q 662 581 673 591 l 618 543 l 618 521 q 624 304 618 369 q 532 266 597 277 l 532 353 l 228 353 l 228 71 l 646 195 l 656 168 q 260 -11 439 76 q 179 -76 206 -43 q 157 -76 163 -87 l 92 22 q 136 103 136 49 l 136 439 l 239 385 l 532 385 l 532 564 l 152 564 l 92 559 l 76 602 m 651 743 q 564 711 602 705 l 564 760 l 222 760 l 174 705 l 87 776 q 87 787 81 776 l 125 819 l 125 1047 l 250 993 q 250 982 260 993 l 212 949 l 212 792 l 342 792 l 342 1134 l 472 1080 q 472 1063 483 1074 l 429 1036 l 429 792 l 564 792 l 564 1047 l 684 998 q 694 993 694 993 q 684 982 694 987 l 651 949 l 651 743 z "},"凰":{"ha":1389,"x_min":43,"x_max":1351,"o":"m 217 1080 l 342 1015 l 998 1015 l 1053 1090 l 1172 1009 q 1172 993 1183 1004 l 1118 955 l 1118 581 q 1221 60 1112 184 q 1237 49 1226 49 q 1248 65 1242 54 l 1308 260 l 1329 255 l 1313 60 q 1351 -98 1308 -33 q 1297 -119 1335 -119 q 1101 43 1177 -109 q 1015 597 1009 190 l 1015 982 l 320 982 l 320 635 q 60 -146 336 103 l 43 -130 q 184 195 152 43 q 217 667 217 347 l 217 1080 m 613 977 l 722 933 q 722 917 732 928 q 667 873 689 911 l 629 825 l 781 825 l 830 884 l 928 814 q 928 798 939 808 l 890 765 l 890 711 q 895 472 890 553 q 803 434 846 434 l 803 488 l 526 488 l 526 461 q 434 423 499 429 q 439 727 439 521 l 439 873 l 543 825 l 586 825 q 613 977 602 917 m 955 114 l 1069 11 l 1058 -5 l 374 -5 l 315 -11 l 298 33 l 618 33 l 618 168 l 488 168 l 429 157 l 412 201 l 618 201 l 618 331 l 456 331 l 396 326 l 380 363 l 825 363 l 879 439 l 987 342 l 977 331 l 711 331 l 711 201 l 798 201 l 852 271 l 955 179 l 949 168 l 711 168 l 711 33 l 895 33 l 955 114 m 526 640 l 526 521 l 803 521 l 803 640 l 526 640 m 803 792 l 526 792 l 526 673 l 803 673 l 803 792 z "},"刀":{"ha":1389,"x_min":54,"x_max":1253,"o":"m 1080 933 l 700 933 q 71 -146 711 54 l 54 -125 q 586 933 591 141 l 277 933 l 201 922 l 184 966 l 1063 966 l 1118 1042 l 1242 960 q 1242 944 1253 949 l 1188 901 q 1183 819 1188 873 q 1145 136 1166 336 q 911 -119 1139 -65 q 895 -109 901 -125 q 700 38 911 -22 l 705 60 l 901 33 q 1036 152 1031 5 q 1080 933 1058 353 z "},"分":{"ha":1389,"x_min":49,"x_max":1340,"o":"m 304 526 l 288 564 l 901 564 l 955 640 l 1069 548 q 1069 537 1080 543 l 1020 499 q 987 81 1009 266 q 787 -146 977 -98 q 765 -136 770 -152 q 597 5 770 -49 l 602 27 l 781 0 q 884 109 873 -16 q 917 532 911 315 l 624 532 q 76 -152 608 -27 l 65 -130 q 515 532 499 54 l 374 532 l 304 526 m 776 1134 l 895 1096 q 895 1085 906 1096 l 852 1047 q 1340 575 982 694 l 1340 553 q 1199 472 1226 553 q 776 1134 879 667 m 488 1096 l 624 1015 q 618 1004 640 1004 q 543 933 575 987 q 65 412 391 613 l 49 429 q 434 939 309 678 q 488 1096 472 1020 z "},"列":{"ha":1389,"x_min":43,"x_max":1297,"o":"m 597 684 l 380 684 q 304 553 347 618 q 418 450 380 488 q 450 385 450 418 q 380 288 439 304 q 353 331 353 288 q 282 526 331 450 q 65 288 195 401 l 49 304 q 380 955 282 591 l 179 955 l 98 944 l 81 987 l 629 987 l 705 1074 l 825 966 l 819 955 l 488 955 q 396 722 450 825 l 581 722 l 635 792 l 760 705 q 760 689 770 700 l 700 651 q 54 -125 602 103 l 43 -103 q 597 684 515 190 m 1242 -33 q 1101 -152 1248 -103 q 1080 -141 1085 -163 q 901 -16 1085 -54 l 906 5 l 1074 -11 q 1139 49 1145 -22 l 1139 1123 l 1286 1058 q 1286 1047 1297 1047 l 1242 1009 l 1242 -33 m 873 922 l 1015 863 q 1015 846 1025 857 l 971 814 l 971 222 q 868 184 939 184 q 873 331 873 244 q 873 602 873 401 l 873 922 z "},"则":{"ha":1389,"x_min":43,"x_max":1302,"o":"m 184 635 l 184 1058 l 304 993 l 613 993 l 667 1063 l 781 982 q 781 971 781 982 l 732 933 l 732 684 q 738 277 732 396 q 635 239 689 239 l 635 960 l 277 960 l 277 239 q 174 201 233 206 q 184 635 184 483 m 1248 -38 q 1107 -157 1253 -114 q 1085 -152 1085 -168 q 906 -27 1085 -65 l 911 -5 l 1080 -16 q 1145 43 1150 -33 l 1145 1123 l 1286 1058 q 1291 1042 1302 1053 l 1248 1009 l 1248 -38 m 54 -163 l 43 -141 q 336 136 271 5 q 407 548 407 266 l 407 841 l 543 781 q 543 765 553 770 l 505 732 l 505 553 q 423 98 510 222 q 54 -163 347 -38 m 895 933 l 1031 873 q 1031 857 1042 868 l 993 825 l 993 233 q 895 195 944 195 l 895 933 m 526 228 q 749 87 646 168 q 798 5 798 54 q 738 -87 792 -65 q 700 -54 722 -87 q 510 212 640 87 l 526 228 z "},"刚":{"ha":1389,"x_min":125,"x_max":1308,"o":"m 787 -11 q 651 -136 792 -87 q 629 -125 635 -146 q 483 -5 624 -43 l 483 16 l 624 0 q 694 65 694 -11 l 694 960 l 228 960 l 228 -103 q 125 -141 184 -136 q 130 336 130 -38 l 130 1053 l 250 993 l 673 993 l 722 1063 l 836 987 q 836 977 836 987 l 787 933 l 787 -11 m 1253 -33 q 1118 -152 1264 -114 q 1096 -146 1101 -163 q 917 -22 1096 -60 l 922 0 l 1090 -11 q 1156 49 1161 -27 l 1156 1123 l 1297 1058 q 1297 1042 1308 1053 l 1253 1009 l 1253 -33 m 277 787 q 456 608 374 689 q 532 857 505 727 l 651 787 q 656 776 662 781 q 646 770 656 776 q 591 722 608 765 q 510 537 559 624 q 618 385 575 461 q 646 309 646 353 q 581 212 640 228 q 548 250 559 212 q 467 456 526 342 q 250 179 385 326 l 233 201 q 423 532 347 363 q 260 776 380 618 l 277 787 m 928 939 l 1058 873 q 1058 857 1069 863 l 1020 825 l 1020 195 q 917 157 971 157 q 928 575 928 353 l 928 939 z "},"利":{"ha":1389,"x_min":43,"x_max":1291,"o":"m 711 765 l 830 656 l 825 646 l 510 646 l 510 521 q 711 418 640 467 q 754 358 749 391 q 694 260 749 277 q 662 293 678 260 q 510 488 602 407 q 515 -114 510 119 q 401 -152 472 -146 q 412 483 412 206 q 60 43 271 239 l 43 54 q 380 646 260 336 l 168 646 l 92 635 l 76 678 l 412 678 l 412 917 q 114 873 255 890 l 109 895 q 564 1042 358 960 q 667 1096 624 1069 l 760 987 q 749 977 765 971 q 651 966 711 982 q 586 955 629 960 q 510 939 532 944 l 510 678 l 640 678 l 711 765 m 1237 -38 q 1096 -157 1242 -109 q 1080 -146 1080 -163 q 901 -22 1074 -60 l 906 5 l 1074 -16 q 1134 43 1139 -27 l 1134 1128 l 1286 1063 q 1286 1053 1291 1058 l 1237 1015 l 1237 -38 m 868 944 l 1004 879 q 1004 863 1015 873 l 960 830 l 960 201 q 863 157 928 157 q 868 309 868 222 q 868 581 868 380 l 868 944 z "},"别":{"ha":1389,"x_min":33,"x_max":1302,"o":"m 727 629 q 629 597 684 597 l 629 667 l 298 667 l 298 624 q 195 586 255 591 q 201 743 195 618 q 201 895 201 868 l 201 1053 l 315 993 l 608 993 l 662 1063 l 770 987 q 770 977 781 982 l 727 933 l 727 890 q 727 629 727 765 m 76 423 l 358 423 q 358 450 358 429 q 363 483 363 472 q 369 640 369 553 l 510 591 q 521 586 521 586 q 510 575 521 581 q 467 488 472 559 q 467 456 467 477 q 461 423 461 434 l 629 423 l 678 494 l 792 418 q 792 401 803 412 l 743 363 q 705 27 716 125 q 526 -146 700 -114 q 510 -141 510 -152 q 374 -11 515 -60 l 380 11 l 505 -11 q 602 54 597 -43 q 646 391 624 184 l 456 391 q 43 -163 434 5 l 33 -146 q 353 391 320 65 l 168 391 l 92 380 l 76 423 m 1248 -49 q 1107 -168 1253 -119 q 1085 -157 1090 -174 q 906 -33 1090 -76 l 911 -5 l 1080 -27 q 1145 38 1150 -43 l 1145 1128 l 1291 1063 q 1291 1053 1302 1063 l 1248 1015 l 1248 -49 m 629 960 l 298 960 l 298 705 l 629 705 l 629 960 m 890 917 l 1031 852 q 1031 836 1042 846 l 987 803 l 987 195 q 884 157 955 157 q 890 309 890 222 q 890 581 890 380 l 890 917 z "},"前":{"ha":1389,"x_min":54,"x_max":1340,"o":"m 646 -33 q 526 -152 651 -103 q 505 -141 505 -157 q 369 -33 499 -71 l 374 -11 l 499 -22 q 548 38 553 -38 l 548 222 l 298 222 l 298 -114 q 195 -152 260 -152 q 201 -5 201 -92 q 201 266 201 65 l 201 743 l 326 684 l 532 684 l 581 754 l 694 678 q 694 662 705 673 l 646 624 l 646 -33 m 1188 -38 q 1053 -157 1188 -103 q 1031 -146 1031 -163 q 873 -27 1025 -54 l 879 -5 l 1025 -22 q 1085 43 1090 -33 l 1085 770 l 1232 705 q 1232 689 1242 700 l 1188 656 l 1188 -38 m 1210 960 l 1340 846 l 1335 836 l 152 836 l 71 830 l 54 868 l 738 868 q 819 1025 787 949 q 868 1139 852 1085 l 998 1058 q 1004 1047 1004 1053 q 993 1042 1004 1042 q 906 987 955 1036 q 792 868 836 906 l 1134 868 l 1210 960 m 825 684 l 955 618 q 955 608 966 618 l 917 570 l 917 119 q 814 81 884 81 q 814 125 814 98 q 825 434 825 244 l 825 684 m 548 651 l 298 651 l 298 472 l 548 472 l 548 651 m 298 439 l 298 260 l 548 260 l 548 439 l 298 439 m 385 1128 q 553 1042 494 1085 q 586 982 591 1015 q 515 884 570 906 q 488 917 499 884 q 380 1118 450 1025 l 385 1128 z "},"剑":{"ha":1389,"x_min":38,"x_max":1291,"o":"m 1237 -33 q 1101 -152 1248 -114 q 1080 -146 1085 -163 q 901 -22 1085 -60 l 906 0 l 1074 -11 q 1145 49 1150 -27 l 1145 1128 l 1280 1063 q 1280 1047 1291 1058 l 1237 1015 l 1237 -33 m 439 1139 l 564 1069 q 564 1053 575 1058 q 505 1015 521 1036 q 776 868 656 949 q 825 798 825 830 q 770 705 819 722 q 727 738 754 705 q 488 987 635 873 q 54 515 309 684 l 38 537 q 380 1004 239 727 q 439 1139 407 1047 m 830 119 l 836 92 q 250 -60 396 -11 q 146 -109 174 -81 q 136 -109 136 -114 q 130 -103 136 -109 l 71 11 q 526 71 212 22 q 635 396 570 168 q 667 548 662 477 l 798 477 q 808 472 803 477 q 798 461 803 467 q 732 396 760 445 q 581 76 656 206 q 830 119 700 92 m 895 939 l 1031 873 q 1031 857 1042 868 l 987 825 l 987 195 q 890 157 939 157 q 895 309 895 222 q 895 581 895 380 l 895 939 m 369 564 q 505 385 450 483 q 526 309 526 342 q 456 206 515 228 q 429 250 429 206 q 353 553 407 418 l 369 564 m 239 179 q 163 467 222 326 l 179 477 q 320 304 277 385 q 336 239 336 271 q 271 136 326 152 q 239 179 250 136 m 646 743 l 743 646 l 738 629 l 320 629 l 260 624 l 250 667 l 581 667 l 646 743 z "},"力":{"ha":1389,"x_min":43,"x_max":1253,"o":"m 608 1128 l 776 1069 q 776 1058 787 1069 l 722 1015 q 711 765 722 873 l 1063 765 l 1123 841 l 1242 749 q 1242 738 1253 749 l 1188 700 q 1145 109 1177 396 q 906 -141 1145 -87 q 890 -130 890 -146 q 689 16 895 -43 l 700 38 l 901 5 q 1031 125 1020 -16 q 1085 727 1069 418 l 705 727 q 60 -157 689 54 l 43 -136 q 597 727 581 146 l 271 727 l 190 722 l 174 765 l 597 765 q 602 819 602 781 q 608 873 608 857 q 608 1128 608 998 z "},"劝":{"ha":1389,"x_min":33,"x_max":1308,"o":"m 846 1128 l 998 1058 q 998 1047 1009 1058 l 949 1009 q 939 760 949 895 l 1128 760 l 1183 836 l 1297 754 q 1297 732 1308 749 l 1248 694 q 1226 179 1237 331 q 1009 -146 1221 -114 q 987 -136 993 -152 q 830 0 993 -43 l 841 22 l 993 -5 q 1118 179 1107 -38 q 1145 678 1134 320 q 1145 727 1145 711 l 939 727 l 939 722 q 326 -157 933 22 l 315 -136 q 836 727 819 92 l 705 727 l 640 722 l 624 760 l 836 760 q 846 1128 846 890 m 537 949 l 651 857 q 651 846 662 846 l 597 808 q 450 445 510 559 q 548 331 494 407 q 564 309 559 315 q 597 222 597 260 q 532 130 591 146 q 505 163 515 125 q 401 363 456 277 q 49 -5 288 179 l 33 16 q 347 445 244 233 q 152 684 293 537 l 168 700 q 206 673 179 689 q 380 515 336 570 q 494 846 439 629 l 168 846 l 103 836 l 87 879 l 483 879 l 537 949 z "},"功":{"ha":1389,"x_min":43,"x_max":1313,"o":"m 808 1128 l 960 1063 q 960 1053 971 1063 l 911 1009 q 911 787 911 901 l 1128 787 l 1183 868 l 1302 781 q 1313 776 1313 776 q 1302 765 1313 770 l 1253 727 q 1232 179 1248 505 q 1020 -136 1237 -103 q 998 -125 998 -141 q 819 5 998 -38 l 825 27 l 1004 5 q 1123 184 1118 -27 q 1150 754 1139 412 l 911 754 q 911 727 911 743 q 781 168 901 331 q 326 -157 673 -11 l 315 -136 q 808 732 836 136 l 808 754 l 635 754 l 570 749 l 553 787 l 808 787 q 808 1031 814 868 q 808 1128 808 1096 m 553 977 l 662 873 l 656 863 l 407 863 l 407 320 q 586 363 467 331 q 656 385 635 380 l 662 358 q 239 190 434 277 q 125 125 152 152 q 109 130 119 119 l 43 239 q 174 266 76 244 q 309 293 260 282 l 309 863 l 141 863 l 76 852 l 60 895 l 483 895 l 553 977 z "},"加":{"ha":1389,"x_min":43,"x_max":1318,"o":"m 1264 -33 q 1161 -81 1221 -76 l 1161 60 l 939 60 l 939 -65 q 830 -103 895 -103 q 836 429 836 33 l 836 917 l 949 863 l 1139 863 l 1194 939 l 1308 857 q 1308 841 1318 852 l 1259 803 l 1259 434 q 1264 -33 1259 119 m 309 1134 l 461 1080 q 461 1063 472 1074 l 418 1031 q 412 803 418 917 l 586 803 l 640 884 l 754 798 q 749 781 765 792 l 705 738 q 678 217 694 412 q 477 -98 684 -71 q 456 -87 461 -103 q 304 33 467 0 l 309 60 l 467 38 q 575 222 570 0 q 602 770 602 472 l 412 770 q 54 -146 412 98 l 43 -130 q 309 770 304 141 l 157 770 l 98 765 l 81 803 l 315 803 q 309 1134 315 1015 m 1161 830 l 939 830 l 939 92 l 1161 92 l 1161 830 z "},"务":{"ha":1389,"x_min":49,"x_max":1340,"o":"m 250 353 l 543 353 q 543 363 543 353 q 548 380 548 374 q 559 537 559 445 q 60 374 380 445 l 49 396 q 640 678 439 526 q 488 901 553 770 q 201 597 380 749 l 184 608 q 445 1009 342 803 q 499 1139 494 1101 l 635 1074 q 629 1058 646 1058 q 553 998 586 1047 q 526 955 543 971 l 890 955 l 960 1025 l 1074 917 q 1074 901 1085 911 l 1009 879 q 781 673 895 760 q 1340 526 960 564 l 1335 505 q 1204 418 1215 499 q 705 618 852 494 q 564 537 640 581 l 711 477 q 711 467 722 477 q 656 385 662 445 q 651 353 651 369 l 890 353 l 939 423 l 1058 342 q 1058 331 1069 336 l 1009 293 q 982 22 998 146 q 770 -157 977 -119 q 754 -146 754 -157 q 597 -16 754 -65 l 602 5 l 760 -16 q 873 54 868 -49 q 906 320 901 174 l 640 320 q 76 -157 602 -60 l 71 -136 q 537 320 494 11 l 331 320 l 266 309 l 250 353 m 901 922 l 515 922 q 700 722 597 803 q 901 922 803 808 z "},"助":{"ha":1389,"x_min":49,"x_max":1329,"o":"m 103 -54 l 49 49 q 146 65 76 54 q 201 76 179 71 l 201 1047 l 304 987 l 532 987 l 581 1058 l 694 987 q 694 971 705 982 l 646 928 l 646 168 l 770 195 l 776 174 q 640 130 727 157 q 228 -5 331 22 q 125 -60 168 -27 q 103 -54 119 -71 m 711 716 l 694 754 l 895 754 q 895 776 895 765 q 895 1128 906 933 l 1042 1069 q 1042 1058 1053 1069 l 998 1020 q 998 754 998 890 l 1150 754 l 1199 830 l 1318 749 q 1318 732 1329 743 l 1270 694 q 1264 450 1270 629 q 1253 168 1259 239 q 1053 -146 1264 -114 q 1031 -136 1036 -157 q 879 -5 1036 -49 l 884 16 l 1042 -5 q 1150 174 1150 -43 q 1166 722 1166 396 l 993 722 q 505 -157 1004 16 l 494 -136 q 895 722 895 65 l 776 722 l 711 716 m 293 92 q 548 146 412 114 l 548 391 l 293 391 l 293 92 m 293 673 l 293 423 l 548 423 l 548 673 l 293 673 m 548 955 l 293 955 l 293 711 l 548 711 l 548 955 z "},"势":{"ha":1389,"x_min":76,"x_max":1340,"o":"m 163 266 l 543 266 q 559 401 559 326 q 521 391 548 396 q 483 374 499 380 l 477 396 q 749 640 694 515 q 635 711 700 678 l 646 722 q 770 694 711 711 q 803 879 798 765 l 727 879 l 673 873 l 656 911 l 803 911 q 803 987 803 949 l 803 1128 l 933 1074 q 933 1063 944 1069 l 901 1036 l 901 977 q 895 911 901 944 l 1015 911 l 1063 982 l 1177 901 q 1177 890 1188 895 l 1134 852 l 1134 792 q 1221 477 1134 564 q 1232 472 1232 467 q 1242 483 1237 472 l 1308 667 l 1329 662 l 1308 472 q 1340 347 1297 401 q 1297 331 1324 331 q 1090 488 1161 336 q 1036 808 1036 602 l 1036 879 l 895 879 q 857 662 890 749 q 890 651 868 656 q 922 635 911 640 q 971 564 966 608 q 922 488 966 499 q 884 515 906 488 q 819 586 852 548 q 570 407 765 494 l 705 358 q 705 336 722 347 q 651 266 667 320 l 987 266 l 1036 336 l 1161 255 q 1161 244 1172 250 l 1112 206 q 1101 98 1107 168 q 1090 16 1090 43 q 901 -157 1085 -125 q 890 -152 890 -157 q 711 -5 890 -60 l 716 11 l 890 -16 q 987 54 977 -49 q 993 125 987 81 q 1004 228 1004 190 l 646 228 q 87 -157 613 -98 l 76 -136 q 537 228 515 -16 l 255 228 l 179 222 l 163 266 m 559 977 l 656 879 l 651 863 l 450 863 l 450 738 q 646 787 543 765 l 656 765 q 450 689 537 727 l 450 445 q 320 326 456 374 q 309 326 309 320 q 304 336 304 326 q 179 439 304 412 l 184 467 l 298 450 q 358 515 363 445 l 358 656 q 239 608 293 635 q 152 553 184 586 q 136 553 146 543 l 76 651 q 358 716 174 667 l 358 863 l 168 863 l 114 857 l 98 901 l 358 901 l 358 1134 l 494 1069 q 494 1053 505 1063 l 450 1020 l 450 901 l 499 901 l 559 977 z "},"勃":{"ha":1389,"x_min":43,"x_max":1329,"o":"m 792 716 l 776 760 l 901 760 q 895 1128 901 949 l 1042 1063 q 1042 1053 1053 1053 l 998 1015 q 998 760 998 879 l 1150 760 l 1199 830 l 1313 749 q 1313 727 1329 743 l 1264 689 l 1253 190 q 1058 -146 1270 -114 q 1036 -136 1042 -152 q 890 -22 1036 -49 l 895 5 l 1047 -11 q 1156 174 1156 -38 l 1166 722 l 998 722 q 521 -157 1015 27 l 505 -141 q 814 201 738 22 q 901 722 901 380 l 841 722 l 792 716 m 477 -33 q 353 -152 483 -114 q 331 -141 336 -157 q 201 -33 336 -71 l 206 -11 l 331 -27 q 380 27 385 -38 l 380 195 q 222 163 304 174 q 125 114 157 146 q 103 119 114 109 l 49 228 q 380 260 179 239 l 380 434 l 450 401 l 521 499 l 244 499 l 190 488 l 174 526 l 515 526 l 570 581 l 667 494 q 662 477 667 477 l 613 472 l 477 391 l 515 374 q 515 363 526 369 l 477 336 l 477 271 q 575 288 510 277 q 765 309 694 304 l 770 288 q 694 271 743 282 q 477 217 553 239 l 477 -33 m 662 673 l 190 673 q 190 635 190 656 q 92 510 184 521 q 43 553 49 515 q 65 591 43 575 q 152 760 141 640 l 168 760 q 184 705 184 727 l 385 705 l 385 879 l 195 879 l 141 868 l 125 911 l 385 911 l 385 1134 l 521 1074 q 521 1063 532 1069 l 477 1025 l 477 911 l 591 911 l 656 993 l 765 890 l 760 879 l 477 879 l 477 705 l 651 705 l 711 765 l 814 667 q 814 656 825 656 l 749 640 l 618 553 l 602 564 l 662 673 z "},"勉":{"ha":1389,"x_min":27,"x_max":1335,"o":"m 277 1128 l 401 1069 q 412 1058 407 1063 q 401 1053 407 1053 q 342 998 363 1047 q 315 960 331 982 q 304 939 309 944 l 456 939 l 515 998 l 613 911 q 608 895 624 906 l 553 879 l 423 722 l 597 722 l 640 781 l 738 716 q 738 700 749 711 l 700 662 l 700 581 q 700 358 700 467 q 613 326 656 326 l 613 407 l 526 407 l 526 43 q 586 -22 521 -27 l 1156 -22 q 1237 43 1226 -27 l 1270 201 l 1286 201 l 1291 49 q 1335 -16 1291 -5 q 1188 -109 1302 -114 l 564 -109 q 445 22 439 -114 l 445 407 l 439 407 q 38 -157 380 43 l 27 -136 q 347 407 298 81 l 233 407 l 233 347 q 141 315 190 315 q 146 581 146 445 l 146 727 q 54 640 103 678 l 38 651 q 233 998 168 830 q 277 1128 271 1080 m 732 765 l 716 808 l 884 808 q 890 1123 890 911 l 1031 1063 q 1031 1047 1042 1058 l 982 1015 q 982 808 982 895 l 1101 808 l 1156 879 l 1264 798 q 1275 792 1275 792 q 1264 781 1275 787 l 1215 738 q 1199 271 1215 467 q 1025 43 1199 81 q 1004 54 1009 33 q 863 168 1004 130 l 873 195 l 1009 174 q 1107 277 1096 152 q 1107 309 1107 326 q 1123 776 1123 624 l 977 776 q 597 22 966 217 l 586 38 q 884 776 873 293 l 798 776 l 732 765 m 613 689 l 467 689 q 445 439 467 553 l 613 439 l 613 689 m 467 906 l 282 906 q 174 760 233 825 l 244 722 l 380 722 l 467 906 m 353 439 q 374 689 374 553 l 233 689 l 233 439 l 353 439 z "},"勐":{"ha":1389,"x_min":43,"x_max":1308,"o":"m 911 1128 l 1058 1063 q 1058 1053 1069 1053 l 1015 1015 q 1009 754 1015 830 l 1134 754 l 1183 825 l 1297 743 q 1297 727 1308 738 l 1248 684 q 1237 168 1248 499 q 1042 -152 1253 -114 q 1020 -141 1020 -157 q 868 -22 1020 -49 l 873 5 l 1025 -11 q 1134 174 1134 -49 q 1150 722 1150 353 l 1009 722 q 911 141 998 298 q 548 -157 830 -27 l 537 -136 q 776 81 705 -27 q 201 -54 505 22 q 190 -60 195 -54 q 98 -103 119 -81 q 87 -98 87 -109 l 43 11 q 92 16 54 16 q 141 22 125 22 l 141 494 l 244 439 l 608 439 l 651 499 l 749 434 q 760 429 760 429 q 749 418 760 423 l 711 380 l 711 98 q 792 109 754 98 q 911 722 901 260 l 841 722 l 792 716 l 776 754 l 911 754 q 911 760 911 754 q 917 776 917 770 q 911 1128 917 1004 m 385 640 l 385 722 l 136 722 l 76 716 l 54 760 l 385 760 l 385 895 l 456 863 l 575 982 l 217 982 l 152 971 l 136 1015 l 581 1015 l 640 1063 l 738 966 q 732 949 749 960 l 667 944 l 488 846 l 521 830 q 521 819 532 830 l 477 787 l 477 760 l 602 760 l 667 836 l 776 738 l 770 722 l 477 722 l 477 586 q 363 472 483 505 q 342 477 342 461 q 206 581 336 548 l 212 602 l 326 591 q 385 640 391 581 m 228 33 q 266 33 239 33 q 309 38 293 38 l 309 401 l 228 401 l 228 33 m 385 49 q 429 54 401 54 q 467 60 450 60 l 467 401 l 385 401 l 385 49 m 624 401 l 543 401 l 543 71 q 624 81 586 81 l 624 401 z "},"勒":{"ha":1389,"x_min":49,"x_max":1324,"o":"m 331 711 q 239 678 293 678 q 244 911 244 727 l 136 911 l 76 906 l 60 944 l 244 944 l 244 1015 l 244 1128 l 374 1074 q 374 1063 385 1074 l 331 1031 l 331 944 l 526 944 l 526 1134 l 651 1074 q 656 1063 662 1074 l 613 1031 l 613 971 l 613 944 l 667 944 l 727 1015 l 825 922 l 819 911 l 613 911 q 613 722 613 792 q 526 689 581 689 l 526 743 l 472 743 l 472 591 l 591 591 l 635 656 l 743 586 q 743 575 749 581 q 743 570 743 570 l 700 537 l 700 488 q 700 407 700 467 q 705 309 705 342 q 613 277 662 277 l 613 336 l 472 336 l 472 179 l 646 179 l 711 260 l 808 168 q 895 722 890 353 l 765 722 l 716 716 l 700 760 l 895 760 q 901 770 895 765 q 901 776 901 776 q 895 1134 901 1009 l 1042 1074 q 1042 1063 1053 1069 l 998 1025 q 998 841 1004 966 q 998 760 998 781 l 1150 760 l 1199 830 l 1313 749 q 1313 732 1324 743 l 1264 689 l 1259 119 q 1074 -157 1280 -109 q 1053 -146 1058 -163 q 901 -27 1058 -60 l 901 -5 l 1063 -16 q 1156 119 1161 -49 l 1166 722 l 998 722 q 901 157 987 320 q 581 -152 830 -5 l 564 -136 q 798 146 732 11 l 472 146 l 472 -119 q 374 -157 434 -152 q 380 -5 374 -109 q 385 146 380 98 l 130 146 l 65 141 l 49 179 l 385 179 q 385 282 385 239 l 385 336 l 250 336 l 250 288 q 157 255 212 255 q 163 510 163 353 l 163 640 l 271 591 l 385 591 l 385 743 l 331 743 l 331 711 m 613 559 l 472 559 l 472 369 l 613 369 l 613 559 m 250 559 l 250 369 l 385 369 l 385 559 l 250 559 m 331 911 l 331 781 l 526 781 l 526 911 l 331 911 z "},"勤":{"ha":1389,"x_min":49,"x_max":1318,"o":"m 749 716 l 732 754 l 911 754 l 911 776 l 911 1128 l 1058 1063 q 1058 1053 1069 1053 l 1009 1015 l 1009 754 l 1145 754 l 1199 825 l 1308 743 q 1318 738 1318 738 q 1308 727 1318 732 l 1259 684 l 1248 190 q 1210 -49 1248 5 q 1058 -152 1183 -109 q 1036 -141 1042 -157 q 884 -27 1042 -54 l 890 0 l 1047 -11 q 1150 174 1156 -43 l 1166 722 l 1009 722 q 618 -157 1036 54 l 602 -141 q 765 43 700 -54 q 694 27 743 38 q 212 -81 298 -60 q 114 -130 157 -92 q 98 -125 98 -136 l 49 -5 q 260 16 92 -5 q 380 27 336 22 l 380 157 l 217 157 l 157 152 l 141 190 l 380 190 l 380 309 l 168 309 l 109 298 l 92 336 l 380 336 l 380 456 l 239 456 l 239 412 q 146 385 201 385 q 152 624 152 532 l 152 716 l 260 667 l 380 667 l 380 792 l 326 792 l 326 765 q 239 738 282 738 q 239 944 239 825 l 136 944 l 76 939 l 54 971 l 239 971 l 239 1015 l 239 1128 l 369 1080 q 369 1069 380 1069 l 326 1036 l 326 971 l 526 971 l 526 1128 l 656 1074 q 656 1063 667 1074 l 613 1031 l 613 971 l 673 971 l 732 1047 l 836 955 l 830 944 l 613 944 q 618 770 613 808 q 526 738 591 749 l 526 792 l 472 792 l 472 667 l 597 667 l 640 727 l 743 662 q 743 656 749 662 q 743 651 743 651 l 700 613 l 700 591 q 700 526 700 581 q 705 439 705 461 q 613 412 662 423 l 613 456 l 472 456 l 472 336 l 624 336 l 684 412 l 787 320 l 781 309 l 472 309 l 472 190 l 586 190 l 646 266 l 749 168 l 743 157 l 472 157 l 472 38 q 602 54 515 43 q 781 76 722 71 q 911 722 917 288 l 798 722 l 749 716 m 326 944 l 326 825 l 526 825 l 526 944 l 326 944 m 613 635 l 472 635 l 472 488 l 613 488 l 613 635 m 239 635 l 239 488 l 380 488 l 380 635 l 239 635 z "},"匀":{"ha":1389,"x_min":71,"x_max":1302,"o":"m 1134 825 l 401 825 q 87 472 266 608 l 71 488 q 363 955 260 716 q 434 1128 401 1031 l 575 1047 q 586 1036 581 1042 q 575 1031 581 1031 q 483 955 521 1020 q 439 873 472 922 q 429 857 434 863 l 1112 857 l 1166 939 l 1291 852 q 1291 836 1302 841 l 1237 792 q 1221 114 1237 342 q 987 -152 1204 -87 q 977 -152 977 -157 q 971 -146 977 -152 q 754 11 987 -65 l 760 33 l 960 0 q 1112 136 1096 -22 q 1128 369 1128 228 q 1134 532 1134 434 q 1134 825 1134 613 m 309 103 l 244 228 q 1004 385 483 260 l 1015 358 q 439 157 716 255 q 326 98 358 125 q 320 98 326 98 q 309 103 315 92 m 499 716 q 743 570 651 651 q 781 505 781 537 q 716 401 776 423 q 678 434 694 401 q 483 700 613 581 l 499 716 z "},"包":{"ha":1389,"x_min":49,"x_max":1335,"o":"m 429 1139 l 564 1063 q 559 1047 575 1047 q 483 977 510 1025 q 461 939 477 966 q 434 901 445 917 l 1047 901 l 1101 977 l 1221 895 q 1221 879 1232 890 l 1172 841 q 1139 353 1161 624 q 949 130 1134 174 q 933 141 933 125 q 787 260 933 217 l 787 282 l 933 266 q 1031 363 1025 239 q 1031 391 1036 407 q 1069 868 1063 722 l 412 868 q 331 754 385 825 q 304 722 309 732 l 407 662 l 673 662 l 727 732 l 841 651 q 841 635 852 646 l 792 597 l 792 575 q 798 304 792 450 q 689 266 749 271 l 689 336 l 385 336 l 385 76 q 472 -11 380 -16 l 1112 -11 q 1210 54 1199 -16 l 1253 266 l 1280 260 l 1286 65 q 1335 -5 1280 11 q 1139 -109 1308 -114 l 439 -109 q 282 60 282 -109 l 282 700 q 65 483 206 602 l 49 499 q 363 982 233 727 q 429 1139 407 1063 m 689 624 l 385 624 l 385 374 l 689 374 l 689 624 z "},"化":{"ha":1389,"x_min":43,"x_max":1340,"o":"m 836 76 q 928 -16 825 -27 l 1107 -16 q 1221 60 1204 -22 l 1264 282 l 1286 277 l 1291 71 q 1340 -5 1297 11 q 1166 -109 1302 -114 l 868 -109 q 732 33 727 -114 l 732 331 q 439 184 602 260 l 429 206 q 732 418 591 315 l 732 1128 l 884 1063 q 884 1053 901 1058 l 836 1009 l 836 505 q 1074 743 966 624 q 1134 830 1096 770 q 1156 863 1150 852 l 1270 749 q 1264 738 1286 732 q 1166 689 1210 743 q 836 401 993 505 l 836 76 m 423 1128 l 564 1047 q 575 1042 575 1042 q 564 1031 575 1036 q 477 944 510 1015 q 369 754 423 841 l 456 716 q 456 705 467 716 l 412 662 l 412 -119 q 298 -157 374 -152 q 309 434 309 217 l 309 656 q 65 374 201 510 l 43 391 q 369 971 244 673 q 423 1128 407 1069 z "},"北":{"ha":1389,"x_min":43,"x_max":1340,"o":"m 906 98 q 998 5 895 -5 l 1123 5 q 1221 81 1210 0 l 1259 298 l 1286 293 l 1291 87 q 1340 16 1286 33 q 1166 -98 1302 -103 l 944 -98 q 803 49 803 -98 l 803 1112 l 955 1042 q 955 1025 966 1036 l 906 987 l 906 591 q 1177 922 1069 743 l 1302 798 q 1291 787 1308 787 q 1210 760 1242 787 q 906 537 1036 613 l 906 98 m 109 -11 l 43 103 q 445 184 157 119 q 477 190 434 179 q 477 434 477 342 l 477 667 l 168 667 l 92 662 l 76 705 l 477 705 l 477 1112 l 629 1042 q 629 1031 640 1042 l 581 987 l 581 -103 q 472 -152 537 -152 q 477 152 472 43 q 271 71 401 125 q 217 43 233 49 q 125 -16 157 16 q 109 -11 119 -22 z "},"区":{"ha":1389,"x_min":119,"x_max":1308,"o":"m 293 -60 l 233 -125 l 125 -49 q 125 -33 119 -43 l 168 5 l 168 1053 l 298 987 l 1058 987 l 1128 1074 l 1253 966 l 1248 955 l 277 955 l 277 -27 l 1101 -27 l 1177 71 l 1308 -43 l 1297 -60 l 293 -60 m 933 884 l 1063 792 q 1058 781 1074 781 q 993 727 1020 770 q 836 494 917 597 q 1047 293 949 396 q 1096 201 1096 239 q 1036 98 1090 114 q 993 130 1004 98 q 895 277 955 206 q 781 423 846 353 q 336 60 597 212 l 326 81 q 716 488 553 271 q 401 770 586 624 l 418 787 q 760 553 613 673 q 879 749 830 651 q 933 884 922 819 z "},"十":{"ha":1389,"x_min":76,"x_max":1324,"o":"m 629 1134 l 798 1063 q 798 1053 808 1063 l 743 1009 l 743 618 l 1118 618 l 1194 716 l 1324 597 l 1318 586 l 743 586 l 743 391 q 743 136 743 244 q 749 -109 743 16 q 618 -152 711 -146 q 618 -109 618 -92 q 629 391 629 260 l 629 586 l 168 586 l 92 575 l 76 618 l 629 618 l 629 1134 z "},"千":{"ha":1389,"x_min":65,"x_max":1324,"o":"m 1194 646 l 1324 532 l 1313 515 l 749 515 l 749 391 q 754 -114 749 125 q 629 -152 722 -146 q 629 -109 629 -92 q 640 391 640 260 l 640 515 l 157 515 l 81 510 l 65 548 l 640 548 l 640 911 q 591 906 624 911 q 146 873 380 884 l 141 895 q 922 1053 570 960 q 1069 1107 1004 1074 l 1156 993 q 1161 982 1161 987 q 1145 977 1156 977 q 1025 971 1090 987 q 906 955 982 966 q 749 928 798 939 l 749 548 l 1118 548 l 1194 646 z "},"半":{"ha":1389,"x_min":54,"x_max":1335,"o":"m 1199 418 l 1335 298 l 1324 288 l 743 288 q 749 87 749 228 q 754 -114 754 -43 q 629 -157 705 -152 q 635 288 635 -5 l 146 288 l 71 277 l 54 320 l 640 320 l 640 439 l 640 570 l 228 570 l 157 564 l 141 602 l 640 602 l 640 1128 l 798 1058 q 798 1047 808 1058 l 743 1009 l 743 602 l 1058 602 l 1128 694 l 1253 581 l 1242 570 l 743 570 l 743 439 l 743 320 l 1123 320 l 1199 418 m 1042 1025 l 1166 928 q 1172 917 1172 922 q 1161 911 1172 911 q 1080 873 1123 922 q 825 635 960 738 l 808 651 q 1042 1025 966 857 m 222 987 l 233 1004 q 450 852 353 944 q 499 765 499 803 q 434 667 488 684 q 396 705 412 667 q 222 987 342 857 z "},"华":{"ha":1389,"x_min":65,"x_max":1335,"o":"m 1172 1025 l 1264 917 q 1253 906 1275 906 q 1166 879 1210 906 q 819 700 971 754 l 819 586 q 879 526 814 521 l 1107 526 q 1199 602 1188 526 l 1237 760 l 1253 760 l 1259 613 q 1313 537 1259 553 q 1112 434 1286 429 l 852 434 q 722 575 711 423 l 722 662 q 456 591 602 613 l 450 613 q 722 722 591 662 l 722 1112 l 868 1047 q 879 1042 873 1047 q 868 1031 873 1036 l 819 998 l 819 776 q 1063 928 949 846 q 1118 977 1080 944 q 1172 1025 1156 1009 m 1204 320 l 1335 206 l 1324 190 l 754 190 q 760 -119 754 71 q 640 -157 716 -152 q 646 190 646 -16 l 168 190 l 92 184 l 76 222 l 646 222 l 646 244 l 646 439 l 798 374 q 798 363 808 374 l 754 331 l 754 244 l 754 222 l 1128 222 l 1204 320 m 439 1123 l 559 1042 q 553 1025 570 1036 q 477 971 510 1020 q 439 922 461 955 q 391 857 407 879 l 456 830 q 456 814 467 825 l 412 787 l 412 401 q 309 369 369 369 q 315 776 315 472 q 81 575 212 662 l 65 591 q 358 977 217 754 q 439 1123 407 1058 z "},"卑":{"ha":1389,"x_min":54,"x_max":1340,"o":"m 570 1139 l 716 1085 q 716 1069 727 1080 q 656 1025 673 1063 q 613 949 629 982 l 998 949 l 1053 1025 l 1172 944 q 1172 928 1183 939 l 1118 884 l 1118 787 q 1123 581 1118 722 q 1123 434 1123 472 q 1020 391 1080 396 l 1020 450 l 629 450 q 304 212 537 315 l 694 212 l 694 244 l 694 439 l 846 374 q 846 363 857 374 l 803 326 l 803 244 l 803 212 l 1134 212 l 1210 304 l 1340 190 l 1335 179 l 803 179 q 808 -119 803 60 q 689 -157 765 -152 q 694 179 694 -22 l 146 179 l 71 168 l 54 212 l 298 212 l 288 228 q 532 450 461 336 l 363 450 l 363 407 q 260 369 315 374 q 266 792 266 499 l 266 1009 l 385 949 l 548 949 q 570 1139 570 1053 m 727 678 q 651 483 700 564 l 1020 483 l 1020 678 l 727 678 m 629 711 q 656 917 651 798 l 363 917 l 363 711 l 629 711 m 1020 917 l 760 917 q 732 711 749 803 l 1020 711 l 1020 917 m 553 483 q 624 678 602 564 l 363 678 l 363 483 l 553 483 z "},"卓":{"ha":1389,"x_min":54,"x_max":1335,"o":"m 1199 260 l 1335 146 l 1329 130 l 743 130 q 749 0 743 87 q 754 -125 749 -87 q 635 -163 711 -152 q 635 -27 635 -125 q 640 130 640 81 l 141 130 l 71 125 l 54 163 l 640 163 l 640 195 l 640 342 l 412 342 l 412 293 q 298 255 363 260 q 309 564 309 423 l 309 852 l 429 792 l 624 792 l 624 1139 l 765 1080 q 776 1074 776 1074 q 765 1063 776 1069 l 727 1031 l 727 977 l 1053 977 l 1118 1058 l 1232 955 l 1226 944 l 727 944 l 727 792 l 966 792 l 1025 863 l 1139 781 q 1139 770 1139 781 l 1090 727 l 1090 575 q 1090 315 1090 461 q 987 282 1047 282 l 987 342 l 743 342 l 743 222 l 743 163 l 1123 163 l 1199 260 m 412 548 l 412 374 l 987 374 l 987 548 l 412 548 m 987 760 l 412 760 l 412 586 l 987 586 l 987 760 z "},"单":{"ha":1389,"x_min":54,"x_max":1340,"o":"m 1215 293 l 1340 184 l 1335 168 l 743 168 q 743 -125 743 -5 q 635 -157 700 -152 q 640 11 635 -98 q 640 168 640 114 l 141 168 l 76 163 l 54 201 l 640 201 l 640 374 l 353 374 l 353 331 q 244 298 309 298 q 250 646 250 380 l 250 917 l 369 852 l 738 852 q 873 1139 830 1004 l 1004 1058 q 1009 1047 1009 1053 q 998 1042 1009 1042 q 911 982 955 1036 q 792 852 852 911 l 1009 852 l 1063 922 l 1177 841 q 1177 830 1188 836 l 1134 787 l 1134 646 q 1134 342 1134 515 q 1031 309 1090 315 l 1031 374 l 743 374 l 743 201 l 1139 201 l 1215 293 m 743 418 l 743 412 l 1031 412 l 1031 602 l 743 602 l 743 418 m 640 412 l 640 602 l 353 602 l 353 412 l 640 412 m 1031 819 l 743 819 l 743 635 l 1031 635 l 1031 819 m 353 819 l 353 635 l 640 635 l 640 819 l 353 819 m 401 1112 q 570 1015 510 1063 q 608 955 608 987 q 543 863 597 884 q 505 895 521 863 q 391 1096 472 1004 l 401 1112 z "},"南":{"ha":1389,"x_min":54,"x_max":1329,"o":"m 1210 -43 q 1063 -163 1215 -119 q 1053 -163 1053 -168 q 1047 -152 1047 -163 q 890 -38 1042 -71 l 895 -16 l 1047 -33 q 1107 27 1112 -43 l 1107 667 l 298 667 l 298 -119 q 190 -157 250 -152 q 195 445 195 -54 l 195 765 l 320 705 l 640 705 l 640 884 l 146 884 l 76 879 l 54 917 l 640 917 l 640 1134 l 787 1069 q 798 1063 798 1063 q 787 1053 798 1058 l 743 1020 l 743 917 l 1145 917 l 1210 998 l 1329 895 l 1324 884 l 743 884 l 743 705 l 1085 705 l 1139 776 l 1253 700 q 1253 684 1264 694 l 1210 640 l 1210 -43 m 955 293 l 1069 190 l 1063 179 l 738 179 q 743 33 738 136 q 743 -76 743 -49 q 640 -109 711 -103 q 646 49 640 -71 q 646 179 646 152 l 423 179 l 358 168 l 342 212 l 646 212 l 646 374 l 439 374 l 374 363 l 358 407 l 711 407 q 738 461 722 423 q 776 548 765 515 q 798 602 787 564 q 819 651 814 635 l 933 575 q 928 559 944 570 q 857 515 901 564 q 760 407 830 477 l 890 407 l 949 483 l 1058 385 l 1053 374 l 738 374 l 738 212 l 890 212 l 955 293 m 461 635 q 613 548 543 602 q 646 488 646 521 q 581 407 635 429 q 548 434 559 401 q 450 624 521 543 l 461 635 z "},"博":{"ha":1389,"x_min":49,"x_max":1356,"o":"m 1237 1031 l 1345 933 l 1340 917 l 917 917 l 917 808 l 1101 808 l 1145 873 l 1253 803 q 1259 792 1264 803 l 1210 754 l 1210 667 q 1210 537 1210 635 q 1215 401 1215 439 q 1118 369 1183 374 l 1118 439 l 917 439 l 917 353 q 819 320 879 320 q 819 439 819 374 l 618 439 l 618 347 q 521 309 581 315 q 526 640 526 467 l 526 868 l 640 808 l 819 808 l 819 917 l 537 917 l 483 911 l 467 955 l 819 955 l 819 1128 l 955 1069 q 955 1058 966 1069 l 917 1020 l 917 955 l 1177 955 l 1237 1031 m 412 819 l 515 722 l 510 705 l 320 705 l 320 -114 q 217 -152 288 -152 q 222 521 222 33 l 222 705 l 119 705 l 65 700 l 49 738 l 222 738 l 222 1128 l 363 1069 q 363 1058 374 1058 l 320 1020 l 320 738 l 353 738 l 412 819 m 1248 320 l 1356 217 l 1351 206 l 1118 206 l 1118 -38 q 987 -157 1123 -109 q 966 -146 971 -163 q 819 -38 960 -71 l 825 -16 l 955 -27 q 1020 33 1025 -43 l 1020 206 l 456 206 l 396 201 l 380 239 l 1020 239 l 1020 391 l 1161 331 q 1161 320 1172 331 l 1118 282 l 1118 239 l 1188 239 l 1248 320 m 917 608 l 917 472 l 1118 472 l 1118 608 l 917 608 m 819 472 q 819 608 819 526 l 618 608 l 618 472 l 819 472 m 1118 776 l 917 776 l 917 640 l 1118 640 l 1118 776 m 819 640 l 819 711 l 819 776 l 618 776 l 618 640 l 819 640 m 618 201 q 749 130 700 168 q 787 65 787 92 q 722 -16 776 5 q 684 22 694 -22 q 608 190 662 125 l 618 201 m 1020 1118 q 1145 1085 1101 1101 q 1183 1036 1183 1069 q 1134 971 1177 982 q 1112 993 1123 971 q 1015 1101 1074 1058 l 1020 1118 z "},"卡":{"ha":1389,"x_min":65,"x_max":1329,"o":"m 1199 705 l 1329 586 l 1318 570 l 597 570 l 732 515 q 732 505 743 505 l 678 461 l 678 418 q 1128 271 982 347 q 1177 201 1177 239 q 1123 103 1172 114 q 1080 125 1112 103 q 678 385 939 271 q 678 212 678 342 q 684 -114 684 0 q 564 -157 646 -152 q 575 401 575 233 l 575 570 l 157 570 l 81 564 l 65 608 l 575 608 l 575 1139 l 727 1074 q 738 1069 738 1069 q 727 1058 738 1063 l 678 1020 l 678 884 l 1015 884 l 1085 971 l 1210 863 l 1199 852 l 678 852 l 678 608 l 1123 608 l 1199 705 z "},"卢":{"ha":1389,"x_min":43,"x_max":1308,"o":"m 1188 998 l 1308 890 l 1302 879 l 754 879 l 754 689 l 1047 689 l 1096 760 l 1210 678 q 1210 667 1221 673 l 1166 624 l 1166 548 q 1172 309 1166 353 q 1063 282 1134 282 l 1063 369 l 385 369 q 54 -163 374 33 l 43 -146 q 233 141 184 5 q 282 510 282 277 l 282 743 l 407 689 l 651 689 l 651 1128 l 798 1069 q 798 1053 808 1063 l 754 1020 l 754 911 l 1118 911 l 1188 998 m 391 515 q 385 450 391 494 q 385 401 385 418 l 1063 401 l 1063 656 l 391 656 l 391 515 z "},"卧":{"ha":1389,"x_min":87,"x_max":1324,"o":"m 244 -33 l 190 -92 l 92 -22 q 92 -5 87 -16 l 130 33 l 130 1053 l 260 987 l 608 987 l 678 1074 l 798 966 l 792 955 l 499 955 l 499 678 l 613 678 l 662 749 l 770 673 q 770 656 781 667 l 727 618 l 727 586 q 732 293 727 358 q 629 255 694 260 l 629 331 l 499 331 l 499 5 l 608 5 l 684 98 l 814 -16 l 808 -33 l 244 -33 m 895 1134 l 1047 1063 q 1047 1053 1058 1063 l 998 1009 l 998 689 q 1275 521 1172 608 q 1324 429 1324 477 q 1264 336 1313 353 q 1232 369 1242 336 q 998 651 1145 521 l 998 391 q 1004 -114 998 125 q 884 -157 955 -152 q 884 -98 884 -71 q 895 391 895 266 l 895 1134 m 629 646 l 228 646 l 228 363 l 629 363 l 629 646 m 228 331 l 228 5 l 401 5 l 401 331 l 228 331 m 228 955 l 228 678 l 401 678 l 401 955 l 228 955 z "},"卫":{"ha":1389,"x_min":54,"x_max":1335,"o":"m 982 380 q 1053 450 1058 369 l 1053 944 l 667 944 l 667 -22 l 1128 -22 l 1204 81 l 1335 -38 l 1329 -54 l 141 -54 l 71 -60 l 54 -22 l 559 -22 l 559 944 l 239 944 l 163 933 l 146 977 l 1031 977 l 1085 1053 l 1210 966 q 1210 955 1221 966 l 1161 911 l 1161 396 q 977 239 1166 288 q 960 250 960 233 q 803 380 960 331 l 803 401 l 982 380 z "},"印":{"ha":1389,"x_min":119,"x_max":1291,"o":"m 1069 239 q 1123 288 1123 233 l 1123 917 l 841 917 l 841 -125 q 727 -157 787 -152 q 738 515 738 277 l 738 1020 l 863 949 l 1107 949 l 1161 1025 l 1280 939 q 1280 928 1291 939 l 1226 884 l 1226 222 q 1085 98 1226 152 q 1063 109 1069 98 q 906 239 1074 179 l 911 255 l 1069 239 m 266 206 l 678 320 l 689 298 q 277 109 472 206 q 195 60 222 87 q 179 60 190 49 l 119 163 q 163 244 168 184 l 163 1015 l 271 955 q 309 971 282 960 q 505 1074 439 1031 q 602 1139 559 1101 l 700 1036 q 689 1020 705 1020 q 581 1004 656 1031 q 266 911 439 949 l 266 618 l 494 618 l 559 700 l 673 597 l 667 586 l 266 586 l 266 206 z "},"即":{"ha":1389,"x_min":119,"x_max":1280,"o":"m 423 385 q 646 217 581 288 q 689 130 694 179 q 618 33 678 49 q 586 71 597 33 q 543 168 570 119 q 288 16 412 98 q 206 -54 228 -22 q 201 -65 201 -65 q 190 -54 195 -65 l 119 49 q 174 136 179 87 l 174 1069 l 293 1009 l 537 1009 l 591 1074 l 705 998 q 705 982 705 993 l 656 944 l 656 798 q 656 586 656 646 q 662 439 656 515 q 559 396 618 401 l 559 499 l 277 499 l 277 109 l 526 206 q 407 369 477 288 l 423 385 m 1063 217 q 1118 266 1118 212 l 1118 960 l 911 960 l 911 -119 q 803 -157 863 -152 q 814 515 814 282 l 814 1063 l 928 993 l 1096 993 l 1156 1069 l 1270 987 q 1270 971 1280 982 l 1221 928 l 1221 206 q 1085 81 1226 130 q 1069 92 1069 81 q 933 212 1069 163 l 939 228 l 1063 217 m 559 971 l 277 971 l 277 770 l 559 770 l 559 971 m 277 738 l 277 537 l 559 537 l 559 738 l 277 738 z "},"厂":{"ha":1389,"x_min":43,"x_max":1324,"o":"m 1204 1080 l 1324 971 l 1318 960 l 342 960 l 342 624 q 60 -152 363 92 l 43 -136 q 233 656 250 130 l 233 1063 l 363 993 l 1134 993 l 1204 1080 z "},"历":{"ha":1389,"x_min":43,"x_max":1340,"o":"m 689 922 l 846 868 q 846 852 857 863 l 803 819 q 798 722 803 781 q 792 618 798 651 l 1074 618 l 1128 689 l 1242 608 q 1242 591 1253 602 l 1194 548 q 1166 174 1188 401 q 949 -146 1150 -114 q 928 -136 928 -152 q 749 0 917 -49 l 760 22 l 922 -5 q 1058 179 1036 -38 q 1090 586 1085 358 l 792 586 q 228 -152 792 16 l 217 -130 q 684 586 678 98 l 483 586 l 412 575 l 396 618 l 689 618 q 689 673 689 640 q 689 922 700 787 m 1221 1085 l 1340 977 l 1335 966 l 331 966 l 331 656 q 60 -136 353 114 l 43 -125 q 190 206 152 43 q 228 684 228 369 l 228 1069 l 358 998 l 1150 998 l 1221 1085 z "},"厚":{"ha":1389,"x_min":38,"x_max":1340,"o":"m 1101 515 q 998 483 1058 483 l 998 548 l 537 548 l 537 499 q 434 461 499 467 q 434 586 434 499 q 439 770 439 700 l 439 933 l 559 873 l 982 873 l 1031 939 l 1145 863 q 1145 852 1156 857 l 1096 808 l 1096 738 q 1096 646 1096 705 q 1101 515 1101 570 m 179 1080 l 298 1015 l 1112 1015 l 1177 1101 l 1302 993 l 1297 982 l 282 982 l 282 618 q 54 -152 298 98 l 38 -136 q 146 184 125 27 q 179 651 179 353 l 179 1080 m 846 -49 q 705 -163 852 -119 q 684 -152 684 -168 q 526 -38 684 -81 l 532 -16 l 684 -33 q 743 22 749 -38 l 743 157 l 353 157 l 288 152 l 271 190 l 743 190 l 743 309 l 825 271 l 1020 385 l 467 385 l 412 380 l 396 418 l 1025 418 l 1107 467 l 1204 358 q 1199 347 1215 347 l 1128 347 l 846 244 l 846 190 l 1139 190 l 1215 277 l 1340 168 l 1335 157 l 846 157 l 846 -49 m 537 694 l 537 581 l 998 581 l 998 694 l 537 694 m 998 841 l 537 841 l 537 727 l 998 727 l 998 841 z "},"原":{"ha":1389,"x_min":43,"x_max":1313,"o":"m 1194 1085 l 1313 987 l 1308 971 l 749 971 l 863 911 q 863 901 879 906 q 803 857 830 895 q 738 770 770 808 l 1036 770 l 1085 841 l 1199 765 q 1199 754 1210 760 l 1156 711 l 1156 564 q 1161 331 1156 401 q 1058 298 1118 298 l 1058 358 l 863 358 l 863 -33 q 716 -152 863 -119 q 705 -157 705 -157 q 700 -146 700 -152 q 537 -22 694 -65 l 543 0 l 700 -16 q 760 38 760 -16 l 760 358 l 559 358 l 559 315 q 456 282 521 282 q 461 586 461 385 l 461 830 l 575 770 l 684 770 q 743 971 722 873 l 304 971 l 304 662 q 65 -141 315 119 l 43 -125 q 201 689 212 125 l 201 1069 l 320 1004 l 1128 1004 l 1194 1085 m 559 548 l 559 391 l 1058 391 l 1058 548 l 559 548 m 1058 738 l 559 738 l 559 586 l 1058 586 l 1058 738 m 543 260 l 656 184 q 651 163 673 168 q 575 125 613 163 q 250 -114 445 -11 l 239 -92 q 467 146 380 33 q 505 201 477 168 q 543 260 532 239 m 955 244 q 1253 98 1118 190 q 1297 22 1297 65 q 1242 -71 1286 -54 q 1204 -43 1226 -76 q 949 228 1101 114 l 955 244 z "},"厢":{"ha":1389,"x_min":43,"x_max":1324,"o":"m 1237 -92 q 1128 -136 1194 -130 l 1128 22 l 890 22 l 890 -103 q 787 -141 841 -141 q 787 65 787 -60 q 792 315 792 206 l 792 852 l 911 792 l 1107 792 l 1161 863 l 1275 787 q 1275 770 1286 781 l 1226 727 l 1226 326 q 1237 -92 1226 136 m 684 732 l 776 646 l 770 629 l 591 629 l 591 532 l 591 505 q 727 439 662 483 q 749 396 749 423 q 705 315 743 331 q 678 342 689 315 q 591 477 646 412 q 597 -114 591 103 q 494 -146 564 -141 q 494 114 494 -71 q 499 434 499 331 q 271 54 396 222 l 255 71 q 483 629 407 353 l 391 629 l 331 624 l 315 667 l 499 667 l 499 944 l 635 884 q 635 873 646 873 l 591 836 l 591 667 l 635 667 l 684 732 m 201 1074 l 320 1015 l 1139 1015 l 1204 1096 l 1324 993 l 1318 982 l 304 982 l 304 656 q 65 -141 315 119 l 43 -130 q 168 201 136 33 q 201 689 201 380 l 201 1074 m 890 277 l 890 54 l 1128 54 l 1128 277 l 890 277 m 890 515 l 890 309 l 1128 309 l 1128 515 l 890 515 m 1128 760 l 890 760 l 890 548 l 1128 548 l 1128 760 z "},"厦":{"ha":1389,"x_min":43,"x_max":1345,"o":"m 1025 293 l 1128 195 q 1123 184 1128 184 l 1063 163 q 890 11 982 76 q 1345 -54 1058 -49 l 1340 -71 q 1232 -157 1248 -92 q 803 -38 944 -130 q 228 -163 608 -141 l 222 -141 q 727 16 543 -87 q 597 174 673 54 q 326 -16 494 81 l 309 5 q 564 260 477 146 q 581 288 570 271 q 624 353 597 309 l 570 353 l 570 326 q 467 293 515 293 q 467 450 467 342 q 472 629 472 570 l 472 803 l 586 749 l 678 749 q 700 852 694 803 l 429 852 l 369 846 l 353 884 l 1074 884 l 1134 960 l 1253 868 l 1248 852 l 814 852 q 787 819 803 841 q 722 749 770 792 l 998 749 l 1042 814 l 1156 743 q 1156 732 1166 743 l 1118 694 l 1118 597 q 1118 336 1118 456 q 1020 304 1085 304 l 1020 353 l 667 353 l 743 298 q 743 288 754 293 q 667 244 700 277 l 656 233 l 966 233 l 1025 293 m 201 1074 l 320 1015 l 1123 1015 l 1188 1096 l 1313 993 l 1302 982 l 298 982 l 298 667 q 65 -130 315 119 l 43 -119 q 168 212 136 43 q 201 700 201 391 l 201 1074 m 570 477 l 570 380 l 1020 380 l 1020 477 l 570 477 m 570 597 l 570 505 l 1020 505 l 1020 597 l 570 597 m 1020 722 l 570 722 l 570 629 l 1020 629 l 1020 722 m 971 201 l 624 201 l 618 195 q 798 54 700 109 q 971 201 884 119 z "},"县":{"ha":1389,"x_min":54,"x_max":1335,"o":"m 1199 412 l 1335 293 l 1329 282 l 629 282 l 711 217 q 705 206 716 212 q 613 163 656 195 q 369 -16 505 71 q 613 -5 429 -16 q 993 16 868 11 q 836 184 933 98 l 846 195 q 1123 38 1004 125 q 1177 -49 1172 5 q 1112 -152 1166 -136 q 1080 -130 1096 -152 q 1020 -22 1053 -71 q 776 -49 939 -33 q 380 -98 488 -81 q 282 -130 336 -103 q 266 -125 271 -130 l 222 -16 q 358 49 304 -5 q 477 168 429 109 q 559 282 526 228 l 146 282 l 71 271 l 54 315 l 369 315 l 369 1080 l 488 1015 l 890 1015 l 939 1085 l 1058 1004 q 1058 993 1069 1004 l 1009 949 l 1009 315 l 1123 315 l 1199 412 m 906 982 l 472 982 l 472 781 l 906 781 l 906 982 m 472 515 l 472 315 l 906 315 l 906 515 l 472 515 m 472 749 l 472 548 l 906 548 l 906 749 l 472 749 z "},"及":{"ha":1389,"x_min":49,"x_max":1340,"o":"m 1058 971 l 998 933 l 906 646 l 1031 646 l 1090 722 l 1210 629 q 1210 618 1221 618 l 1156 586 q 906 179 1053 326 q 1340 -71 1047 49 l 1329 -87 q 1177 -146 1215 -65 q 825 103 955 -27 q 184 -152 613 -65 l 179 -130 q 765 174 597 11 q 548 705 629 353 q 65 -130 510 136 l 49 -109 q 456 966 461 201 l 298 966 l 222 955 l 206 998 l 884 998 l 944 1074 l 1058 982 q 1058 971 1069 971 m 564 966 q 559 879 564 933 q 559 803 559 825 q 836 244 656 423 q 1047 613 955 380 l 906 613 l 846 564 l 765 640 q 765 651 760 651 l 814 684 l 901 966 l 564 966 z "},"友":{"ha":1389,"x_min":54,"x_max":1340,"o":"m 1194 933 l 1324 819 l 1313 808 l 613 808 q 543 570 586 684 l 944 570 l 1004 640 l 1118 543 q 1118 526 1128 537 l 1063 499 q 884 152 977 266 q 1340 -27 1036 27 l 1335 -43 q 1199 -130 1232 -43 q 814 81 955 -54 q 244 -152 651 -76 l 233 -130 q 749 157 591 -22 q 586 537 656 288 l 532 537 q 71 -114 391 141 l 54 -98 q 505 808 385 288 l 179 808 l 103 798 l 87 841 l 515 841 q 537 955 526 906 q 553 1123 548 1036 l 711 1058 q 705 1047 722 1053 q 651 971 656 1031 q 640 933 646 960 q 624 841 629 873 l 1118 841 l 1194 933 m 955 537 l 624 537 q 808 222 694 342 q 955 537 901 353 z "},"双":{"ha":1389,"x_min":43,"x_max":1362,"o":"m 1210 -119 q 922 168 1015 22 q 418 -157 792 0 l 407 -136 q 873 255 743 60 q 732 917 765 477 l 673 911 l 656 949 l 1090 949 l 1150 1025 l 1264 933 q 1275 928 1275 928 q 1264 917 1275 922 l 1215 879 q 987 250 1118 439 q 1362 -38 1112 81 l 1351 -60 q 1210 -119 1237 -49 m 602 255 q 629 179 629 217 q 559 81 618 103 q 532 114 537 81 q 412 358 483 228 q 60 -76 288 119 l 43 -54 q 358 445 239 174 q 174 700 304 526 q 146 738 157 727 l 157 754 q 342 575 233 689 q 391 526 374 543 q 505 911 467 705 l 168 911 l 103 906 l 87 944 l 488 944 l 543 1015 l 656 928 q 656 911 667 922 l 602 879 q 461 445 548 640 q 602 255 532 358 m 1107 917 l 776 917 q 928 342 836 505 q 1107 917 1042 548 z "},"叙":{"ha":1389,"x_min":33,"x_max":1356,"o":"m 1210 -119 q 977 136 1053 11 q 521 -146 841 -43 l 510 -130 q 933 228 808 22 q 803 884 836 445 l 743 879 l 727 917 l 1112 917 l 1166 993 l 1286 901 q 1291 901 1286 901 q 1286 884 1297 895 l 1232 846 q 1042 222 1156 401 q 1356 -49 1156 54 l 1351 -65 q 1210 -119 1242 -54 m 488 -27 q 358 -146 494 -98 q 336 -136 336 -152 q 179 -22 331 -60 l 184 0 l 320 -16 q 385 49 391 -22 l 385 407 l 141 407 l 87 401 l 71 439 l 385 439 l 385 646 l 298 646 l 244 640 l 228 667 q 54 505 157 586 l 43 521 q 326 971 222 738 q 380 1128 358 1053 l 510 1058 q 510 1042 521 1053 q 461 1009 488 1036 q 662 911 591 960 q 722 825 727 873 q 667 738 711 754 q 629 765 646 738 q 445 987 553 895 q 439 982 445 987 q 434 971 439 977 q 239 678 363 830 l 510 678 l 575 760 l 689 662 l 684 646 l 488 646 l 488 439 l 597 439 l 662 526 l 787 423 l 776 407 l 488 407 l 488 -27 m 1128 884 l 841 884 q 982 320 890 532 q 1128 884 1080 521 m 222 353 l 342 277 q 342 266 353 271 q 266 195 298 255 q 49 -60 168 54 l 33 -43 q 222 353 163 163 m 526 315 l 537 331 q 738 206 656 277 q 765 152 765 184 q 700 60 754 76 q 662 92 678 60 q 526 315 618 222 z "},"叠":{"ha":1389,"x_min":54,"x_max":1351,"o":"m 1210 16 l 1329 -87 l 1324 -98 l 136 -98 l 71 -109 l 54 -71 l 363 -71 l 363 401 l 483 342 l 884 342 l 939 412 l 1053 331 q 1053 315 1063 326 l 1009 277 l 1009 -71 l 1145 -71 l 1210 16 m 564 819 l 646 743 q 646 727 656 738 l 591 711 q 494 635 543 667 q 515 629 499 629 q 532 624 526 624 q 613 553 613 608 q 575 499 608 510 q 548 510 564 499 q 543 515 553 510 q 505 537 532 521 q 418 591 483 559 q 222 510 336 543 q 228 494 222 505 q 233 472 228 477 l 1172 472 l 1232 532 l 1340 434 q 1340 418 1351 423 l 1280 401 l 1128 293 l 1112 304 l 1183 439 l 233 439 q 228 353 239 391 q 141 266 206 277 q 81 315 87 271 q 109 347 81 331 q 195 499 179 391 q 92 472 146 483 l 87 488 q 347 618 255 559 q 190 667 277 646 l 195 684 q 401 656 309 673 q 499 743 450 694 l 222 743 l 168 732 l 152 770 l 505 770 l 564 819 m 380 971 q 700 939 553 955 q 863 1025 781 977 l 385 1025 l 320 1015 l 304 1058 l 868 1058 l 939 1101 l 1025 1020 q 1020 1004 1031 1015 l 960 993 q 814 922 895 955 q 895 906 846 911 q 911 901 906 901 q 1004 836 998 879 q 966 781 998 787 q 922 798 955 781 q 711 884 836 846 q 271 787 526 819 l 260 808 q 618 906 445 852 q 434 944 564 922 q 374 955 396 949 l 380 971 m 700 684 q 933 651 830 667 q 1058 749 998 694 l 743 749 l 684 738 l 667 776 l 1058 776 l 1118 825 l 1204 738 q 1204 727 1215 732 l 1145 716 q 1020 624 1085 667 q 1053 618 1031 624 q 1080 608 1069 613 q 1161 537 1161 581 q 1128 483 1161 488 q 1090 499 1112 477 q 939 581 1025 548 q 608 477 803 515 l 602 494 q 868 613 754 548 q 808 635 846 618 q 694 667 738 656 l 700 684 m 467 38 l 467 -71 l 906 -71 l 906 38 l 467 38 m 467 174 l 467 71 l 906 71 l 906 174 l 467 174 m 906 309 l 467 309 l 467 206 l 906 206 l 906 309 z "},"口":{"ha":1389,"x_min":239,"x_max":1204,"o":"m 1145 -11 q 1031 -54 1123 -49 l 1031 119 l 353 119 l 353 -22 q 239 -65 315 -54 q 244 179 244 54 q 244 608 244 266 l 244 993 l 369 928 l 1015 928 l 1069 1004 l 1194 922 q 1194 906 1204 917 l 1139 857 l 1139 684 q 1139 401 1139 635 q 1145 -11 1145 81 m 1031 895 l 353 895 l 353 152 l 1031 152 l 1031 895 z "},"古":{"ha":1389,"x_min":54,"x_max":1345,"o":"m 1210 895 l 1345 781 l 1335 770 l 738 770 l 738 445 l 955 445 l 1015 521 l 1134 434 q 1134 423 1145 423 l 1085 380 l 1085 250 q 1090 60 1085 195 q 1090 -114 1090 -65 q 977 -152 1063 -141 l 977 -11 l 391 -11 l 391 -119 q 277 -152 336 -152 q 282 271 282 -65 l 282 510 l 407 445 l 635 445 l 635 770 l 152 770 l 76 760 l 54 803 l 635 803 l 635 1134 l 787 1069 q 798 1063 798 1063 q 787 1053 798 1058 l 738 1020 l 738 803 l 1134 803 l 1210 895 m 977 412 l 391 412 l 391 22 l 977 22 l 977 412 z "},"句":{"ha":1389,"x_min":60,"x_max":1280,"o":"m 852 190 q 749 146 814 152 l 749 228 l 456 228 l 456 136 q 353 92 407 92 q 358 195 353 130 q 363 548 363 396 l 363 689 l 472 629 l 732 629 l 781 700 l 895 624 q 895 608 906 618 l 846 570 l 846 537 q 852 353 846 477 q 852 190 852 244 m 1112 857 l 391 857 q 76 445 266 618 l 60 461 q 331 966 239 716 q 391 1139 369 1053 l 532 1063 q 543 1058 543 1058 q 532 1047 543 1053 q 450 966 483 1036 q 412 890 429 928 l 1090 890 l 1145 971 l 1270 884 q 1270 868 1280 879 l 1215 825 q 1199 114 1215 353 q 982 -152 1204 -87 q 966 -146 966 -157 q 760 5 966 -49 l 765 27 l 949 0 q 1090 136 1090 -22 q 1112 857 1112 320 m 749 597 l 456 597 l 456 266 l 749 266 l 749 597 z "},"召":{"ha":1389,"x_min":54,"x_max":1215,"o":"m 141 987 l 1036 987 l 1085 1058 l 1204 977 q 1204 966 1215 971 l 1156 928 q 1134 770 1150 873 q 1118 640 1123 684 q 901 467 1101 499 q 884 472 884 461 q 716 613 895 559 l 722 635 l 890 602 q 1015 684 1004 581 q 1053 955 1047 841 l 635 955 q 353 456 575 597 l 472 391 l 977 391 l 1031 472 l 1156 385 q 1156 369 1166 380 l 1107 326 l 1107 255 q 1112 -114 1107 -5 q 993 -152 1063 -152 l 993 -27 l 456 -27 l 456 -114 q 342 -157 423 -146 q 353 217 353 5 l 353 456 q 65 309 260 385 l 54 331 q 521 955 472 537 l 233 955 l 157 944 l 141 987 m 993 358 l 456 358 l 456 5 l 993 5 l 993 358 z "},"台":{"ha":1389,"x_min":152,"x_max":1237,"o":"m 1090 -114 q 982 -152 1063 -141 l 982 -22 l 401 -22 l 401 -119 q 293 -152 347 -152 q 298 271 298 -65 l 298 456 l 423 391 l 966 391 l 1020 472 l 1139 385 q 1139 374 1150 374 l 1090 331 l 1090 250 q 1090 -114 1090 60 m 982 358 l 401 358 l 401 16 l 982 16 l 982 358 m 852 906 q 1188 705 1058 808 q 1237 613 1237 662 q 1177 510 1232 526 q 1139 537 1161 510 q 1080 629 1118 586 q 863 608 1015 624 q 326 553 488 575 q 217 521 282 548 q 212 521 212 521 q 201 526 201 521 l 152 656 q 293 722 228 656 q 537 1004 423 857 q 613 1134 591 1080 l 743 1053 q 738 1036 754 1036 q 667 998 700 1036 q 293 646 515 836 q 1053 673 472 646 q 836 890 960 781 l 852 906 z "},"右":{"ha":1389,"x_min":49,"x_max":1335,"o":"m 1204 939 l 1335 825 l 1324 814 l 624 814 q 467 499 553 629 l 543 461 l 998 461 l 1053 537 l 1166 456 q 1166 439 1177 450 l 1123 401 l 1123 353 q 1128 -114 1123 38 q 1015 -152 1080 -146 l 1015 -11 l 515 -11 l 515 -119 q 407 -152 472 -152 q 412 374 412 -16 l 412 423 q 65 114 293 271 l 49 136 q 510 814 363 423 l 163 814 l 87 803 l 71 846 l 526 846 q 559 944 537 879 q 564 966 564 960 q 602 1128 597 1047 l 749 1058 q 743 1042 754 1053 q 678 971 700 1031 q 635 846 662 906 l 1128 846 l 1204 939 m 1015 429 l 515 429 l 515 22 l 1015 22 l 1015 429 z "},"叶":{"ha":1389,"x_min":119,"x_max":1329,"o":"m 505 228 q 412 195 477 206 l 412 304 l 217 304 l 217 174 q 119 141 179 141 q 119 331 119 190 q 125 559 125 494 l 125 977 l 233 911 l 391 911 l 439 987 l 548 911 q 548 895 559 906 l 505 852 l 505 228 m 841 1128 l 993 1063 q 993 1047 1004 1058 l 944 1009 l 944 640 l 1139 640 l 1204 727 l 1329 618 l 1318 608 l 944 608 l 944 363 q 944 195 944 315 q 949 -119 949 0 q 836 -157 911 -157 q 841 363 841 38 l 841 608 l 618 608 l 553 597 l 537 640 l 841 640 l 841 1128 m 412 879 l 217 879 l 217 336 l 412 336 l 412 879 z "},"各":{"ha":1389,"x_min":54,"x_max":1335,"o":"m 456 1134 l 602 1074 q 597 1058 613 1058 q 526 998 553 1047 q 510 971 521 987 q 494 939 499 949 l 911 939 l 977 1004 l 1096 901 q 1096 884 1107 890 l 1025 852 q 787 613 906 711 q 1335 461 966 515 l 1329 439 q 1210 353 1226 429 q 711 553 901 429 q 369 385 564 456 l 477 326 l 928 326 l 987 401 l 1107 315 q 1107 298 1118 309 l 1058 260 l 1058 233 q 1063 -114 1058 -27 q 949 -152 1015 -146 l 949 -27 l 456 -27 l 456 -114 q 347 -152 407 -152 q 353 206 353 -16 l 353 380 q 87 293 271 347 q 65 288 228 336 l 54 309 q 635 613 456 467 q 429 846 526 711 q 125 537 298 667 l 114 553 q 412 1004 326 803 q 456 1134 439 1063 m 949 293 l 456 293 l 456 5 l 949 5 l 949 293 m 922 906 l 472 906 q 461 895 472 901 q 450 879 456 884 q 700 662 581 738 q 922 906 814 770 z "},"合":{"ha":1389,"x_min":49,"x_max":1351,"o":"m 1047 -114 q 933 -152 987 -152 l 933 -33 l 445 -33 l 445 -114 q 331 -152 396 -152 q 336 -22 336 -98 q 336 217 336 38 l 336 412 l 467 347 l 917 347 l 966 418 l 1090 336 q 1090 320 1101 331 l 1042 282 l 1042 222 q 1047 -114 1042 -16 m 933 315 l 445 315 l 445 5 l 933 5 l 933 315 m 49 467 q 553 971 374 689 q 646 1139 602 1042 l 781 1063 q 776 1053 787 1058 q 738 1036 754 1047 q 1351 602 971 705 l 1345 581 q 1204 505 1242 586 q 711 1020 879 662 q 700 1004 705 1015 q 684 982 689 987 q 60 445 467 640 l 49 467 m 906 667 l 1031 564 l 1020 548 l 434 548 l 363 543 l 342 586 l 841 586 l 906 667 z "},"吉":{"ha":1389,"x_min":65,"x_max":1324,"o":"m 1074 -119 q 960 -157 1025 -157 l 960 -5 l 429 -5 l 429 -114 q 315 -152 380 -152 q 320 217 320 -81 l 320 434 l 450 369 l 939 369 l 993 445 l 1118 358 q 1118 342 1128 353 l 1069 304 l 1069 228 q 1074 -119 1069 -22 m 960 331 l 429 331 l 429 27 l 960 27 l 960 331 m 640 1134 l 792 1063 q 792 1053 808 1063 l 743 1015 l 743 863 l 1118 863 l 1194 955 l 1324 841 l 1318 830 l 743 830 l 743 591 l 1015 591 l 1085 678 l 1215 570 l 1210 553 l 271 553 l 195 548 l 179 591 l 640 591 l 640 830 l 157 830 l 81 819 l 65 863 l 640 863 l 640 1134 z "},"同":{"ha":1389,"x_min":163,"x_max":1270,"o":"m 174 1058 l 298 998 l 1080 998 l 1134 1074 l 1259 993 q 1259 977 1270 987 l 1210 933 l 1210 -27 q 1063 -152 1215 -109 q 1042 -141 1047 -157 q 857 -16 1047 -49 l 863 11 l 1036 -11 q 1107 54 1112 -22 l 1107 960 l 277 960 l 277 -114 q 163 -152 239 -152 q 174 467 174 98 l 174 1058 m 450 396 l 450 618 l 564 564 l 814 564 l 863 635 l 971 559 q 971 543 982 553 l 928 505 l 928 391 q 928 309 928 369 q 933 174 933 212 q 836 136 895 141 l 836 228 l 543 228 l 543 136 q 445 98 505 98 q 450 396 450 190 m 836 532 l 543 532 l 543 266 l 836 266 l 836 532 m 939 857 l 1053 760 l 1047 743 l 412 743 l 358 738 l 342 781 l 879 781 l 939 857 z "},"名":{"ha":1389,"x_min":43,"x_max":1215,"o":"m 537 1139 l 667 1058 q 678 1047 673 1053 q 667 1042 673 1042 q 575 966 613 1031 l 548 917 l 977 917 l 1042 987 l 1161 879 q 1156 863 1172 873 l 1090 841 q 559 347 884 543 l 1025 347 l 1080 423 l 1204 342 q 1204 326 1215 336 l 1156 288 l 1156 212 q 1161 -119 1156 -11 q 1047 -157 1123 -146 l 1047 -33 l 526 -33 l 526 -119 q 412 -157 477 -157 q 418 168 418 -65 l 418 266 q 49 125 250 184 l 43 141 q 418 336 250 233 l 418 401 l 472 380 q 987 884 798 602 l 526 884 q 119 439 342 613 l 103 456 q 537 1139 407 814 m 1047 315 l 526 315 l 526 0 l 1047 0 l 1047 315 m 456 749 q 613 673 537 716 q 667 597 673 635 q 608 510 662 526 q 575 543 591 510 q 445 732 532 646 l 456 749 z "},"后":{"ha":1389,"x_min":38,"x_max":1318,"o":"m 1150 -98 q 1042 -136 1118 -130 l 1042 -11 l 564 -11 l 564 -114 q 450 -152 515 -152 q 456 179 456 -60 l 456 472 l 586 412 l 1020 412 l 1074 488 l 1194 401 q 1194 391 1204 396 l 1145 347 l 1145 233 q 1145 81 1145 195 q 1150 -98 1150 -49 m 255 998 l 374 939 q 971 1047 694 977 q 1112 1096 1053 1063 l 1199 982 q 1188 971 1204 971 q 1085 966 1145 977 q 1069 966 1074 966 q 358 901 656 917 l 358 678 l 1112 678 l 1188 770 l 1318 656 l 1313 646 l 358 646 q 54 -146 385 92 l 38 -130 q 212 212 168 43 q 255 684 255 380 l 255 998 m 1042 374 l 564 374 l 564 22 l 1042 22 l 1042 374 z "},"吐":{"ha":1389,"x_min":119,"x_max":1340,"o":"m 515 206 q 412 168 477 174 l 412 282 l 222 282 l 222 130 q 119 87 174 87 q 119 374 119 168 q 125 694 125 602 l 125 949 l 239 884 l 391 884 l 445 960 l 559 879 q 559 868 570 873 l 510 825 l 510 667 q 515 206 510 326 m 1150 716 l 1270 602 l 1264 591 l 939 591 l 939 -22 l 1134 -22 l 1210 71 l 1340 -43 l 1335 -54 l 505 -54 l 429 -65 l 412 -22 l 836 -22 l 836 591 l 646 591 l 564 586 l 548 624 l 836 624 l 836 1118 l 993 1047 q 993 1031 1004 1042 l 939 993 l 939 624 l 1080 624 l 1150 716 m 412 852 l 222 852 l 222 315 l 412 315 l 412 852 z "},"向":{"ha":1389,"x_min":184,"x_max":1259,"o":"m 581 1139 l 716 1074 q 716 1058 727 1069 q 646 998 678 1053 q 559 868 602 922 l 1074 868 l 1128 944 l 1248 863 q 1248 846 1259 857 l 1199 803 l 1199 -27 q 1053 -152 1204 -103 q 1031 -141 1036 -157 q 846 -11 1036 -54 l 852 11 l 1025 -5 q 1090 54 1096 -22 l 1090 836 l 293 836 l 293 -103 q 184 -152 250 -152 q 184 76 184 -103 q 190 494 190 369 l 190 933 l 315 868 l 499 868 q 581 1139 543 987 m 901 195 q 798 157 857 163 l 798 239 l 575 239 l 575 163 q 472 125 532 125 q 477 526 477 228 l 477 662 l 597 602 l 776 602 l 830 673 l 939 597 q 939 586 949 591 l 895 548 l 895 494 q 901 195 895 282 m 798 570 l 575 570 l 575 271 l 798 271 l 798 570 z "},"吕":{"ha":1389,"x_min":250,"x_max":1204,"o":"m 1150 -119 q 1042 -152 1128 -141 l 1042 -16 l 363 -16 l 363 -119 q 250 -152 309 -152 q 255 54 250 -103 q 255 217 255 184 l 255 467 l 380 396 l 1020 396 l 1074 477 l 1194 391 q 1194 380 1204 385 l 1150 336 l 1150 195 q 1150 -119 1150 54 m 1058 548 q 949 515 1015 526 l 949 613 l 439 613 l 439 543 q 331 510 396 510 q 336 803 336 602 l 336 1053 l 456 998 l 928 998 l 982 1069 l 1096 987 q 1096 977 1107 982 l 1053 933 l 1053 830 q 1058 548 1053 656 m 1042 363 l 363 363 l 363 16 l 1042 16 l 1042 363 m 949 960 l 439 960 l 439 646 l 949 646 l 949 960 z "},"君":{"ha":1389,"x_min":54,"x_max":1335,"o":"m 1210 868 l 1335 760 l 1329 749 l 1096 749 q 1101 483 1096 537 q 993 450 1047 450 l 993 526 l 537 526 q 456 353 505 429 l 532 315 l 1004 315 l 1063 391 l 1183 304 q 1183 293 1194 298 l 1128 244 l 1128 222 q 1139 -119 1128 60 q 1025 -157 1090 -152 l 1025 -33 l 521 -33 l 521 -125 q 407 -163 461 -163 q 412 16 412 -81 q 412 282 412 103 l 412 293 q 65 -22 304 141 l 54 -5 q 429 526 353 277 l 233 526 l 174 515 l 157 559 l 439 559 q 483 749 467 640 l 152 749 l 81 738 l 65 781 l 488 781 q 510 966 505 868 l 282 966 l 217 960 l 201 998 l 977 998 l 1025 1074 l 1145 993 q 1145 977 1156 987 l 1096 939 l 1096 819 l 1096 781 l 1145 781 l 1210 868 m 1025 282 l 521 282 l 521 0 l 1025 0 l 1025 282 m 591 749 q 548 559 575 640 l 993 559 l 993 749 l 591 749 m 993 966 l 618 966 q 597 781 613 868 l 993 781 l 993 966 z "},"含":{"ha":1389,"x_min":38,"x_max":1345,"o":"m 1058 -119 q 944 -152 1004 -146 l 944 -38 l 429 -38 l 429 -125 q 315 -157 374 -157 q 326 179 326 5 l 326 363 l 450 298 l 928 298 l 977 369 l 1096 293 q 1096 277 1107 288 l 1053 239 l 1053 141 q 1058 -119 1053 -49 m 944 266 l 429 266 l 429 -5 l 944 -5 l 944 266 m 38 548 q 570 1015 385 754 q 651 1145 618 1080 l 776 1069 q 776 1053 787 1058 q 738 1042 754 1053 q 1345 705 982 765 l 1340 684 q 1210 597 1232 684 q 705 1020 873 738 q 694 1009 705 1015 q 684 993 689 998 q 49 532 467 689 l 38 548 m 315 586 l 863 586 l 922 651 l 1036 559 q 1031 548 1047 548 l 971 515 l 857 326 q 760 336 776 326 l 873 548 l 401 548 l 331 543 l 315 586 m 608 846 q 760 765 705 808 q 787 711 787 743 q 716 629 770 646 q 684 656 689 629 q 597 836 667 743 l 608 846 z "},"启":{"ha":1389,"x_min":65,"x_max":1259,"o":"m 624 1139 q 781 1069 722 1118 q 819 1015 819 1053 q 760 922 814 960 l 1069 922 l 1123 993 l 1237 917 q 1237 906 1248 911 l 1194 863 l 1194 781 q 1199 564 1194 613 q 1090 526 1161 532 l 1090 613 l 396 613 q 331 168 396 315 q 81 -130 277 22 l 65 -114 q 244 201 201 49 q 293 640 293 358 l 293 987 l 412 922 l 732 922 q 727 928 732 922 q 716 944 716 933 q 618 1128 689 1053 l 624 1139 m 1204 -109 q 1090 -146 1156 -141 l 1090 -11 l 575 -11 l 575 -109 q 467 -152 532 -152 q 477 304 477 114 l 477 439 l 602 380 l 1069 380 l 1123 456 l 1248 363 q 1248 353 1259 358 l 1194 309 l 1194 239 q 1204 -109 1194 71 m 1090 890 l 396 890 l 396 651 l 1090 651 l 1090 890 m 1090 342 l 575 342 l 575 22 l 1090 22 l 1090 342 z "},"吴":{"ha":1389,"x_min":54,"x_max":1335,"o":"m 1063 684 q 955 651 1015 651 l 955 705 l 429 705 l 429 662 q 320 624 391 624 q 326 949 326 798 l 326 1069 l 445 1009 l 939 1009 l 987 1085 l 1107 1009 q 1118 1004 1118 1004 q 1107 993 1118 998 l 1058 949 l 1058 911 q 1063 798 1058 873 q 1063 684 1063 727 m 1194 401 l 1318 293 l 1313 277 l 787 277 q 1335 -43 949 16 l 1329 -65 q 1199 -146 1232 -71 q 749 277 846 -27 l 684 277 q 65 -157 602 -60 l 54 -136 q 575 277 494 5 l 179 277 l 114 271 l 98 309 l 586 309 q 624 510 608 396 l 288 510 l 212 499 l 195 543 l 1009 543 l 1080 624 l 1199 521 l 1188 510 l 732 510 q 694 309 716 396 l 1123 309 l 1194 401 m 955 977 l 429 977 l 429 738 l 955 738 l 955 977 z "},"吾":{"ha":1389,"x_min":54,"x_max":1340,"o":"m 228 787 l 494 787 l 548 987 l 217 987 l 152 977 l 136 1020 l 1047 1020 l 1118 1107 l 1248 998 l 1237 987 l 662 987 l 608 787 l 901 787 l 955 863 l 1074 781 q 1074 765 1085 776 l 1025 722 l 1025 488 l 1139 488 l 1210 575 l 1340 467 l 1335 456 l 141 456 l 71 445 l 54 488 l 412 488 l 488 754 l 309 754 l 244 743 l 228 787 m 1085 -114 q 971 -146 1031 -146 l 971 -49 l 429 -49 l 429 -125 q 315 -157 374 -157 q 315 -33 315 -119 q 320 152 320 81 l 320 358 l 445 293 l 949 293 l 1004 369 l 1128 282 q 1128 266 1139 277 l 1080 228 l 1080 174 q 1085 -114 1080 -5 m 971 260 l 429 260 l 429 -16 l 971 -16 l 971 260 m 922 754 l 597 754 l 526 488 l 922 488 l 922 754 z "},"呈":{"ha":1389,"x_min":54,"x_max":1329,"o":"m 1090 613 q 982 575 1042 575 l 982 646 l 412 646 l 412 591 q 309 553 374 553 q 315 738 309 613 q 315 901 315 852 l 315 1058 l 434 998 l 960 998 l 1015 1074 l 1134 998 q 1134 982 1145 993 l 1085 939 l 1085 879 q 1090 613 1085 689 m 1096 315 l 1215 206 l 1210 195 l 749 195 l 749 -49 l 1118 -49 l 1199 49 l 1329 -71 l 1318 -81 l 152 -81 l 76 -92 l 54 -49 l 640 -49 l 640 195 l 304 195 l 233 184 l 217 228 l 640 228 l 640 429 l 244 429 l 168 423 l 152 467 l 1058 467 l 1128 553 l 1253 445 l 1248 429 l 749 429 l 749 228 l 1025 228 l 1096 315 m 982 966 l 412 966 l 412 678 l 982 678 l 982 966 z "},"员":{"ha":1389,"x_min":65,"x_max":1242,"o":"m 1058 738 q 955 700 1015 705 l 955 754 l 450 754 l 450 722 q 347 684 407 684 q 353 966 353 798 l 353 1074 l 467 1015 l 933 1015 l 987 1090 l 1101 1009 q 1101 998 1118 1004 l 1053 955 l 1053 928 q 1053 836 1053 901 q 1058 738 1058 770 m 1025 559 l 380 559 l 380 146 q 277 109 347 114 q 282 326 277 179 q 282 510 282 456 l 282 651 l 401 591 l 1004 591 l 1063 667 l 1177 591 q 1177 575 1188 586 l 1128 532 l 1128 499 q 1134 184 1128 277 q 1025 146 1096 146 l 1025 559 m 955 982 l 450 982 l 450 787 l 955 787 l 955 982 m 640 494 l 787 450 q 798 445 798 445 q 787 434 798 439 q 754 369 754 412 q 71 -157 792 -103 l 65 -136 q 526 60 418 -49 q 646 385 651 163 q 640 494 646 450 m 743 141 q 1188 5 1053 81 q 1242 -71 1242 -16 q 1188 -152 1237 -146 q 1145 -130 1177 -152 q 738 125 982 22 l 743 141 z "},"周":{"ha":1389,"x_min":49,"x_max":1253,"o":"m 239 1074 l 363 1015 l 1069 1015 l 1123 1090 l 1242 1009 q 1242 993 1253 1004 l 1194 955 l 1194 -33 q 1047 -152 1194 -114 q 1025 -146 1031 -163 q 846 -22 1020 -54 l 852 5 l 1020 -11 q 1090 49 1096 -27 l 1090 982 l 342 982 l 342 635 q 288 141 342 288 q 65 -157 239 -16 l 49 -141 q 201 174 168 22 q 239 667 239 331 l 239 1074 m 477 331 l 477 477 l 586 418 l 814 418 l 857 488 l 966 412 q 966 396 977 407 l 922 358 l 922 309 q 928 98 922 163 q 830 60 890 65 l 830 146 l 570 146 l 570 71 q 472 33 521 33 q 477 331 477 130 m 651 960 l 787 901 q 787 890 803 901 l 743 852 l 743 781 l 841 781 l 895 852 l 993 760 l 987 749 l 743 749 l 743 586 l 890 586 l 955 662 l 1058 564 l 1053 548 l 445 548 l 391 543 l 374 586 l 651 586 l 651 749 l 505 749 l 450 743 l 434 781 l 651 781 l 651 960 m 830 385 l 570 385 l 570 179 l 830 179 l 830 385 z "},"呼":{"ha":1389,"x_min":119,"x_max":1340,"o":"m 125 738 l 125 987 l 233 928 l 358 928 l 407 998 l 510 922 q 521 917 521 917 q 510 906 521 911 l 467 868 l 467 689 q 472 217 467 331 q 374 174 429 179 l 374 288 l 217 288 l 217 141 q 119 103 179 103 q 125 738 125 277 m 1221 537 l 1340 429 l 1335 418 l 960 418 l 960 -33 q 825 -157 966 -114 q 803 -146 808 -163 q 629 -22 808 -60 l 635 0 l 798 -16 q 857 43 868 -33 l 857 418 l 586 418 l 515 407 l 499 450 l 857 450 l 857 917 q 543 890 662 895 l 537 911 q 1042 1036 895 987 q 1156 1096 1107 1063 l 1248 982 q 1237 971 1253 966 q 1112 960 1161 971 q 1031 944 1085 955 q 960 933 987 939 l 960 450 l 1150 450 l 1221 537 m 374 895 l 217 895 l 217 320 l 374 320 l 374 895 m 1145 857 l 1264 776 q 1264 765 1280 765 q 1199 716 1232 760 q 1025 499 1128 608 l 1004 515 q 1145 857 1101 711 m 586 819 q 749 684 684 754 q 781 613 781 651 q 711 521 770 537 q 673 564 684 521 q 575 808 662 667 l 586 819 z "},"和":{"ha":1389,"x_min":49,"x_max":1291,"o":"m 1248 16 q 1139 -22 1221 -11 l 1139 125 l 895 125 l 895 -11 q 787 -49 857 -49 q 792 477 792 87 l 792 944 l 911 890 l 1118 890 l 1172 966 l 1291 884 q 1291 868 1291 879 l 1242 830 l 1242 483 q 1248 16 1242 174 m 656 765 l 776 656 l 770 646 l 483 646 l 483 521 q 678 418 624 461 q 722 358 722 391 q 662 266 716 288 q 629 293 646 266 q 483 488 581 401 q 488 -119 483 114 q 380 -157 445 -152 q 385 477 385 33 q 65 71 255 255 l 49 87 q 369 646 244 347 l 163 646 l 87 635 l 71 678 l 385 678 l 385 922 q 109 895 206 901 l 103 911 q 548 1042 336 966 q 646 1090 608 1069 l 727 982 q 716 971 732 966 q 640 966 694 977 q 624 966 678 977 q 553 955 602 960 q 483 939 510 944 l 483 678 l 586 678 l 656 765 m 1139 857 l 895 857 l 895 157 l 1139 157 l 1139 857 z "},"咸":{"ha":1389,"x_min":27,"x_max":1351,"o":"m 304 586 q 250 163 304 309 q 43 -136 201 22 l 27 -119 q 163 184 130 43 q 201 597 201 331 l 201 928 l 315 857 l 808 857 q 798 1128 808 998 l 955 1058 q 955 1042 966 1053 l 906 1009 q 906 890 906 944 l 906 857 l 1139 857 l 1204 949 l 1335 836 l 1329 825 l 906 825 q 977 309 911 488 q 1074 553 1042 423 q 1096 705 1096 651 l 1237 640 q 1232 624 1248 635 q 1177 548 1194 613 q 1031 206 1112 326 q 1210 5 1096 92 q 1242 16 1237 -11 l 1297 212 l 1318 206 l 1313 60 q 1351 -125 1302 -49 q 1302 -146 1335 -141 q 993 76 1156 -152 q 982 87 987 81 q 966 119 977 98 q 521 -157 830 -33 l 510 -136 q 917 206 776 11 q 808 825 819 412 l 304 825 l 304 586 m 738 109 q 646 76 700 76 l 646 152 l 477 152 l 477 71 q 385 38 434 38 q 391 206 385 87 q 391 326 391 298 l 391 505 l 494 450 l 629 450 l 673 510 l 776 445 q 776 429 787 439 l 738 396 l 738 331 q 738 109 738 228 m 646 418 l 477 418 l 477 179 l 646 179 l 646 418 m 673 716 l 787 624 l 776 608 l 401 608 l 347 602 l 331 646 l 618 646 l 673 716 m 993 1101 q 1139 1025 1074 1069 q 1166 982 1166 1009 q 1107 901 1156 911 q 1074 933 1085 895 q 982 1085 1047 1009 l 993 1101 z "},"哈":{"ha":1389,"x_min":114,"x_max":1362,"o":"m 819 1128 l 960 1063 q 960 1047 971 1058 q 917 1031 933 1042 q 1362 581 1074 711 l 1356 559 q 1237 499 1264 570 q 895 1004 998 667 q 895 998 895 1004 q 890 993 890 998 q 456 467 738 662 q 461 206 461 363 q 369 163 418 168 l 369 304 l 206 304 l 206 141 q 114 98 174 109 q 119 727 119 277 l 119 960 l 222 906 l 347 906 l 396 971 l 499 895 q 499 884 515 890 l 456 846 l 456 684 l 456 505 q 770 977 662 722 q 781 1015 776 987 q 819 1128 814 1096 m 1161 -103 q 1053 -141 1123 -136 l 1053 -16 l 689 -16 l 689 -114 q 575 -152 629 -152 q 581 -33 575 -109 q 586 309 586 146 l 586 429 l 705 369 l 1031 369 l 1090 445 l 1204 363 q 1204 347 1215 358 l 1156 309 l 1156 244 q 1161 -103 1156 98 m 1053 336 l 689 336 l 689 22 l 1053 22 l 1053 336 m 369 873 l 206 873 l 206 336 l 369 336 l 369 873 m 998 673 l 1118 564 l 1112 553 l 722 553 l 651 543 l 635 586 l 933 586 l 998 673 z "},"响":{"ha":1389,"x_min":109,"x_max":1302,"o":"m 814 1139 l 944 1074 q 944 1058 955 1069 q 884 1015 906 1047 q 798 868 846 944 l 1134 868 l 1188 944 l 1302 868 q 1302 857 1302 857 l 1248 808 l 1248 -27 q 1112 -146 1253 -103 q 1090 -141 1090 -157 q 933 -27 1090 -54 l 939 -5 l 1085 -16 q 1156 43 1161 -27 l 1156 836 l 624 836 l 624 -119 q 532 -152 591 -152 q 537 320 537 -54 l 537 933 l 651 868 l 743 868 q 808 1107 770 949 q 814 1139 814 1128 m 114 537 l 114 955 l 222 901 l 320 901 l 369 966 l 472 895 q 472 879 483 890 l 429 841 l 429 195 q 342 163 385 163 l 342 271 l 201 271 l 201 152 q 109 114 163 119 q 109 304 109 163 q 114 537 114 472 m 732 445 l 732 689 l 836 635 l 944 635 l 993 700 l 1090 629 q 1090 613 1101 624 l 1047 575 l 1047 412 q 1053 201 1047 266 q 966 163 1009 168 l 966 250 l 819 250 l 819 184 q 727 146 776 146 q 732 445 732 239 m 342 868 l 201 868 l 201 304 l 342 304 l 342 868 m 966 602 l 819 602 l 819 282 l 966 282 l 966 602 z "},"唐":{"ha":1389,"x_min":33,"x_max":1329,"o":"m 363 760 l 684 760 l 684 911 l 819 857 q 819 841 830 857 l 781 814 l 781 760 l 1009 760 l 1058 830 l 1172 754 q 1172 743 1177 749 l 1128 705 l 1128 608 l 1128 591 l 1166 591 l 1226 667 l 1329 570 l 1324 559 l 1128 559 q 1128 358 1128 445 q 1025 320 1090 326 l 1025 391 l 781 391 l 781 309 q 678 271 749 277 q 684 391 678 326 l 418 391 l 358 385 l 342 423 l 684 423 q 684 559 684 477 l 304 559 q 49 -141 315 92 l 33 -125 q 163 190 130 38 q 201 613 201 347 l 201 1015 l 320 949 l 711 949 q 678 977 689 949 q 597 1118 662 1047 l 608 1128 q 727 1080 684 1112 q 770 1025 776 1058 q 716 949 765 971 l 1096 949 l 1161 1036 l 1286 928 l 1275 917 l 304 917 l 304 602 l 304 591 l 684 591 l 684 635 l 684 727 l 434 727 l 380 722 l 363 760 m 1134 -119 q 1025 -152 1090 -152 l 1025 -43 l 499 -43 l 499 -119 q 391 -157 456 -157 q 396 179 396 0 l 396 282 l 515 228 l 1009 228 l 1058 298 l 1177 222 q 1177 212 1188 222 l 1128 168 l 1128 141 q 1134 5 1128 103 q 1134 -119 1134 -87 m 1025 195 l 499 195 l 499 -11 l 1025 -11 l 1025 195 m 781 559 l 781 423 l 1025 423 l 1025 559 l 781 559 m 1025 727 l 781 727 l 781 591 l 1025 591 l 1025 727 z "},"商":{"ha":1389,"x_min":76,"x_max":1324,"o":"m 841 917 l 955 846 q 955 830 966 836 q 884 781 922 819 q 857 749 873 770 q 808 694 830 716 l 1069 694 l 1118 765 l 1237 689 q 1237 673 1248 684 l 1188 635 l 1188 -38 q 1042 -163 1188 -136 q 1025 -157 1025 -168 q 879 -33 1025 -76 l 879 -11 l 1036 -33 q 1085 16 1085 -38 l 1085 662 l 293 662 l 293 -114 q 190 -157 244 -163 q 190 -33 190 -119 q 195 277 195 136 l 195 765 l 309 694 l 526 694 q 510 722 521 705 q 434 884 488 819 l 445 895 q 575 825 510 868 q 608 770 608 803 q 564 694 602 727 l 754 694 q 841 917 819 814 m 917 38 q 819 0 890 16 l 819 65 l 564 65 l 564 0 q 467 -38 526 -33 q 467 222 467 87 l 467 407 l 575 353 l 798 353 l 846 418 l 955 347 q 955 336 966 342 l 911 298 l 911 184 q 917 38 911 71 m 1199 1042 l 1324 933 l 1313 922 l 163 922 l 92 911 l 76 955 l 667 955 q 662 966 662 955 q 575 1134 635 1063 l 586 1139 q 722 1085 667 1118 q 760 1031 760 1063 q 716 955 754 987 l 1128 955 l 1199 1042 m 819 326 l 564 326 l 564 98 l 819 98 l 819 326 m 543 629 l 646 548 q 640 532 656 532 q 564 494 602 532 q 336 326 483 418 l 320 342 q 543 629 472 499 m 760 602 q 987 510 895 570 q 1025 445 1031 483 q 977 374 1015 385 q 955 385 971 374 q 949 396 955 391 q 749 586 873 505 l 760 602 z "},"喀":{"ha":1389,"x_min":119,"x_max":1345,"o":"m 738 890 l 852 814 q 852 803 868 808 q 781 754 814 798 q 776 749 781 754 q 770 738 776 743 l 1009 738 l 1069 798 l 1177 700 q 1172 684 1177 694 l 1118 662 q 949 483 1036 564 q 1345 369 1085 407 l 1345 353 q 1232 271 1253 347 q 884 429 1009 336 q 662 293 787 347 l 732 255 l 1025 255 l 1080 320 l 1194 239 q 1194 228 1204 233 l 1145 184 l 1145 163 q 1150 -119 1145 -22 q 1042 -157 1107 -157 l 1042 -33 l 716 -33 l 716 -119 q 608 -157 673 -157 q 608 -43 608 -125 q 613 212 613 103 l 613 266 q 401 190 515 222 l 391 206 q 825 483 673 347 q 700 646 754 559 q 467 434 591 521 l 456 450 q 684 776 602 613 q 738 890 716 836 m 125 678 l 125 977 l 228 917 l 336 917 l 380 982 l 477 911 q 477 901 488 906 l 439 863 l 439 722 q 445 304 439 374 q 353 271 412 277 l 353 331 l 212 331 l 212 195 q 119 157 184 168 q 119 320 119 195 q 125 678 125 548 m 1042 222 l 716 222 l 716 0 l 1042 0 l 1042 222 m 353 890 l 212 890 l 212 363 l 353 363 l 353 890 m 1166 906 l 624 906 q 597 808 618 852 q 532 765 581 770 q 472 803 477 770 q 499 841 472 825 q 597 1004 570 884 l 608 1004 q 618 939 618 971 l 1156 939 l 1215 1004 l 1318 906 q 1318 895 1324 901 q 1318 890 1318 890 l 1264 879 l 1128 776 l 1112 787 l 1166 906 m 1015 705 l 743 705 q 722 673 738 689 q 873 532 792 591 q 1015 705 949 613 m 781 1128 q 933 1058 879 1096 q 949 1020 949 1042 q 879 939 933 955 q 852 971 863 939 q 770 1118 830 1042 l 781 1128 z "},"善":{"ha":1389,"x_min":54,"x_max":1340,"o":"m 1232 423 l 1340 326 l 1335 315 l 130 315 l 71 309 l 54 342 l 640 342 l 640 575 l 146 575 l 92 570 l 76 608 l 640 608 l 640 738 l 293 738 l 239 727 l 222 765 l 640 765 l 640 890 l 222 890 l 163 879 l 146 917 l 515 917 q 510 928 510 922 q 505 939 505 933 q 412 1112 477 1036 l 423 1123 q 570 1047 505 1096 q 597 998 597 1031 q 543 917 591 944 l 770 917 q 868 1134 836 1036 l 987 1063 q 982 1053 998 1053 q 922 1020 960 1047 q 911 1009 917 1015 q 825 917 857 949 l 1085 917 l 1145 993 l 1259 901 l 1253 890 l 743 890 l 743 765 l 1015 765 l 1074 841 l 1183 749 l 1177 738 l 743 738 l 743 608 l 1139 608 l 1204 689 l 1324 591 l 1318 575 l 743 575 l 743 342 l 846 342 q 955 570 917 461 l 1069 494 q 1063 477 1080 477 q 993 439 1025 477 q 960 407 982 429 q 895 342 917 358 l 1166 342 l 1232 423 m 1080 -125 q 971 -157 1036 -157 l 971 -54 l 418 -54 l 418 -125 q 309 -157 385 -157 q 315 92 315 -71 l 315 255 l 439 201 l 949 201 l 998 271 l 1118 195 q 1118 179 1128 190 l 1074 141 l 1074 71 q 1080 -125 1074 -87 m 971 168 l 418 168 l 418 -27 l 971 -27 l 971 168 m 342 559 q 472 488 407 532 q 505 423 505 461 q 439 347 494 363 q 412 374 423 347 q 331 548 391 472 l 342 559 z "}}}
